<?xml version="1.0" standalone="no"?>
<!DOCTYPE svg PUBLIC "-//W3C//DTD SVG 20010904//EN"
 "http://www.w3.org/TR/2001/REC-SVG-20010904/DTD/svg10.dtd">
<svg version="1.0" xmlns="http://www.w3.org/2000/svg"
 width="449.000000pt" height="356.000000pt" viewBox="0 0 449.000000 356.000000"
 preserveAspectRatio="xMidYMid meet">

<g transform="translate(0.000000,356.000000) scale(0.100000,-0.100000)"
fill="#000000" stroke="none">
<path d="M35 3518 c-3 -7 -6 -580 -8 -1273 l-2 -1260 1010 -5 1010 -5 3 -287
2 -288 -259 0 c-142 0 -272 -3 -289 -6 -28 -6 -35 -17 -86 -130 -60 -133 -68
-177 -37 -215 l19 -24 845 0 c817 0 846 1 866 19 35 32 27 82 -35 220 -51 113
-58 124 -86 130 -17 3 -147 6 -289 6 l-259 0 2 288 3 287 1010 5 1010 5 0
1270 0 1270 -2213 3 c-1765 2 -2214 0 -2217 -10z m1296 -15 l34 -8 -45 -5
c-73 -9 1162 -20 2163 -20 l929 0 -6 -872 c-3 -480 -5 -901 -6 -934 0 -52 -3
-62 -19 -67 -18 -4 -37 15 -33 35 2 11 -28 31 -35 24 -4 -4 -1 -11 6 -15 8 -5
9 -11 4 -14 -6 -4 -19 1 -29 9 -14 11 -15 17 -7 20 7 3 13 11 13 17 -1 7 -9 2
-19 -11 -19 -22 -48 -32 -35 -11 4 7 0 9 -14 5 -13 -4 -24 -2 -29 7 -4 8 -17
16 -27 18 -12 3 -21 14 -23 30 -3 23 0 26 22 22 13 -3 22 -9 20 -13 -3 -5 0
-12 6 -16 8 -4 9 -3 5 4 -5 8 2 12 18 12 14 0 26 -6 26 -12 0 -9 2 -10 8 -2 4
7 29 11 60 10 28 -1 57 1 62 4 15 10 -52 36 -155 61 -49 12 -102 28 -116 35
-15 7 -48 18 -75 24 -49 11 -87 40 -98 75 -3 11 -17 32 -30 46 -37 40 -96 166
-104 223 -6 43 -11 52 -31 54 -17 3 -22 9 -18 22 3 11 -1 38 -9 60 -11 32 -12
51 -4 83 21 80 21 83 5 54 -22 -37 -53 -141 -61 -203 -7 -55 12 -143 46 -220
10 -25 15 -46 9 -49 -5 -4 -9 -1 -9 4 0 6 -5 11 -11 11 -5 0 -7 -5 -4 -10 10
-16 -63 -15 -80 1 -6 6 -2 9 10 8 11 -1 29 -1 40 0 18 1 18 3 4 14 -9 7 -16
23 -15 37 1 19 -3 24 -18 22 -10 -2 -15 1 -12 7 3 5 0 15 -7 23 -8 7 -12 18
-10 25 2 6 -5 14 -17 18 -12 4 -19 9 -16 12 3 4 1 12 -6 20 -15 18 -2 29 17
13 27 -22 18 16 -10 44 -26 27 -25 55 3 51 9 -1 11 0 5 2 -7 3 -13 11 -13 19
0 8 4 13 9 10 5 -3 11 1 15 9 3 8 1 17 -4 20 -6 4 -10 1 -10 -5 0 -6 -5 -8
-11 -4 -7 4 1 14 21 27 l32 20 -23 12 c-22 12 -22 13 -2 19 21 7 48 54 37 65
-4 3 -9 0 -11 -6 -3 -7 -18 -13 -34 -13 -27 0 -28 2 -17 21 11 17 10 22 -7 35
-19 15 -19 15 8 9 17 -5 27 -3 27 4 0 6 7 11 15 11 8 0 15 -5 15 -12 0 -6 3
-9 6 -5 3 3 4 7 2 10 -1 2 4 12 12 22 11 14 12 19 3 22 -21 7 -15 23 8 23 15
0 19 5 15 15 -3 10 1 15 14 15 10 0 21 4 24 9 3 4 -6 6 -21 3 -18 -3 -24 -1
-19 7 4 6 2 11 -5 11 -10 0 -10 3 -1 12 15 15 15 29 0 25 -6 -1 -14 6 -16 16
-2 9 2 17 8 17 6 0 9 -4 6 -9 -3 -4 6 -13 20 -20 31 -14 44 -14 44 0 0 6 -7 9
-15 5 -17 -6 -19 2 -6 23 7 10 12 8 26 -10 17 -23 17 -23 12 -2 -3 14 1 24 11
28 8 3 12 8 9 11 -3 4 1 13 9 21 8 9 13 22 9 31 -5 13 -3 13 11 2 13 -12 17
-11 25 1 5 8 9 20 9 27 0 9 5 10 19 2 28 -15 33 -13 26 11 -5 15 -2 22 14 26
12 3 21 11 21 18 0 7 4 15 9 17 13 5 24 48 12 48 -6 0 -11 5 -11 10 0 18 18
11 25 -9 3 -11 12 -22 20 -25 9 -3 12 0 8 10 -3 7 -9 14 -13 14 -4 0 -10 10
-13 21 -4 16 -11 20 -24 15 -9 -4 -14 -4 -11 0 4 3 1 13 -7 21 -8 8 -15 20
-14 26 0 9 2 8 6 0 2 -7 11 -13 19 -13 8 0 14 -6 15 -12 0 -10 2 -10 6 0 4 10
8 10 19 1 12 -10 13 -9 8 5 -3 9 -14 16 -24 16 -10 0 -20 9 -23 20 -3 11 -1
18 3 15 5 -3 16 -2 26 2 13 5 -1 13 -52 30 -77 25 -150 30 -157 11 -4 -10 -8
-10 -15 1 -5 7 -12 9 -15 4 -4 -5 -20 -8 -37 -5 -25 3 -29 1 -24 -12 8 -20 -9
-21 -26 -1 -16 20 -31 19 -23 -1 4 -10 -1 -17 -16 -21 -11 -3 -21 -9 -21 -14
0 -8 -73 -32 -100 -32 -8 0 -17 -3 -20 -7 -12 -15 -100 -58 -100 -48 0 6 -8 5
-18 -4 -24 -21 -83 -49 -92 -43 -12 7 -70 -16 -70 -27 0 -6 -9 -8 -20 -5 -15
4 -20 0 -20 -15 0 -17 5 -20 30 -14 17 3 30 1 30 -4 0 -6 -9 -10 -20 -10 -11
0 -20 -4 -20 -8 0 -5 -7 -9 -15 -9 -8 0 -15 4 -15 9 0 4 -4 8 -9 8 -5 0 -5
-15 -1 -35 9 -39 4 -44 -16 -17 -10 14 -15 15 -26 4 -11 -11 -10 -12 5 -6 14
5 16 2 11 -12 -4 -11 -14 -25 -22 -31 -13 -11 -13 -13 2 -19 13 -5 14 -9 5
-20 -8 -10 -15 -11 -25 -4 -9 8 -15 6 -24 -7 -10 -16 -11 -16 -7 3 7 33 -7 46
-19 19 -10 -20 -8 -27 8 -44 10 -12 14 -21 8 -21 -6 0 -10 -8 -8 -18 2 -11 -3
-26 -11 -35 -8 -11 -9 -17 -2 -17 6 0 11 -18 10 -42 0 -44 4 -72 14 -98 3 -8
8 -27 11 -42 4 -17 11 -25 19 -22 8 3 20 -2 27 -11 11 -13 10 -15 -6 -9 -15 6
-13 0 9 -23 15 -16 24 -32 20 -36 -3 -4 -1 -7 5 -7 6 0 14 5 17 10 3 6 1 10
-4 10 -6 0 -11 4 -11 10 0 5 7 7 15 4 10 -4 13 -13 10 -25 -5 -14 4 -29 29
-54 20 -19 36 -40 36 -46 0 -6 8 -19 18 -28 11 -9 22 -29 26 -44 3 -15 11 -25
16 -22 10 6 14 -7 11 -31 -1 -6 6 -17 14 -24 8 -7 15 -21 15 -30 0 -10 3 -20
8 -22 4 -2 19 -25 33 -51 14 -27 29 -48 33 -48 12 2 34 -24 29 -35 -2 -7 1
-15 6 -19 6 -3 8 -12 4 -18 -4 -8 -1 -7 9 1 14 11 18 8 29 -18 8 -16 17 -30
20 -30 4 0 9 -9 12 -19 3 -11 13 -20 23 -21 46 -1 62 -5 57 -13 -2 -4 -13 -5
-24 -2 -10 4 -19 2 -19 -4 0 -11 38 -26 58 -23 6 2 12 -5 12 -15 0 -12 8 -18
25 -19 13 -1 32 -9 40 -18 19 -19 32 -20 37 -4 3 7 11 9 24 4 19 -8 19 -8 -1
-16 -20 -9 -7 -15 23 -11 6 1 12 -6 12 -15 0 -17 1 -17 13 0 12 16 14 16 35
-2 12 -11 22 -24 22 -31 0 -6 5 -11 10 -11 6 0 10 5 10 10 0 7 7 7 21 -1 17
-9 24 -8 31 2 7 10 8 6 4 -12 -5 -21 -1 -28 14 -32 11 -3 20 0 20 5 0 6 8 1
19 -10 10 -12 28 -22 40 -22 12 0 20 -4 17 -8 -3 -5 16 -14 41 -20 24 -7 52
-19 60 -28 9 -8 23 -12 34 -9 10 4 19 2 19 -3 0 -10 104 -35 192 -47 26 -3 50
-11 54 -16 3 -5 2 -64 -1 -129 -6 -101 -10 -120 -24 -120 -14 0 -14 2 -1 10
12 7 8 10 -15 10 -20 0 -26 -3 -17 -9 26 -16 -623 -22 -2430 -21 l-1838 1 -2
460 c-2 252 0 459 4 459 4 0 13 -6 21 -14 7 -8 33 -20 55 -27 23 -7 42 -15 42
-19 0 -4 15 -11 33 -15 17 -4 39 -9 47 -12 8 -2 22 -5 30 -7 8 -1 26 -7 40
-13 14 -7 38 -14 54 -18 16 -3 30 -14 33 -25 3 -11 11 -16 19 -13 8 3 14 -1
14 -10 0 -13 33 -31 52 -28 5 1 8 -6 8 -15 0 -9 12 -29 28 -43 51 -50 102
-119 102 -139 0 -21 25 -32 72 -32 15 0 30 -4 33 -10 4 -6 -15 -10 -49 -10
-47 0 -60 -4 -85 -29 -24 -24 -40 -29 -101 -35 -69 -7 -72 -8 -66 -31 5 -19 2
-24 -16 -28 -31 -6 175 -12 292 -9 116 3 140 8 140 28 0 16 38 34 58 27 6 -3
12 2 12 10 0 9 8 18 18 21 16 5 169 25 202 27 10 0 9 3 -5 9 -14 6 -15 9 -5
10 38 4 -31 19 -90 20 l-65 1 93 25 c51 13 114 35 140 48 41 21 43 24 19 24
-15 0 -27 -5 -27 -10 0 -6 -11 -7 -24 -4 -14 3 -27 2 -30 -3 -3 -5 -15 -7 -26
-4 -11 3 -20 1 -20 -3 0 -5 -57 -8 -127 -6 -71 2 -145 3 -165 3 -28 0 -35 4
-31 15 3 8 0 14 -6 14 -7 0 -15 -8 -18 -17 -6 -14 -9 -12 -19 12 -7 17 -13 24
-14 17 0 -21 -20 -3 -20 19 0 13 -4 18 -12 13 -8 -5 -9 -2 -4 11 5 15 4 16 -9
5 -13 -10 -15 -9 -15 10 0 20 -2 21 -17 9 -15 -13 -15 -12 -4 10 13 23 12 23
-13 17 -16 -4 -26 -2 -26 4 0 6 5 8 10 5 6 -3 10 -1 10 4 0 6 -9 11 -19 11
-11 0 -23 5 -26 10 -3 6 1 10 9 10 13 0 11 5 -6 25 -12 14 -28 23 -35 21 -7
-3 -15 -1 -18 3 -3 5 2 12 11 15 22 8 10 22 -27 30 -22 4 -29 10 -26 20 4 9 1
13 -7 10 -7 -3 -18 7 -24 21 -10 21 -17 24 -39 20 l-28 -5 28 12 c30 13 39 58
11 58 -8 0 -22 7 -30 15 -13 13 -12 17 11 37 14 12 25 28 25 36 0 12 -4 12
-19 -2 -11 -10 -25 -15 -30 -11 -6 3 -11 -1 -11 -9 0 -9 -3 -16 -7 -16 -5 0
-8 11 -8 24 0 13 3 22 7 20 4 -3 11 4 17 13 9 16 12 16 21 3 11 -17 13 -10 4
14 -3 9 -16 17 -28 17 -16 1 -17 2 -3 6 21 6 22 19 2 27 -8 3 -15 11 -15 17 0
8 4 8 13 2 8 -6 21 -5 37 3 14 8 19 14 13 14 -7 0 -13 5 -13 11 0 5 5 7 10 4
7 -4 9 2 5 17 -4 16 -1 29 9 37 9 7 13 18 9 24 -4 7 1 8 13 4 14 -5 12 -2 -6
12 -14 11 -21 23 -17 27 4 4 7 2 7 -4 0 -7 5 -12 12 -12 6 0 9 3 5 6 -3 3 -1
17 4 31 8 21 7 24 -6 19 -8 -3 -15 -1 -15 4 0 6 11 10 25 10 22 0 25 4 25 33
0 27 -6 36 -27 46 -35 16 -123 25 -123 13 0 -6 -23 -10 -50 -10 -28 -1 -64 -8
-81 -16 -17 -9 -47 -18 -68 -22 -20 -4 -40 -9 -46 -13 -5 -3 -14 -6 -20 -7 -5
0 -16 -2 -22 -2 -9 -1 -13 -19 -13 -50 0 -37 -4 -49 -15 -49 -13 0 -15 67 -15
544 l0 543 629 0 c346 0 644 -3 662 -7z m2599 -558 c7 -9 8 -15 2 -15 -5 0
-12 7 -16 15 -3 8 -4 15 -2 15 2 0 9 -7 16 -15z m-680 -35 c0 -5 -7 -10 -15
-10 -8 0 -15 -5 -15 -12 0 -6 -3 -9 -6 -5 -11 10 4 37 21 37 8 0 15 -4 15 -10z
m638 -30 c-7 -11 -21 -20 -30 -20 -10 0 -18 -6 -18 -14 0 -8 -4 -17 -8 -20 -4
-2 -8 11 -8 30 0 31 2 35 22 30 13 -4 26 -2 29 4 3 5 10 10 16 10 5 0 4 -9 -3
-20z m-84 -39 c4 -5 -3 -7 -14 -4 -23 6 -26 13 -6 13 8 0 17 -4 20 -9z m-44
-81 c0 -4 -9 -6 -21 -3 -15 4 -17 8 -8 14 14 8 29 3 29 -11z m-650 0 c0 -5 -5
-10 -11 -10 -5 0 -7 5 -4 10 3 6 8 10 11 10 2 0 4 -4 4 -10z m558 -138 c-6 -7
-14 -9 -17 -5 -4 4 -10 11 -14 14 -5 4 3 6 16 5 20 -1 23 -4 15 -14z m-18 -50
c0 -5 -7 -9 -15 -9 -8 0 -12 4 -9 9 3 4 9 8 15 8 5 0 9 -4 9 -8z m-3145 -52
c3 -5 1 -10 -4 -10 -6 0 -11 5 -11 10 0 6 2 10 4 10 3 0 8 -4 11 -10z m3115
-74 c0 -2 -9 -6 -20 -9 -11 -3 -18 -1 -14 4 5 9 34 13 34 5z m-3157 -46 c-6
-24 -12 -24 -38 -3 -16 12 -16 14 -3 10 10 -3 20 -2 23 3 11 18 23 10 18 -10z
m-416 -32 c-3 -8 -6 -5 -6 6 -1 11 2 17 5 13 3 -3 4 -12 1 -19z m387 6 c8 -21
8 -24 -3 -24 -5 0 -11 9 -14 20 -6 24 8 27 17 4z m3176 6 c0 -5 -7 -7 -15 -4
-8 4 -15 8 -15 10 0 2 7 4 15 4 8 0 15 -4 15 -10z m-3190 -54 c0 -3 -4 -8 -10
-11 -5 -3 -10 -1 -10 4 0 6 5 11 10 11 6 0 10 -2 10 -4z m3185 -206 c3 -5 1
-10 -4 -10 -6 0 -11 5 -11 10 0 6 2 10 4 10 3 0 8 -4 11 -10z m165 -33 c0 -5
-4 -5 -10 -2 -5 3 -10 14 -10 23 0 15 2 15 10 2 5 -8 10 -19 10 -23z m-3345
-6 c-6 -5 -25 10 -25 20 0 5 6 4 14 -3 8 -7 12 -15 11 -17z m3210 -2 c-4 -5 1
-12 9 -15 9 -3 16 -10 16 -14 0 -5 -11 -3 -24 3 -15 7 -21 17 -18 29 2 10 8
15 13 12 5 -3 7 -10 4 -15z m5 -49 c0 -5 -7 -7 -15 -4 -8 4 -15 8 -15 10 0 2
7 4 15 4 8 0 15 -4 15 -10z m140 -91 c0 -11 7 -19 17 -19 14 0 15 -2 4 -12
-10 -11 -16 -8 -31 12 -23 30 -26 52 -5 44 8 -4 15 -15 15 -25z m-140 11 c0
-5 -2 -10 -4 -10 -3 0 -8 5 -11 10 -3 6 -1 10 4 10 6 0 11 -4 11 -10z m-3083
-6 c-3 -3 -12 -4 -19 -1 -8 3 -5 6 6 6 11 1 17 -2 13 -5z m3273 -59 c-7 -9 -9
-19 -5 -23 4 -4 10 -1 12 6 6 17 23 15 23 -3 0 -8 -4 -15 -10 -15 -5 0 -10 -6
-10 -13 0 -8 -9 -13 -20 -12 -23 2 -40 15 -19 15 11 0 11 2 -1 10 -12 8 -12
10 -1 10 8 0 11 3 8 7 -8 8 11 33 25 33 6 0 5 -7 -2 -15z m-55 -14 c3 -5 0
-13 -6 -17 -8 -5 -9 -3 -4 6 6 10 4 12 -9 7 -10 -4 -15 -3 -11 3 8 13 22 13
30 1z m115 -41 c0 -5 7 -7 15 -4 8 4 15 1 15 -5 0 -6 -7 -11 -15 -11 -8 0 -15
-8 -15 -18 0 -10 -7 -19 -15 -19 -18 0 -18 2 -5 28 7 13 7 19 0 19 -5 0 -10
-5 -10 -12 0 -6 -2 -9 -5 -6 -3 3 -3 13 1 22 7 17 34 23 34 6z m63 -27 c-5
-11 -3 -14 6 -8 14 8 61 -13 61 -27 0 -14 -27 -38 -42 -38 -9 1 -7 5 5 14 9 7
17 19 17 26 0 10 -3 10 -15 0 -8 -7 -25 -10 -40 -6 -14 4 -25 2 -25 -4 0 -5
-4 -10 -10 -10 -18 0 -10 31 13 51 28 23 38 24 30 2z m136 -48 c52 -16 62 -32
36 -61 -14 -16 -33 6 -27 31 5 18 4 18 -12 6 -9 -8 -19 -11 -23 -8 -3 4 -11 0
-17 -9 -10 -13 -12 -9 -14 20 -2 20 -1 36 1 36 2 0 27 -7 56 -15z m-129 -16
c0 -14 -17 -10 -23 5 -4 10 -1 13 9 9 7 -3 14 -9 14 -14z m115 -49 c3 -5 1
-10 -4 -10 -6 0 -11 5 -11 10 0 6 2 10 4 10 3 0 8 -4 11 -10z m-225 -54 c0 -9
-30 -14 -35 -6 -4 6 3 10 14 10 12 0 21 -2 21 -4z m317 -2 c-3 -3 -12 -4 -19
-1 -8 3 -5 6 6 6 11 1 17 -2 13 -5z m130 -40 c-3 -3 -12 -4 -19 -1 -8 3 -5 6
6 6 11 1 17 -2 13 -5z m100 -26 c-3 -8 -6 -5 -6 6 -1 11 2 17 5 13 3 -3 4 -12
1 -19z m-1340 -1500 c-3 -8 -6 -5 -6 6 -1 11 2 17 5 13 3 -3 4 -12 1 -19z"/>
<path d="M205 3212 l0 -137 98 -3 97 -3 0 26 c0 24 -2 25 -70 25 l-70 0 0 115
0 115 -27 0 -28 0 0 -138z"/>
<path d="M473 3330 c-74 -49 -70 -205 6 -244 35 -19 114 -21 160 -5 30 11 31
12 31 74 l0 63 -55 4 c-51 3 -55 1 -55 -19 0 -16 7 -22 27 -25 22 -2 28 -8 27
-28 0 -20 -6 -26 -29 -31 -38 -7 -83 8 -95 31 -15 28 -12 103 5 127 21 30 68
38 107 19 29 -15 33 -15 47 -1 45 45 -113 76 -176 35z"/>
<path d="M850 3211 l0 -141 26 0 25 0 -3 90 c-2 50 -1 90 2 90 3 0 21 -41 40
-90 32 -82 37 -91 59 -88 20 3 29 17 60 98 l36 95 3 -97 c3 -97 3 -98 27 -98
l25 0 0 140 0 140 -34 0 c-33 0 -34 0 -72 -101 -21 -55 -41 -102 -44 -104 -4
-2 -25 42 -47 98 -38 97 -42 102 -72 105 l-31 3 0 -140z"/>
<path d="M1670 3330 c0 -13 7 -20 20 -20 13 0 20 7 20 20 0 13 -7 20 -20 20
-13 0 -20 -7 -20 -20z"/>
<path d="M1760 3221 c0 -140 7 -154 74 -149 29 2 42 8 44 21 3 13 -4 17 -31
17 -40 0 -47 11 -47 75 0 35 4 45 21 50 11 4 23 4 26 1 7 -7 33 13 33 25 0 4
-17 9 -37 11 -35 3 -38 6 -41 36 -2 24 -8 32 -23 32 -18 0 -19 -8 -19 -119z"/>
<path d="M4118 3333 c7 -3 16 -2 19 1 4 3 -2 6 -13 5 -11 0 -14 -3 -6 -6z"/>
<path d="M1220 3253 c-28 -25 -33 -37 -34 -74 -1 -59 23 -95 73 -110 48 -14
85 -6 117 26 19 19 24 35 24 74 0 70 -28 102 -97 108 -45 5 -54 2 -83 -24z
m114 -29 c25 -24 21 -90 -6 -108 -30 -21 -54 -20 -78 4 -41 41 -14 120 40 120
16 0 36 -7 44 -16z"/>
<path d="M1670 3173 c0 -96 1 -103 20 -103 19 0 20 7 20 103 0 96 -1 103 -20
103 -19 0 -20 -7 -20 -103z"/>
<path d="M1948 3265 c-35 -20 -48 -44 -48 -90 0 -80 65 -131 141 -109 73 21
101 127 48 180 -33 33 -101 42 -141 19z m102 -45 c37 -37 13 -120 -36 -120
-26 0 -55 20 -64 46 -10 26 2 73 23 86 22 14 57 8 77 -12z"/>
<path d="M1430 3170 c0 -100 0 -100 25 -100 24 0 24 2 27 83 l3 82 40 0 40 0
3 -82 c3 -81 3 -83 27 -83 24 0 25 2 25 81 0 116 -3 119 -105 119 l-85 0 0
-100z"/>
<path d="M2167 3252 c-13 -14 -17 -38 -17 -100 0 -81 0 -82 25 -82 24 0 25 2
25 76 l0 75 34 14 c54 23 53 35 -2 35 -35 0 -54 -5 -65 -18z"/>
<path d="M2953 3196 c7 -13 15 -22 18 -20 4 2 12 -2 18 -10 7 -8 21 -12 34 -9
22 5 22 5 2 -10 -19 -15 -19 -17 -2 -34 13 -14 17 -14 17 -3 0 10 7 6 20 -10
10 -14 22 -22 25 -18 11 11 -15 48 -33 48 -12 0 -14 2 -4 8 10 7 8 12 -5 25
-10 8 -22 17 -28 19 -5 2 -9 9 -9 16 1 8 -7 12 -20 10 -11 -1 -26 1 -33 5 -8
5 -8 1 0 -17z"/>
<path d="M3520 3070 c-8 -5 -12 -11 -9 -14 2 -3 11 -1 19 4 8 5 12 11 9 14 -2
3 -11 1 -19 -4z"/>
<path d="M493 2914 c4 -4 -2 -19 -13 -34 l-19 -27 22 1 c17 1 23 8 25 34 2 20
-1 32 -9 32 -7 0 -9 -3 -6 -6z"/>
<path d="M3940 2864 c0 -8 5 -12 10 -9 6 3 10 10 10 16 0 5 -4 9 -10 9 -5 0
-10 -7 -10 -16z"/>
<path d="M3900 2860 c0 -5 5 -10 10 -10 6 0 10 5 10 10 0 6 -4 10 -10 10 -5 0
-10 -4 -10 -10z"/>
<path d="M3090 2845 c0 -8 4 -15 10 -15 5 0 7 7 4 15 -4 8 -8 15 -10 15 -2 0
-4 -7 -4 -15z"/>
<path d="M3045 2810 c-3 -5 -1 -10 4 -10 6 0 11 5 11 10 0 6 -2 10 -4 10 -3 0
-8 -4 -11 -10z"/>
<path d="M839 2773 c-8 -14 -15 -19 -19 -13 -7 11 -72 -18 -95 -42 -7 -8 -6
-8 4 -3 10 6 12 4 7 -4 -5 -7 -14 -10 -22 -7 -7 3 -18 -3 -23 -12 -5 -10 -21
-24 -35 -31 -18 -10 -24 -20 -21 -35 2 -12 4 -23 4 -26 1 -3 13 -12 29 -21 36
-20 174 -15 165 6 -8 21 14 78 48 125 28 38 29 43 15 64 -19 29 -41 29 -57 -1z"/>
<path d="M3050 2780 c-8 -5 -12 -11 -9 -14 3 -3 14 1 25 9 21 16 8 20 -16 5z"/>
<path d="M3990 2740 c-12 -8 -11 -10 8 -10 12 0 22 5 22 10 0 13 -11 13 -30 0z"/>
<path d="M3785 2730 c3 -5 15 -10 25 -10 10 0 22 5 25 10 4 6 -7 10 -25 10
-18 0 -29 -4 -25 -10z"/>
<path d="M3950 2710 c0 -5 4 -10 9 -10 6 0 13 5 16 10 3 6 -1 10 -9 10 -9 0
-16 -4 -16 -10z"/>
<path d="M3901 2674 c-12 -14 -21 -28 -18 -31 6 -5 57 41 57 52 0 11 -16 3
-39 -21z"/>
<path d="M3800 2670 c0 -5 7 -7 15 -4 8 4 15 8 15 10 0 2 -7 4 -15 4 -8 0 -15
-4 -15 -10z"/>
<path d="M3760 2659 c0 -5 5 -7 10 -4 6 3 10 8 10 11 0 2 -4 4 -10 4 -5 0 -10
-5 -10 -11z"/>
<path d="M3855 2620 c-3 -5 -1 -10 4 -10 6 0 11 5 11 10 0 6 -2 10 -4 10 -3 0
-8 -4 -11 -10z"/>
<path d="M3796 2544 c-9 -24 -2 -26 12 -4 7 11 8 20 3 20 -5 0 -12 -7 -15 -16z"/>
<path d="M3680 2535 c0 -8 4 -15 10 -15 5 0 7 7 4 15 -4 8 -8 15 -10 15 -2 0
-4 -7 -4 -15z"/>
<path d="M3617 2500 c-4 -16 -2 -18 11 -11 10 4 24 6 32 4 10 -3 8 1 -4 11
-26 21 -33 20 -39 -4z"/>
<path d="M2014 2442 c4 -7 -6 -25 -24 -42 -16 -16 -30 -34 -30 -40 0 -5 -4
-10 -9 -10 -5 0 -16 -6 -23 -13 -33 -33 -62 -46 -74 -36 -15 13 -34 4 -34 -16
0 -17 -31 -35 -58 -35 -44 0 6 -101 53 -108 11 -2 33 -12 49 -24 l28 -20 49
23 c84 39 136 132 124 219 -7 48 -28 94 -46 106 -8 4 -9 3 -5 -4z"/>
<path d="M1179 2313 c-12 -15 -12 -16 4 -10 10 4 26 7 35 7 15 0 15 2 2 10
-21 13 -25 13 -41 -7z"/>
<path d="M1140 2276 c0 -2 29 -25 65 -52 35 -27 65 -54 65 -61 0 -6 5 -13 12
-15 9 -3 9 -12 0 -38 -7 -18 -10 -36 -7 -38 10 -11 18 9 22 55 7 78 -38 130
-124 146 -18 4 -33 5 -33 3z"/>
<path d="M3087 2273 c-4 -3 -7 -11 -7 -17 0 -6 5 -5 12 2 6 6 9 14 7 17 -3 3
-9 2 -12 -2z"/>
<path d="M445 2120 c4 -6 11 -8 16 -5 14 9 11 15 -7 15 -8 0 -12 -5 -9 -10z"/>
<path d="M3690 2036 c0 -9 5 -16 10 -16 6 0 10 4 10 9 0 6 -4 13 -10 16 -5 3
-10 -1 -10 -9z"/>
<path d="M497 2019 c7 -7 15 -10 18 -7 3 3 -2 9 -12 12 -14 6 -15 5 -6 -5z"/>
<path d="M3135 1880 c-9 -27 -58 -60 -89 -60 -45 0 -28 -58 24 -85 62 -32 130
-10 150 49 12 37 6 61 -23 94 -25 27 -54 29 -62 2z"/>
<path d="M4048 1748 c5 -5 16 -8 23 -6 8 3 3 7 -10 11 -17 4 -21 3 -13 -5z"/>
</g>
</svg>
