<?xml version="1.0" standalone="no"?>
<!DOCTYPE svg PUBLIC "-//W3C//DTD SVG 20010904//EN"
 "http://www.w3.org/TR/2001/REC-SVG-20010904/DTD/svg10.dtd">
<svg version="1.0" xmlns="http://www.w3.org/2000/svg"
 width="450.000000pt" height="411.000000pt" viewBox="0 0 450.000000 411.000000"
 preserveAspectRatio="xMidYMid meet">

<g transform="translate(0.000000,411.000000) scale(0.100000,-0.100000)"
fill="#000000" stroke="none">
<path d="M9 4075 c-3 -2 -3 -597 -1 -1322 2 -1007 6 -1319 15 -1325 7 -4 485
-8 1064 -8 l1052 0 1 -463 c0 -255 -3 -478 -6 -495 -6 -29 -10 -31 -53 -35
-44 -3 -45 -3 -15 -11 17 -4 31 -13 31 -20 0 -10 -29 -13 -111 -13 -110 0
-227 -10 -400 -33 -49 -6 -104 -10 -122 -8 -18 2 -31 1 -28 -3 6 -10 -42 -39
-65 -39 -20 0 -31 -18 -31 -54 0 -37 78 -111 145 -136 293 -110 1244 -103
1552 12 71 26 126 92 121 145 -2 28 -7 38 -20 37 -9 -1 -14 4 -12 11 6 14 -22
28 -37 19 -5 -3 -16 2 -24 10 -12 12 -22 13 -41 6 -27 -11 -117 -5 -174 11
-19 5 -89 14 -155 19 -202 16 -263 28 -249 52 4 6 -1 8 -15 3 -12 -4 -21 -2
-21 4 0 7 -8 7 -24 1 -20 -7 -25 -5 -30 13 -3 12 -6 235 -6 494 l0 473 1073 2
1072 3 0 1325 0 1325 -2241 3 c-1232 1 -2243 0 -2245 -3z m1491 -49 c0 -2 -8
-10 -17 -17 -16 -13 -17 -12 -4 4 13 16 21 21 21 13z m-40 -29 c0 -2 -10 -12
-22 -23 l-23 -19 19 23 c18 21 26 27 26 19z m-50 -41 c0 -2 -8 -10 -17 -17
-16 -13 -17 -12 -4 4 13 16 21 21 21 13z m126 -58 c-40 -50 -110 -158 -162
-251 -26 -45 -55 -94 -66 -109 -14 -20 -15 -26 -5 -22 11 4 14 -4 13 -32 -1
-39 1 -41 74 -73 23 -10 22 -11 -10 -5 -19 3 -54 8 -78 11 -24 3 -46 11 -49
18 -10 29 195 382 266 458 43 46 53 48 17 5z m-206 -3 c-7 -9 -27 -25 -44 -37
-23 -15 -21 -11 9 16 43 38 55 45 35 21z m25 -64 c-6 -4 -125 -97 -265 -206
-221 -172 -372 -296 -484 -397 -17 -16 -37 -28 -45 -28 -10 0 -6 6 9 17 14 9
42 34 64 55 21 21 43 38 48 38 6 0 8 7 4 15 -3 10 1 15 12 15 22 0 76 46 62
53 -6 3 -5 4 2 3 11 -2 85 53 188 141 84 72 266 211 330 254 70 46 96 60 75
40z m-115 -5 c0 -2 -8 -10 -17 -17 -16 -13 -17 -12 -4 4 13 16 21 21 21 13z
m-40 -30 c0 -2 -19 -19 -42 -36 l-43 -32 40 36 c40 36 45 39 45 32z m-90 -70
c0 -2 -8 -10 -17 -17 -16 -13 -17 -12 -4 4 13 16 21 21 21 13z m719 -222 c32
-13 47 -26 57 -51 8 -19 11 -39 7 -46 -4 -7 17 9 46 36 65 58 134 81 247 81
90 1 108 -7 118 -55 l6 -31 27 18 c57 37 106 55 181 66 135 19 272 -18 272
-74 0 -17 5 -16 40 15 22 18 59 40 82 47 61 18 187 24 222 11 25 -10 28 -15
22 -43 -3 -18 -12 -35 -19 -40 -6 -4 -52 -7 -100 -6 -75 1 -91 -2 -108 -18
-11 -12 -37 -82 -62 -169 l-43 -150 -59 -3 c-32 -2 -61 1 -65 5 -5 4 5 51 21
103 16 52 31 109 35 125 l6 30 -25 -23 c-35 -33 -123 -57 -259 -72 -99 -11
-118 -16 -118 -30 0 -9 9 -25 21 -36 19 -17 36 -19 161 -17 l139 2 -6 -32 c-4
-18 -11 -36 -17 -42 -13 -15 -244 -19 -305 -5 -28 6 -63 22 -77 35 -25 23 -25
23 -28 2 -5 -39 -43 -48 -178 -45 -142 3 -183 18 -210 76 -8 17 -18 32 -21 32
-3 0 -11 -18 -18 -40 -16 -53 -36 -60 -182 -67 -143 -7 -218 2 -260 30 -92 62
-24 180 120 207 31 6 70 14 86 19 l30 9 -27 1 c-15 1 -30 6 -33 11 -4 6 33 10
104 10 102 0 111 2 111 19 0 44 -62 57 -213 44 -54 -5 -101 -5 -103 -1 -9 14
27 68 49 73 87 19 266 13 326 -11z m-619 -78 c0 -8 13 -23 29 -32 35 -21 32
-33 -34 -103 -23 -25 -58 -71 -78 -102 -21 -31 -49 -69 -63 -85 -15 -15 -39
-44 -53 -64 -15 -19 -33 -36 -41 -38 -8 -2 -71 -63 -141 -135 -101 -104 -130
-129 -140 -120 -15 15 -8 26 181 295 198 283 292 397 328 398 6 0 12 -6 12
-14z m-770 -305 c0 -4 -24 -38 -52 -74 -65 -81 -157 -233 -235 -387 -36 -72
-65 -116 -75 -118 -28 -5 -22 30 17 116 76 164 180 323 277 425 43 44 68 58
68 38z m40 -15 c0 -3 -4 -8 -10 -11 -5 -3 -10 -1 -10 4 0 6 5 11 10 11 6 0 10
-2 10 -4z m-55 -55 c-3 -6 -11 -11 -16 -11 -5 0 -4 6 3 14 14 16 24 13 13 -3z
m-92 -116 c-3 -9 -8 -14 -10 -11 -3 3 -2 9 2 15 9 16 15 13 8 -4z m1052 -310
l70 -205 3 205 2 205 75 0 75 0 0 -364 0 -363 -67 -6 c-37 -4 -70 -3 -74 1 -3
4 -32 81 -63 172 -93 268 -85 265 -85 33 l-1 -203 -42 -2 c-24 -1 -56 -2 -73
-2 l-30 -1 -3 368 -2 367 72 0 73 0 70 -205z m483 -162 l-3 -367 -75 -1 -75 0
-5 175 c-3 96 -3 262 -2 368 l4 192 79 0 79 0 -2 -367z m472 307 l0 -60 -65 0
-65 0 0 -309 0 -309 42 15 c24 8 64 13 90 11 l48 -3 0 358 0 357 170 0 c254 0
260 -5 260 -232 0 -124 -3 -147 -19 -175 -11 -17 -29 -34 -40 -38 -12 -3 -21
-10 -21 -15 0 -5 25 -66 55 -135 30 -70 55 -131 55 -136 0 -6 -34 -9 -82 -7
l-83 3 -54 138 c-32 79 -60 137 -68 137 -10 0 -13 -31 -13 -140 l0 -140 -42
-1 c-34 -1 -38 -2 -19 -8 33 -9 38 -29 9 -35 -116 -26 -217 -32 -307 -18 -54
8 -62 25 -21 43 30 14 29 14 -42 19 l-73 5 -3 308 -2 307 -65 0 -65 0 0 60 0
60 210 0 210 0 0 -60z m938 40 c18 -11 37 -32 42 -46 15 -39 13 -573 -3 -603
-24 -48 -59 -63 -156 -69 -50 -2 -88 -8 -86 -13 7 -11 -106 -46 -205 -63 -122
-21 -189 -36 -238 -52 -55 -18 -73 -18 -66 1 4 8 12 15 19 15 8 0 20 6 27 14
8 7 29 16 48 19 47 7 60 10 165 46 94 33 115 39 128 40 5 1 -3 15 -17 31 -34
42 -38 78 -34 370 3 278 5 286 63 315 22 10 65 15 155 15 108 0 130 -3 158
-20z m-914 -1291 c-3 -5 -12 -9 -20 -9 -8 0 -14 -7 -14 -15 0 -13 -4 -12 -22
4 -11 11 -25 18 -31 14 -5 -3 -3 -9 4 -14 10 -6 8 -9 -9 -9 -13 0 -20 4 -17
10 3 6 -3 10 -14 10 -10 0 -21 -6 -23 -12 -4 -10 -10 -10 -31 -1 -49 22 -28
30 78 30 57 0 102 -4 99 -8z m-134 -121 c0 -13 5 -30 10 -38 8 -12 10 -10 11
10 1 14 2 31 2 38 -1 6 9 12 22 12 19 0 23 -7 29 -47 3 -27 9 -247 13 -489 6
-427 5 -442 -13 -451 -24 -13 -112 -9 -126 5 -7 7 -8 155 -4 474 3 254 7 473
8 486 1 16 8 22 25 22 17 0 23 -6 23 -22z m224 -993 c11 -8 16 -18 12 -22 -4
-4 -12 0 -17 9 -6 11 -16 15 -26 11 -11 -4 -14 -3 -9 5 9 15 17 15 40 -3z
m-158 -24 c-10 -16 -36 -13 -36 3 0 17 21 27 34 16 4 -5 5 -13 2 -19z m-66 4
c0 -8 -6 -15 -14 -15 -8 0 -16 7 -20 15 -4 10 1 15 14 15 11 0 20 -7 20 -15z
m383 -292 c-7 -2 -21 -2 -30 0 -10 3 -4 5 12 5 17 0 24 -2 18 -5z m-625 -10
c-10 -2 -26 -2 -35 0 -10 3 -2 5 17 5 19 0 27 -2 18 -5z"/>
<path d="M2496 3440 c-26 -5 -59 -18 -71 -30 -26 -24 -51 -77 -42 -87 9 -9
211 23 243 38 100 50 10 104 -130 79z"/>
<path d="M2095 3429 c-16 -5 -43 -19 -59 -32 l-28 -23 41 -14 c41 -13 68 -7
41 10 -21 13 30 30 91 30 45 0 49 -2 35 -15 -9 -9 -33 -15 -63 -15 -33 0 -44
-3 -33 -10 8 -5 12 -11 10 -13 -15 -12 -95 -37 -119 -37 -32 0 -41 -14 -41
-66 0 -58 63 -80 192 -68 l73 6 1 52 c0 30 11 76 25 112 l25 61 -25 -4 -26 -4
23 13 c12 8 19 17 16 21 -10 10 -143 7 -179 -4z"/>
<path d="M1616 3278 c-117 -17 -156 -33 -156 -64 0 -32 45 -45 145 -42 l98 3
19 55 c10 30 17 57 16 60 -2 3 -56 -2 -122 -12z"/>
<path d="M2550 2600 l0 -111 53 3 52 3 0 105 0 105 -52 3 -53 3 0 -111z"/>
<path d="M3065 2698 c-3 -7 -4 -117 -3 -243 l3 -230 50 0 50 0 0 240 0 240
-48 3 c-32 2 -49 -1 -52 -10z"/>
<path d="M1389 323 c-13 -17 -13 -17 6 -3 11 8 22 16 24 17 2 2 0 3 -6 3 -6 0
-17 -8 -24 -17z"/>
</g>
</svg>
