<?xml version="1.0" encoding="UTF-8"?>
<svg version="1.1" xmlns="http://www.w3.org/2000/svg" width="450" height="450">
<path d="M0 0 C148.5 0 297 0 450 0 C450 148.5 450 297 450 450 C301.5 450 153 450 0 450 C0 301.5 0 153 0 0 Z " fill="#2F70B7" transform="translate(0,0)"/>
<path d="M0 0 C148.5 0 297 0 450 0 C450 148.5 450 297 450 450 C301.5 450 153 450 0 450 C0 301.5 0 153 0 0 Z M293.3125 3.9375 C283.52778991 5.18370203 273.82841982 6.18272801 263.97680664 6.73364258 C257.14237456 7.19139722 250.3592618 8.03948315 243.5625 8.875 C242.20903465 9.03817799 240.85551884 9.20093795 239.50195312 9.36328125 C233.08751806 10.13481035 226.67437079 10.91576768 220.26318359 11.71386719 C203.92016613 13.73218421 187.5559138 15.3196859 171.15673828 16.80224609 C158.15219385 17.98274925 145.17971383 19.28479679 132.21894836 20.87901306 C122.20093455 22.11047968 112.16992386 23.1966407 102.13208008 24.25268555 C99.16923791 24.56442145 96.20667183 24.87868322 93.24414062 25.19335938 C77.73353915 26.83641321 77.73353915 26.83641321 71.33056641 27.45654297 C54.52949525 29.084996 37.76710288 31.05750427 21 33 C20.81333158 53.02067783 20.65050306 73.04152165 20.5 93.0625 C20.49405146 93.85098233 20.48810292 94.63946466 20.48197412 95.4518404 C19.94471844 166.90668919 19.91395931 238.36125443 19.93684149 309.81764764 C19.93750201 311.88129357 19.93814475 313.94493951 19.93878555 316.00858545 C19.94987709 351.33906311 19.97021657 386.66953305 20 422 C20.78812293 422.05534912 21.57624586 422.11069824 22.3882513 422.16772461 C26.01989042 422.42333411 29.65142447 422.68040878 33.28295898 422.9375 C34.52229942 423.02451172 35.76163986 423.11152344 37.03853607 423.20117188 C47.18566344 423.92115283 57.31375982 424.78441103 67.44018555 425.75 C70.09719245 426.00330743 72.75460213 426.25200151 75.41210938 426.5 C83.96712815 427.30308264 92.51512245 428.15242021 101.05859375 429.0703125 C108.03263648 429.81705767 115.00061154 430.41509208 122 430.875 C134.12072609 431.72615702 146.21525964 432.80566286 158.3125 433.9375 C159.71001999 434.06821396 159.71001999 434.06821396 161.13577271 434.2015686 C173.74890044 435.38477885 186.35434689 436.63118538 198.95678711 437.92333984 C210.39860851 439.07783844 221.85737826 440.01503658 233.32202148 440.91040039 C241.00265591 441.51972671 248.63125811 442.29102665 256.27124023 443.28944397 C262.46027698 444.08734863 268.65111262 444.57484065 274.875 445 C283.79503985 445.6389436 292.64675172 446.4556463 301.51171875 447.6328125 C314.93932404 448.90942562 326.02792768 447.23226429 338.875 443.6875 C340.55855881 443.2378444 342.24257102 442.78988337 343.92700195 442.34350586 C348.37132544 441.16112139 352.8093801 439.95669732 357.246521 438.74768066 C361.90679458 437.48222833 366.57270618 436.23792382 371.23828125 434.9921875 C376.60896147 433.5572772 381.97910034 432.1206065 387.34521484 430.66870117 C388.97361535 430.22828829 390.60203284 429.78793822 392.23046875 429.34765625 C393.00986816 429.1368895 393.78926758 428.92612274 394.59228516 428.70896912 C398.75495903 427.58813938 402.9238948 426.51374984 407.11328125 425.49609375 C412.07763611 424.27935427 416.96915543 422.85999009 421.86791992 421.40649414 C422.65218102 421.17476753 423.43644211 420.94304092 424.24446869 420.7042923 C426.16327267 420.13718714 428.08167734 419.56873117 430 419 C430.03274845 396.79167403 430.05164059 374.58334661 430.0625 352.375 C430.0629343 351.51370059 430.06336861 350.65240117 430.06381607 349.76500177 C430.09856791 278.82149794 429.83742772 207.88011925 429.5 136.9375 C429.49402628 135.67963653 429.48805257 134.42177305 429.48189783 133.1257925 C429.32801038 100.75049412 429.16757049 68.37523041 429 36 C427.73969354 35.52478398 426.47913583 35.05023428 425.21847534 34.57595825 C424.51652983 34.3116205 423.81458431 34.04728275 423.09136772 33.77493477 C412.86862134 29.98700139 402.40819382 26.8641634 391.96569824 23.74914551 C381.84330701 20.72726273 371.74964011 17.66053435 361.75 14.25 C352.39699072 11.06081979 342.94292284 8.30536269 333.41259766 5.69726562 C331.78038728 5.22553998 330.15968757 4.71235266 328.55224609 4.16210938 C316.87086665 0.23072098 305.26955381 2.40407026 293.3125 3.9375 Z " fill="#FBFDFD" transform="translate(0,0)"/>
<path d="M0 0 C1.08152344 0.34804687 2.16304688 0.69609375 3.27734375 1.0546875 C5.4546421 1.75536754 7.6301258 2.46171277 9.80371094 3.17382812 C14.33689346 4.64268056 18.89191673 6.03648186 23.44970703 7.42675781 C25.34881535 8.01115216 27.2399758 8.6216586 29.125 9.25 C30.39636556 39.96565098 30.14350514 70.53231827 29.125 101.25 C25.36492885 102.46619415 23.70428492 101.72746429 20.14550781 100.06005859 C16.40885173 98.56196472 12.46578547 98.12948339 8.5 97.5625 C7.25089844 97.36817383 7.25089844 97.36817383 5.9765625 97.16992188 C1.99637181 96.57099191 -1.83750923 96.07696468 -5.875 96.25 C-5.875 95.59 -5.875 94.93 -5.875 94.25 C-9.34 95.24 -9.34 95.24 -12.875 96.25 C-12.87055878 97.14758026 -12.86611755 98.04516052 -12.86154175 98.96994019 C-12.8215176 107.41637255 -12.79104242 115.86277321 -12.77137566 124.30927849 C-12.760925 128.65202749 -12.74674253 132.99469833 -12.72412109 137.33740234 C-12.70243826 141.52598975 -12.69044104 145.71450184 -12.68524551 149.90314102 C-12.68154153 151.5035839 -12.67430887 153.10402251 -12.66353989 154.70443344 C-12.64908537 156.94090532 -12.64701949 159.17706337 -12.64794922 161.41357422 C-12.643508 162.68820526 -12.63906677 163.9628363 -12.63449097 165.27609253 C-12.875 168.25 -12.875 168.25 -14.875 170.25 C-14.875 144.84 -14.875 119.43 -14.875 93.25 C-19.495 93.25 -24.115 93.25 -28.875 93.25 C-29.205 93.58 -29.535 93.91 -29.875 94.25 C-32.92229985 94.54303173 -35.95364126 94.77572575 -39.0078125 94.96875 C-40.42210037 95.06295227 -40.42210037 95.06295227 -41.86495972 95.15905762 C-43.88085703 95.29232845 -45.89690638 95.42331554 -47.91308594 95.55224609 C-50.91118789 95.74431052 -53.90872193 95.94373274 -56.90625 96.14453125 C-58.87757448 96.27389069 -60.84892802 96.40280816 -62.8203125 96.53125 C-63.68278595 96.588573 -64.5452594 96.645896 -65.43386841 96.70495605 C-76.2430236 97.38970881 -87.0480022 97.77926097 -97.875 98.25 C-97.875 67.56 -97.875 36.87 -97.875 5.25 C-98.865 4.92 -99.855 4.59 -100.875 4.25 C-86.89651175 2.62633481 -72.92891134 1.11033705 -58.89770508 0.02441406 C-50.19048355 -0.67152836 -41.52856152 -1.67384834 -32.86499023 -2.78515625 C-20.82225777 -4.2705191 -11.58399063 -3.86589983 0 0 Z " fill="#619ED4" transform="translate(333.875,5.75)"/>
<path d="M0 0 C2.33195429 1.46247993 4.1892841 2.99549959 6.1484375 4.92578125 C6.79167969 5.5290625 7.43492187 6.13234375 8.09765625 6.75390625 C16.68989652 15.61634276 17.1484375 23.33347588 17.1484375 35.92578125 C0.9784375 35.92578125 -15.1915625 35.92578125 -31.8515625 35.92578125 C-26.93793267 47.98189856 -26.93793267 47.98189856 -16.8515625 54.92578125 C-10.25719968 56.27966813 -4.52152993 54.30266326 1.1484375 50.92578125 C2.51730701 49.62895751 3.8653666 48.30754991 5.1484375 46.92578125 C6.1384375 46.92578125 7.1284375 46.92578125 8.1484375 46.92578125 C8.1484375 47.58578125 8.1484375 48.24578125 8.1484375 48.92578125 C9.4684375 49.58578125 10.7884375 50.24578125 12.1484375 50.92578125 C12.1484375 53.92578125 12.1484375 53.92578125 10.1484375 56.30078125 C1.4945399 63.87294165 -5.41670343 65.67924096 -16.8515625 64.92578125 C-24.39321221 63.71325453 -29.84657855 58.39221762 -34.8515625 52.92578125 C-36.58327741 50.35613977 -37.8148264 47.83878431 -38.8515625 44.92578125 C-39.20347656 44.00410156 -39.55539063 43.08242188 -39.91796875 42.1328125 C-42.62657386 32.82835728 -41.54917492 23.2404483 -37.39453125 14.58203125 C-29.47053227 0.94071655 -15.37882478 -5.7933929 0 0 Z " fill="#BCC6DD" transform="translate(256.8515625,215.07421875)"/>
<path d="M0 0 C31 0 31 0 37 4 C42.30717221 9.89685802 43.45432554 14.10379006 43.3203125 21.953125 C42.73314309 27.53839504 40.45409257 31.28930286 36.875 35.5 C35 37 35 37 33 37 C37.48444074 47.54623274 37.48444074 47.54623274 42.4375 57.875 C44 61 44 61 44 63 C41.03 63 38.06 63 35 63 C33.32386272 59.56703905 31.66074303 56.12793117 30 52.6875 C29.52304688 51.71103516 29.04609375 50.73457031 28.5546875 49.72851562 C28.10351562 48.79072266 27.65234375 47.85292969 27.1875 46.88671875 C26.76855469 46.02264404 26.34960938 45.15856934 25.91796875 44.26831055 C25 42 25 42 25 39 C19.39 39 13.78 39 8 39 C8 46.92 8 54.84 8 63 C5.36 63 2.72 63 0 63 C0 42.21 0 21.42 0 0 Z " fill="#C2CCE0" transform="translate(165,215)"/>
<path d="M0 0 C0.33 -0.66 0.66 -1.32 1 -2 C1.495 -0.02 1.495 -0.02 2 2 C2.66 2 3.32 2 4 2 C3.505 0.515 3.505 0.515 3 -1 C3.99 -1 4.98 -1 6 -1 C5.773125 -0.0925 5.54625 0.815 5.3125 1.75 C4.66443541 4.98439148 4.66443541 4.98439148 6.4375 7.25 C6.953125 7.8275 7.46875 8.405 8 9 C8 9.66 8 10.32 8 11 C8.99 11.495 8.99 11.495 10 12 C10 13.32 10 14.64 10 16 C7.97245961 14.17521365 6.62971904 12.43223586 5.125 10.125 C1.2604554 4.44184618 -2.36178663 1.06764023 -9 -1 C-16.24829404 -2.00060625 -22.68651859 -0.71830252 -29 3 C-35.57779501 8.71921966 -39.33524749 16.8187938 -40.26171875 25.43359375 C-40.70602929 35.98979929 -37.79875604 45.87926362 -31 54 C-31.495 54.99 -31.495 54.99 -32 56 C-33.875 55.4375 -33.875 55.4375 -36 54 C-37.25 50.375 -37.25 50.375 -38 47 C-38.93972656 47.05220703 -38.93972656 47.05220703 -39.8984375 47.10546875 C-40.71570313 47.13253906 -41.53296875 47.15960938 -42.375 47.1875 C-43.18710938 47.22230469 -43.99921875 47.25710938 -44.8359375 47.29296875 C-45.55007812 47.19628906 -46.26421875 47.09960938 -47 47 C-47.66 46.01 -48.32 45.02 -49 44 C-52.44164469 45.52961986 -55.09151758 47.62729066 -58 50 C-61.72433524 51.86216762 -65.93537704 51.42026194 -70 51 C-75.3243292 48.74739918 -78.09592706 44.77018705 -80.8671875 39.8515625 C-82.84256913 34.87905012 -82.58831771 30.24401709 -82 25 C-81.92652344 24.25492188 -81.85304687 23.50984375 -81.77734375 22.7421875 C-80.77604324 16.87249485 -77.30353931 12.94569578 -73 9 C-69.25802957 6.53817735 -65.67764754 6.73708753 -61.3515625 7.30859375 C-57.82423603 8.34569804 -55.38971601 10.35226403 -52.62890625 12.72265625 C-51.08269928 14.2056904 -51.08269928 14.2056904 -49 14 C-48.67 13.34 -48.34 12.68 -48 12 C-47.236875 12.185625 -46.47375 12.37125 -45.6875 12.5625 C-42.91032625 13.22819173 -42.91032625 13.22819173 -40 12 C-40 10.35 -40 8.7 -40 7 C-39.38125 6.896875 -38.7625 6.79375 -38.125 6.6875 C-35.63473516 6.12474627 -35.63473516 6.12474627 -34 3 C-33.319375 2.835 -32.63875 2.67 -31.9375 2.5 C-30.9784375 2.2525 -30.9784375 2.2525 -30 2 C-29.67 1.01 -29.34 0.02 -29 -1 C-19.2021926 -5.64106666 -9.52314466 -4.76157233 0 0 Z " fill="#2562A8" transform="translate(145,217)"/>
<path d="M0 0 C6.3816879 2.1272293 10.37323674 6.82041726 13.375 12.6875 C15.04587207 21.54312198 14.84788399 30.00985436 9.8984375 37.71484375 C7.11612822 41.38569696 4.31739756 43.47621263 0 45 C-5.83494737 45.75289644 -9.32041711 44.97535238 -14.171875 41.6328125 C-18.75825537 37.53643003 -21.76235116 32.06605958 -22.23828125 25.92578125 C-22.51126441 12.63581148 -22.51126441 12.63581148 -18 7 C-12.23109047 1.15400036 -8.23004601 -0.73805827 0 0 Z " fill="#245EA6" transform="translate(134,224)"/>
<path d="M0 0 C7.26567554 5.12071519 11.95908953 11.61081864 13.87890625 20.32421875 C14.58256956 33.58556574 13.96806368 42.91342363 4.87890625 53.32421875 C-0.00802005 58.08254172 -5.37307554 60.01888339 -12.05859375 60.76171875 C-18.19206865 60.49609582 -23.36095274 57.84967429 -27.93359375 53.88671875 C-28.65546875 53.04109375 -29.37734375 52.19546875 -30.12109375 51.32421875 C-30.77980469 50.57269531 -31.43851562 49.82117188 -32.1171875 49.046875 C-37.63021911 41.55645973 -39.21768904 31.42189816 -38.12109375 22.32421875 C-36.59658289 13.85751384 -32.85269628 7.95762121 -26.74609375 2.01171875 C-18.45441772 -3.31864441 -8.8708715 -5.10747147 0 0 Z M-25.87109375 13.26171875 C-30.93100482 20.14881993 -31.00939374 26.99414027 -30.12109375 35.32421875 C-28.24345299 41.27525372 -25.53494921 45.99261539 -20.12109375 49.32421875 C-19.22390625 49.94296875 -19.22390625 49.94296875 -18.30859375 50.57421875 C-14.24710942 51.96672766 -10.24655283 52.09393233 -6.22265625 50.63671875 C-0.81916473 47.80519481 2.8125887 43.86307006 5.19140625 38.19921875 C6.6056204 30.22819356 7.09881339 22.49806089 2.87890625 15.32421875 C-0.11777297 11.12197892 -2.86866999 7.42356326 -8.12109375 6.32421875 C-15.99186397 5.40254863 -20.54705392 7.27217395 -25.87109375 13.26171875 Z " fill="#D8E1F0" transform="translate(142.12109375,217.67578125)"/>
<path d="M0 0 C3.72813965 2.16372197 6.04367195 4.91161144 8.5625 8.375 C7.31273244 12.02816671 6.89151247 13.15565836 3.5625 15.375 C2.86125 14.611875 2.16 13.84875 1.4375 13.0625 C-1.99723709 9.8517675 -4.75205662 7.58610432 -9.57421875 7.20703125 C-14.96688279 7.45423317 -18.0892406 9.08546594 -22.02734375 12.70703125 C-26.88905784 18.45759058 -26.90546624 26.04760149 -26.8515625 33.26171875 C-26.16583866 38.41758573 -23.83922766 42.4862571 -20.4375 46.375 C-15.55432132 49.93797077 -11.31137943 50.24102069 -5.4375 49.375 C-1.88419716 47.50144032 0.87994136 45.35562071 3.5625 42.375 C6.28752695 43.34194505 7.35205362 43.98733561 8.75 46.5625 C8.48133916 50.5924126 6.56992753 52.14114508 3.65234375 54.79296875 C-1.43911195 58.6472483 -6.86356959 59.99418472 -13.21484375 59.7109375 C-20.32487935 58.63630998 -25.1549319 54.46361976 -29.671875 49.06640625 C-34.30256353 42.0076797 -36.79132629 32.78806335 -35.4375 24.375 C-33.37130347 14.98425285 -30.36899647 6.61878289 -22.25 0.9375 C-15.61218895 -2.75017281 -6.97487095 -3.2079082 0 0 Z " fill="#ECF2F7" transform="translate(90.4375,217.625)"/>
<path d="M0 0 C0 2.64 0 5.28 0 8 C-5.38490641 8.91657981 -10.54230189 9.11138159 -16 9 C-15.67 10.98 -15.34 12.96 -15 15 C-14.34 14.67 -13.68 14.34 -13 14 C-5.07674944 13.55981941 -5.07674944 13.55981941 -2 16 C1.07927585 20.27677202 2.70035425 23.49808542 2.3828125 28.94921875 C1.40531495 34.18581278 -0.81227761 37.89514196 -4.6875 41.5 C-10.23211478 44.01076896 -14.81598519 43.78000529 -20.5 41.75 C-23 40 -23 40 -24.0625 38.0625 C-23.977595 35.2606351 -22.83025029 34.04988032 -21 32 C-20.319375 32.33 -19.63875 32.66 -18.9375 33 C-15.41915953 34.19773293 -12.69316465 34.34841176 -9 34 C-6.54668998 30.32003497 -6.60492107 28.34586828 -7 24 C-9.75047381 21.70792787 -9.75047381 21.70792787 -12.5 22.25 C-15.21362946 22.93137292 -15.21362946 22.93137292 -18 25 C-20.6875 25.125 -20.6875 25.125 -23 25 C-23.1567564 17.28410183 -22.67453101 9.68483539 -22 2 C-15.10652725 -0.29782425 -7.23058013 -0.16433137 0 0 Z " fill="#F1F9FB" transform="translate(295,31)"/>
<path d="M0 0 C7.486875 -0.12375 7.486875 -0.12375 15.125 -0.25 C17.47069092 -0.30462402 17.47069092 -0.30462402 19.86376953 -0.36035156 C21.10755371 -0.3703418 22.35133789 -0.38033203 23.6328125 -0.390625 C24.90012207 -0.41157227 26.16743164 -0.43251953 27.47314453 -0.45410156 C32.79934176 0.23167491 35.82464006 2.66580764 39.3125 6.625 C41.8212691 10.15586021 42.15864186 12.06936573 42.1875 16.375 C42.20167969 17.33148438 42.21585938 18.28796875 42.23046875 19.2734375 C41.99745572 22.03010017 41.40920164 23.64947395 40 26 C39.34 25.67 38.68 25.34 38 25 C38 23.35 38 21.7 38 20 C37.34 20 36.68 20 36 20 C33 14.25 33 14.25 33 12 C29.53467392 10.45322172 26.70465673 9.72532479 22.91796875 9.5859375 C22.0777417 9.55032715 21.23751465 9.5147168 20.37182617 9.47802734 C18.79558472 9.42702881 18.79558472 9.42702881 17.1875 9.375 C13.825625 9.25125 10.46375 9.1275 7 9 C7 15.93 7 22.86 7 30 C7.66 30 8.32 30 9 30 C8.67 30.66 8.34 31.32 8 32 C6 31 6 31 5 28 C3.31641434 29.55354046 3.31641434 29.55354046 2 32 C1.99708406 34.64183798 2.13360019 37.02101367 2.4375 39.625 C3.03798572 46.09698354 2.83370037 51.69570783 1 58 C0.67 58 0.34 58 0 58 C0 38.86 0 19.72 0 0 Z " fill="#D9DBE4" transform="translate(165,215)"/>
<path d="M0 0 C5.02396962 2.87498839 9.02960193 7.02195996 11.71484375 12.16015625 C12.20984375 15.13015625 12.20984375 15.13015625 12.71484375 18.16015625 C-0.48515625 18.16015625 -13.68515625 18.16015625 -27.28515625 18.16015625 C-25.02456575 9.11779425 -25.02456575 9.11779425 -21.41015625 5.28515625 C-20.73210937 4.54523438 -20.0540625 3.8053125 -19.35546875 3.04296875 C-13.96847031 -1.85615059 -6.80879364 -2.50237715 0 0 Z " fill="#205EA9" transform="translate(252.28515625,223.83984375)"/>
<path d="M0 0 C3.196875 -0.061875 6.39375 -0.12375 9.6875 -0.1875 C11.18543091 -0.22846802 11.18543091 -0.22846802 12.71362305 -0.27026367 C17.60045592 -0.31605465 21.08380688 -0.29406875 25 3 C26.20755308 5.41510615 26.23572748 7.11738049 26.3125 9.8125 C26.34988281 10.66457031 26.38726562 11.51664063 26.42578125 12.39453125 C25.80702375 16.18087302 24.99829395 17.54724716 22 20 C18.23359295 20.61792916 14.55351869 20.46937101 10.75 20.3125 C9.71875 20.28994141 8.6875 20.26738281 7.625 20.24414062 C5.08271187 20.18529136 2.54117107 20.09561262 0 20 C0 13.4 0 6.8 0 0 Z " fill="#21529C" transform="translate(173,224)"/>
<path d="M0 0 C0.78688445 2.77723925 1.11949924 5.22610077 1.09765625 8.109375 C1.09443359 8.86347656 1.09121094 9.61757812 1.08789062 10.39453125 C1.07951172 11.17183594 1.07113281 11.94914063 1.0625 12.75 C1.05798828 13.54277344 1.05347656 14.33554688 1.04882812 15.15234375 C1.03708565 17.10159508 1.01915146 19.05080738 1 21 C1.99 20.34 2.98 19.68 4 19 C4.36530232 15.87442041 4.36530232 15.87442041 4.1875 12.375 C4.16042969 11.18648437 4.13335937 9.99796875 4.10546875 8.7734375 C4.07066406 7.85820312 4.03585938 6.94296875 4 6 C4.66 6 5.32 6 6 6 C6.33 5.34 6.66 4.68 7 4 C6.93039063 5.03898438 6.86078125 6.07796875 6.7890625 7.1484375 C6.41150343 15.23635459 6.56112474 21.11889787 11.19921875 28.08203125 C13.92856689 30.98899424 16.50643398 32.73726493 20.46484375 33.43359375 C27.27028579 33.44434484 30.82491065 31.96341672 35.875 27.25 C36.24625 26.8375 36.6175 26.425 37 26 C39.72502695 26.96694505 40.78955362 27.61233561 42.1875 30.1875 C41.91883916 34.2174126 40.00742753 35.76614508 37.08984375 38.41796875 C31.99838805 42.2722483 26.57393041 43.61918472 20.22265625 43.3359375 C13.11262065 42.26130998 8.2825681 38.08861976 3.765625 32.69140625 C-1.45591765 24.73201934 -3.38232396 14.98190747 -1.5390625 5.671875 C-1.07962032 3.76752048 -0.54720459 1.88101579 0 0 Z " fill="#B8CAE6" transform="translate(57,234)"/>
<path d="M0 0 C0.99 0 1.98 0 3 0 C3 0.66 3 1.32 3 2 C4.32 2.66 5.64 3.32 7 4 C7 7 7 7 5 9.375 C-3.6538976 16.9471604 -10.56514093 18.75345971 -22 18 C-29.51350521 16.79199828 -34.97041964 11.41194611 -40 6 C-40.33 5.01 -40.66 4.02 -41 3 C-38 3 -38 3 -36.3125 4.5 C-35.879375 4.995 -35.44625 5.49 -35 6 C-34.34 4.35 -33.68 2.7 -33 1 C-32.34 1 -31.68 1 -31 1 C-29.66666667 2.33333333 -28.33333333 3.66666667 -27 5 C-23.231752 8.0145984 -20.10305541 8.51999443 -15.41015625 8.35546875 C-9.08350632 7.42236479 -4.30942679 4.64092116 0 0 Z " fill="#A8B7D6" transform="translate(262,262)"/>
<path d="M0 0 C5.56473954 3.52721833 11.16766682 8.99548989 14.13671875 14.93359375 C14.20622416 16.47383371 14.22124232 18.01694363 14.19921875 19.55859375 C14.19019531 20.37585938 14.18117188 21.193125 14.171875 22.03515625 C14.16027344 22.66164062 14.14867187 23.288125 14.13671875 23.93359375 C13.14671875 23.27359375 12.15671875 22.61359375 11.13671875 21.93359375 C10.37359375 21.89234375 9.61046875 21.85109375 8.82421875 21.80859375 C5.61311303 20.76311747 5.14544447 19.83868206 3.26171875 17.12109375 C0.41486599 13.106671 -2.06273111 10.3755841 -6.86328125 8.93359375 C-12.96645861 8.23964647 -18.11029026 8.72090491 -23.86328125 10.93359375 C-25.86328125 9.93359375 -25.86328125 9.93359375 -28.86328125 7.93359375 C-27.45309636 4.40813154 -26.50685689 2.34586927 -23.265625 0.26953125 C-16.24751582 -2.48614423 -7.09751353 -2.64341227 0 0 Z " fill="#E6EFF7" transform="translate(256.86328125,215.06640625)"/>
<path d="M0 0 C0.66 0.33 1.32 0.66 2 1 C3 5 3 5 3 18 C-12.51 18 -28.02 18 -44 18 C-43.34 17.34 -42.68 16.68 -42 16 C-42.99 14.02 -43.98 12.04 -45 10 C-32.13 10 -19.26 10 -6 10 C-6.495 7.03 -6.495 7.03 -7 4 C-5.34385343 3.61781233 -3.67542976 3.28604898 -2 3 C-1.505 3.495 -1.505 3.495 -1 4 C-0.67 2.68 -0.34 1.36 0 0 Z " fill="#CBD4E1" transform="translate(271,233)"/>
<path d="M0 0 C2.86724686 0.57344937 3.8614515 0.8614515 6 3 C6.66 3.33 7.32 3.66 8 4 C6.99531214 10.71367885 3.13417018 16.34616121 -1.875 20.875 C-7.71940574 24.8491959 -13.81089407 27.24089633 -21 26 C-25.75401134 24.39699452 -30.18935332 22.31360581 -34 19 C-33.67 17.02 -33.34 15.04 -33 13 C-29.43194711 13 -26.30973814 13.23222247 -23.1875 15.0625 C-19.20391011 16.76975281 -15.08944747 16.78090461 -11.06640625 15.27734375 C-6.5682168 12.8879829 -3.0887812 9.98637128 -1.31640625 5.125 C-0.82149703 3.43206914 -0.40397695 1.71690206 0 0 Z " fill="#BCCCE5" transform="translate(147,252)"/>
<path d="M0 0 C1.32 0 2.64 0 4 0 C4 8.25 4 16.5 4 25 C0.7 25.66 -2.6 26.32 -6 27 C-6 26.34 -6 25.68 -6 25 C-7.3921875 25.12375 -7.3921875 25.12375 -8.8125 25.25 C-12 25 -12 25 -13.875 23.5625 C-15.57257921 19.6957918 -15.65627368 16.15131258 -15 12 C-13.5625 9.5 -13.5625 9.5 -11 8 C-8.00408737 7.34529881 -5.06914737 6.96887274 -2 7 C-1.67 7.33 -1.34 7.66 -1 8 C-0.67 5.36 -0.34 2.72 0 0 Z " fill="#426E9F" transform="translate(100,171)"/>
<path d="M0 0 C5.08140892 0.59742663 9.75901878 1.71552158 14.625 3.3125 C16.0246065 3.76213323 17.42434836 4.21134531 18.82421875 4.66015625 C19.51950684 4.88461426 20.21479492 5.10907227 20.93115234 5.34033203 C25.14394792 6.68361427 29.38520165 7.93495608 33.62109375 9.203125 C36 10 36 10 37 11 C37.09785825 13.71853757 37.12993566 16.41166147 37.12025452 19.13063049 C37.12110894 19.99311447 37.12196337 20.85559844 37.12284368 21.74421829 C37.12450114 24.65705481 37.1189728 27.56983473 37.11352539 30.48266602 C37.11324355 32.5616048 37.11340119 34.64054369 37.1139679 36.71948242 C37.11425599 42.38247439 37.10835731 48.04544537 37.10139394 53.70843244 C37.09516241 59.61949893 37.09455676 65.53056586 37.09336853 71.44163513 C37.09025462 82.64367695 37.08204043 93.84570906 37.07201904 105.0477466 C37.06085975 117.79722363 37.05534792 130.54670111 37.05032361 143.2961818 C37.03985786 169.53079326 37.02225727 195.76539609 37 222 C36.67 222 36.34 222 36 222 C35.23885754 195.80106656 34.86378651 169.63087194 34.93153763 143.4214139 C34.94180599 138.88799295 34.94507794 134.3545666 34.94897461 129.82113647 C34.95986247 118.42241248 34.97954092 107.02371017 35 95.625 C35.02216029 83.17475361 35.04257562 70.72451442 35.05341816 58.2742523 C35.05838331 52.90857824 35.06820908 47.54294224 35.08184814 42.17728353 C35.08928442 38.86883436 35.09261767 35.56039044 35.0948143 32.25193405 C35.09669033 30.71800168 35.10029923 29.18407033 35.10574722 27.65014648 C35.11293325 25.56236348 35.11400242 23.47466455 35.11352539 21.38687134 C35.115746 20.2187472 35.11796661 19.05062305 35.12025452 17.84710121 C35.1279479 14.92399082 35.1279479 14.92399082 34 12 C32.04622664 11.0406619 32.04622664 11.0406619 29.6328125 10.4296875 C28.30443359 10.04490234 28.30443359 10.04490234 26.94921875 9.65234375 C26.01722656 9.39582031 25.08523438 9.13929687 24.125 8.875 C22.29426891 8.35156922 20.46353967 7.82813199 18.6328125 7.3046875 C17.81699707 7.07765137 17.00118164 6.85061523 16.16064453 6.61669922 C14.42721907 6.12193846 12.71014527 5.57004842 11 5 C8.36195411 5.39397335 8.36195411 5.39397335 6 6 C5.67 4.68 5.34 3.36 5 2 C3.35 1.67 1.7 1.34 0 1 C0 0.67 0 0.34 0 0 Z " fill="#5F96C7" transform="translate(392,25)"/>
<path d="M0 0 C2 2 2 2 3 5 C3.66 5.33 4.32 5.66 5 6 C5.33 5.34 5.66 4.68 6 4 C6 7 6 7 5.02734375 9.26953125 C2.72249165 15.3953549 2.89028381 22.90237496 5.0859375 29.03125 C6.30220394 31.42160022 7.62229922 33.70082066 9 36 C9.33 36.99 9.66 37.98 10 39 C8.68 38.67 7.36 38.34 6 38 C5.01 39.32 4.02 40.64 3 42 C-3.3875972 34.72672756 -5.71074955 25.22470163 -5.33203125 15.64453125 C-4.61720747 9.95117007 -3.18940275 4.78410412 0 0 Z " fill="#D4DEEF" transform="translate(109,227)"/>
<path d="M0 0 C2.60478883 -0.0809313 5.20706653 -0.14045434 7.8125 -0.1875 C8.55048828 -0.21263672 9.28847656 -0.23777344 10.04882812 -0.26367188 C12.98110096 -0.30347648 15.37367296 -0.33273624 18 1.0625 C19.56530876 4.09528573 19.28041899 6.81144345 19.1875 10.1875 C19.16042969 11.45980469 19.13335937 12.73210937 19.10546875 14.04296875 C19.07066406 15.01878906 19.03585938 15.99460938 19 17 C17.68 17 16.36 17 15 17 C14.67 13.04 14.34 9.08 14 5 C12.68 4.67 11.36 4.34 10 4 C10 9.28 10 14.56 10 20 C8.35 19.67 6.7 19.34 5 19 C3.6696875 19.0309375 3.6696875 19.0309375 2.3125 19.0625 C0 19 0 19 -2 17 C-1.66015625 15.296875 -1.66015625 15.296875 -1 13 C-0.7801777 10.75292759 -0.59516013 8.50228762 -0.4375 6.25 C-0.35371094 5.07953125 -0.26992188 3.9090625 -0.18359375 2.703125 C-0.12300781 1.81109375 -0.06242187 0.9190625 0 0 Z " fill="#E2F1FC" transform="translate(57,180)"/>
<path d="M0 0 C1.98 0 3.96 0 6 0 C6.86688848 4.45730848 7.10626849 8.65016617 7.0625 13.1875 C7.05347656 14.39792969 7.04445312 15.60835937 7.03515625 16.85546875 C7.02355469 17.89316406 7.01195312 18.93085938 7 20 C7 20.99 7 21.98 7 23 C6.25 25.625 6.25 25.625 5 28 C2.875 28.8125 2.875 28.8125 1 29 C1.33 28.01 1.66 27.02 2 26 C2.99 26 3.98 26 5 26 C5 17.75 5 9.5 5 1 C3.68 1 2.36 1 1 1 C1 8.92 1 16.84 1 25 C0.67 25 0.34 25 0 25 C-0.33 19.72 -0.66 14.44 -1 9 C-2.423125 9.103125 -3.84625 9.20625 -5.3125 9.3125 C-6.11300781 9.37050781 -6.91351563 9.42851562 -7.73828125 9.48828125 C-10.4502992 10.10188117 -11.39701374 10.7405527 -13 13 C-13.75845503 17.03765766 -13.58974343 20.82051315 -11.75 24.5 C-9.82154665 26.15296001 -8.49710982 26.65557106 -6 27 C-6 27.66 -6 28.32 -6 29 C-8.01822917 28.96744792 -10.03645833 28.93489583 -12.0546875 28.90234375 C-14.08185404 28.87350758 -14.08185404 28.87350758 -16 30 C-17.88484944 29.75378093 -19.76022087 29.43111913 -21.625 29.0625 C-22.62789063 28.86785156 -23.63078125 28.67320312 -24.6640625 28.47265625 C-25.43492188 28.31667969 -26.20578125 28.16070312 -27 28 C-25.68 27.67 -24.36 27.34 -23 27 C-23.08378906 25.92621094 -23.16757813 24.85242188 -23.25390625 23.74609375 C-23.3571603 22.30992378 -23.46000294 20.87372419 -23.5625 19.4375 C-23.64661133 18.38079102 -23.64661133 18.38079102 -23.73242188 17.30273438 C-24.05157754 12.68561569 -23.80878035 8.5591248 -23 4 C-22.67 4 -22.34 4 -22 4 C-21.98541748 4.55985596 -21.97083496 5.11971191 -21.95581055 5.6965332 C-21.88128648 8.23588137 -21.78464419 10.77392078 -21.6875 13.3125 C-21.66494141 14.19357422 -21.64238281 15.07464844 -21.61914062 15.98242188 C-21.58369141 16.82998047 -21.54824219 17.67753906 -21.51171875 18.55078125 C-21.48553467 19.33106689 -21.45935059 20.11135254 -21.43237305 20.9152832 C-20.89444211 23.50895472 -20.07400519 24.39089495 -18 26 C-17.01 26.33 -16.02 26.66 -15 27 C-15 25.35 -15 23.7 -15 22 C-15.99 22 -16.98 22 -18 22 C-18 19.03 -18 16.06 -18 13 C-17.01 13 -16.02 13 -15 13 C-15 11.68 -15 10.36 -15 9 C-15.66 9 -16.32 9 -17 9 C-17 7.35 -17 5.7 -17 4 C-16.566875 4.474375 -16.13375 4.94875 -15.6875 5.4375 C-13.97690387 7.23686957 -13.97690387 7.23686957 -11 8 C-10.01 7.34 -9.02 6.68 -8 6 C-5.95703125 5.8046875 -5.95703125 5.8046875 -3.8125 5.875 C-1.9253125 5.936875 -1.9253125 5.936875 0 6 C0 4.02 0 2.04 0 0 Z " fill="#2E65A2" transform="translate(99,170)"/>
<path d="M0 0 C0.72058594 -0.01224609 1.44117188 -0.02449219 2.18359375 -0.03710938 C5.98987912 -0.04762398 8.90013112 0.05165752 12.125 2.1875 C11.795 3.8375 11.465 5.4875 11.125 7.1875 C10.18398437 7.21328125 9.24296875 7.2390625 8.2734375 7.265625 C-1.0552582 7.53089132 -1.0552582 7.53089132 -8.875 12.1875 C-11.5625 14.5 -11.5625 14.5 -13.875 16.1875 C-14.865 15.8575 -15.855 15.5275 -16.875 15.1875 C-17.875 12.125 -17.875 12.125 -17.875 8.1875 C-12.62640157 1.84180736 -8.00686123 0.00708572 0 0 Z " fill="#E9EEF2" transform="translate(127.875,216.8125)"/>
<path d="M0 0 C0.99 0.33 1.98 0.66 3 1 C3.81578949 7.32236857 4.43041732 13.61969621 4 20 C1.97845037 22.02154963 -2.13089619 21.23282101 -4.91015625 21.28125 C-5.71102158 21.29965942 -6.5118869 21.31806885 -7.33702087 21.33703613 C-9.91210354 21.39596129 -12.48725653 21.44861519 -15.0625 21.5 C-17.61274005 21.55162722 -20.16289822 21.60477366 -22.71299744 21.66296387 C-24.30126174 21.69917039 -25.88961582 21.7316964 -27.4780426 21.7598877 C-32.38345645 21.87116793 -37.13979067 22.31989423 -42 23 C-41.67 25.31 -41.34 27.62 -41 30 C-39.68 29.67 -38.36 29.34 -37 29 C-36.67 30.65 -36.34 32.3 -36 34 C-35.01 34.33 -34.02 34.66 -33 35 C-33 35.66 -33 36.32 -33 37 C-39.06844834 35.09277338 -42.42434799 31.40723483 -45.3125 25.875 C-46.62139745 23.21581705 -47 22.04470565 -47 19 C-30.83 19 -14.66 19 2 19 C1.27925895 9.46605504 1.27925895 9.46605504 0 0 Z " fill="#39669F" transform="translate(272,232)"/>
<path d="M0 0 C0.66 0.33 1.32 0.66 2 1 C3 5 3 5 3 18 C-12.51 18 -28.02 18 -44 18 C-44 17.67 -44 17.34 -44 17 C-26.675 16.505 -26.675 16.505 -9 16 C-9 14.68 -9 13.36 -9 12 C-10.98 11.67 -12.96 11.34 -15 11 C-15 10.67 -15 10.34 -15 10 C-12.03 10 -9.06 10 -6 10 C-6.495 7.03 -6.495 7.03 -7 4 C-5.34385343 3.61781233 -3.67542976 3.28604898 -2 3 C-1.505 3.495 -1.505 3.495 -1 4 C-0.67 2.68 -0.34 1.36 0 0 Z " fill="#D3E1F4" transform="translate(271,233)"/>
<path d="M0 0 C3.8515625 1.7265625 3.8515625 1.7265625 5.1875 4.1875 C4.91883916 8.2174126 3.00742753 9.76614508 0.08984375 12.41796875 C-5.84606879 16.91151002 -11.7324654 17.45422091 -19 17 C-17.3327868 13.22929351 -15.66521894 11.9290626 -12 10 C-13.32 9.34 -14.64 8.68 -16 8 C-15.43152344 7.92523438 -14.86304687 7.85046875 -14.27734375 7.7734375 C-8.00991166 6.70619531 -4.42263059 4.52217533 0 0 Z " fill="#AEBCD9" transform="translate(94,260)"/>
<path d="M0 0 C0 3 0 3 -1 5 C0.65 5.33 2.3 5.66 4 6 C3.39655716 9.31893565 2.24962511 11.21749769 0.125 13.8125 C-2.67628676 17.40164866 -4.4053261 20.74753627 -6 25 C-7.98 24.01 -9.96 23.02 -12 22 C-12.91007538 15.02275538 -10.13572575 10.514301 -6 5 C-4.08501231 3.06776017 -2.22324384 1.58803131 0 0 Z " fill="#D4D7E5" transform="translate(230,218)"/>
<path d="M0 0 C2 2 2 2 2 5 C3.65 5 5.3 5 7 5 C6.59007813 5.60328125 6.18015625 6.2065625 5.7578125 6.828125 C4.94957031 8.02695313 4.94957031 8.02695313 4.125 9.25 C3.59132813 10.03890625 3.05765625 10.8278125 2.5078125 11.640625 C1.18177985 13.71555692 0.05071825 15.77614972 -1 18 C-1.66 18 -2.32 18 -3 18 C-2.835 18.66 -2.67 19.32 -2.5 20 C-1.87816701 23.73099794 -1.93591074 27.21873378 -2 31 C-3.98 31.99 -3.98 31.99 -6 33 C-8.5552124 25.33436281 -7.97979636 14.57676865 -5 7 C-3.49347638 4.45921721 -1.86573292 2.30761703 0 0 Z " fill="#D5E1ED" transform="translate(64,222)"/>
<path d="M0 0 C2.31 0 4.62 0 7 0 C7 8.58 7 17.16 7 26 C4.69 26 2.38 26 0 26 C0 17.42 0 8.84 0 0 Z " fill="#EFFAFC" transform="translate(259,48)"/>
<path d="M0 0 C1.32 0.33 2.64 0.66 4 1 C3.01 1.495 3.01 1.495 2 2 C2 5.63 2 9.26 2 13 C2.33 13 2.66 13 3 13 C3.0301714 18.66665357 3.05011351 24.33327952 3.0625 30 C3.06444366 30.84880737 3.06638733 31.69761475 3.06838989 32.57214355 C3.09003705 46.1857988 2.83190894 59.76927032 2.26782227 73.37109375 C2.21940186 74.61503906 2.17098145 75.85898438 2.12109375 77.140625 C2.0739624 78.22891602 2.02683105 79.31720703 1.97827148 80.43847656 C1.81222963 82.99080148 1.81222963 82.99080148 3 85 C2.63637344 87.90901247 2.31600401 90.36799198 1 93 C-0.85581966 91.14418034 -0.12004366 88.50601694 -0.12442017 86.03713989 C-0.12082489 85.18046722 -0.11722961 84.32379456 -0.11352539 83.44116211 C-0.11367142 82.54368759 -0.11381744 81.64621307 -0.1139679 80.72154236 C-0.11326842 77.74011866 -0.10547441 74.7587566 -0.09765625 71.77734375 C-0.09579219 69.71611058 -0.09436823 67.65487696 -0.09336853 65.59364319 C-0.08954237 60.1569599 -0.07971126 54.72030314 -0.06866455 49.28363037 C-0.05845253 43.74052286 -0.05387136 38.19741108 -0.04882812 32.65429688 C-0.03808908 21.76951957 -0.02101149 10.88476198 0 0 Z " fill="#3F80B5" transform="translate(21,33)"/>
<path d="M0 0 C0.33 0 0.66 0 1 0 C1 6.6 1 13.2 1 20 C4.60597398 19.94014981 8.20773022 19.85318569 11.8125 19.75 C12.83666016 19.73582031 13.86082031 19.72164062 14.91601562 19.70703125 C15.89892578 19.67480469 16.88183594 19.64257812 17.89453125 19.609375 C18.80050049 19.58842773 19.70646973 19.56748047 20.63989258 19.54589844 C23.14777701 19.19631348 23.14777701 19.19631348 24.78710938 17.09570312 C26.08588511 14.8516027 26.47358403 13.31699163 26.6875 10.75 C26.790625 9.5125 26.89375 8.275 27 7 C27.66 8.32 28.32 9.64 29 11 C29.99 10.67 30.98 10.34 32 10 C32 11.98 32 13.96 32 16 C34.02350324 12.96474514 34.32124018 11.80573798 34.625 8.3125 C34.69976562 7.50425781 34.77453125 6.69601563 34.8515625 5.86328125 C34.90054688 5.24839844 34.94953125 4.63351563 35 4 C35.33 4 35.66 4 36 4 C36.5535029 13.22504828 35.93425421 19.37146564 29.875 26.5 C28 28 28 28 26 28 C25.67 28.66 25.34 29.32 25 30 C25.33 28.35 25.66 26.7 26 25 C26.99 25 27.98 25 29 25 C29 23.35 29 21.7 29 20 C28.08089844 20.33773437 27.16179687 20.67546875 26.21484375 21.0234375 C21.01977182 22.50774377 15.89576257 21.97199171 10.5625 21.625 C9.54478516 21.56828125 8.52707031 21.5115625 7.47851562 21.453125 C4.9850594 21.31264859 2.49242143 21.15777518 0 21 C0 14.07 0 7.14 0 0 Z " fill="#AABBD8" transform="translate(172,224)"/>
<path d="M0 0 C2.78213423 1.02011588 3.81038313 1.63074609 5.1875 4.3125 C5.95949101 6.86600874 6.54944539 9.37176476 7 12 C7.99 11.34 8.98 10.68 10 10 C9.67 7.69 9.34 5.38 9 3 C8.34 3 7.68 3 7 3 C7.33 2.01 7.66 1.02 8 0 C11.21658281 3.7949589 13.11135915 8.14984649 15.1875 12.625 C15.55552734 13.40101563 15.92355469 14.17703125 16.30273438 14.9765625 C19 20.7414048 19 20.7414048 19 23 C16.03 23 13.06 23 10 23 C8.32705993 19.54466686 6.66272237 16.08526007 5 12.625 C4.52304688 11.64015625 4.04609375 10.6553125 3.5546875 9.640625 C2.87792969 8.22910156 2.87792969 8.22910156 2.1875 6.7890625 C1.76855469 5.91975098 1.34960938 5.05043945 0.91796875 4.15478516 C0 2 0 2 0 0 Z " fill="#ACC0DE" transform="translate(190,255)"/>
<path d="M0 0 C5.08140892 0.59742663 9.75901878 1.71552158 14.625 3.3125 C16.0246065 3.76213323 17.42434836 4.21134531 18.82421875 4.66015625 C19.51950684 4.88461426 20.21479492 5.10907227 20.93115234 5.34033203 C25.14394792 6.68361427 29.38520165 7.93495608 33.62109375 9.203125 C36 10 36 10 37 11 C37.09502416 13.49492388 37.12557566 15.96206014 37.11352539 18.45727539 C37.11367142 19.23770706 37.11381744 20.01813873 37.1139679 20.82221985 C37.11326858 23.4140598 37.10547536 26.00582878 37.09765625 28.59765625 C37.09579213 30.3898464 37.0943682 32.18203706 37.09336853 33.97422791 C37.08954284 38.70070797 37.07971212 43.42715752 37.06866455 48.15362549 C37.05845153 52.9728555 37.05387115 57.79209042 37.04882812 62.61132812 C37.03808989 72.07423219 37.02101286 81.53711356 37 91 C36.67 91 36.34 91 36 91 C35.98969254 90.05452805 35.97938507 89.10905609 35.96876526 88.13493347 C35.87108486 79.23253628 35.76835583 70.33020981 35.66066074 61.42792797 C35.6054542 56.85098367 35.55203778 52.27403295 35.50268555 47.69702148 C35.4550086 43.28144544 35.4026645 38.86594732 35.34705925 34.45046425 C35.32665081 32.76435596 35.30793522 31.07822631 35.29092598 29.39208031 C35.26684855 27.03368779 35.23679855 24.6754424 35.20532227 22.31713867 C35.19668907 21.26733322 35.19668907 21.26733322 35.18788147 20.19631958 C35.14220346 17.19306117 34.95791708 14.87375125 34 12 C32.04622664 11.0406619 32.04622664 11.0406619 29.6328125 10.4296875 C28.30443359 10.04490234 28.30443359 10.04490234 26.94921875 9.65234375 C26.01722656 9.39582031 25.08523438 9.13929687 24.125 8.875 C22.29426891 8.35156922 20.46353967 7.82813199 18.6328125 7.3046875 C17.81699707 7.07765137 17.00118164 6.85061523 16.16064453 6.61669922 C14.42721907 6.12193846 12.71014527 5.57004842 11 5 C8.36195411 5.39397335 8.36195411 5.39397335 6 6 C5.67 4.68 5.34 3.36 5 2 C3.35 1.67 1.7 1.34 0 1 C0 0.67 0 0.34 0 0 Z " fill="#6590BE" transform="translate(392,25)"/>
<path d="M0 0 C1.65 0 3.3 0 5 0 C4 3 4 3 1.3125 4.9375 C-4.13285237 9.21223314 -6.86106974 16.58320923 -9 23 C-10.03986418 34.98814848 -8.48809982 44.76938461 -0.75 54.4375 C2.92346269 58.3218016 7.19748699 60.73486915 12 63 C8.08428299 64.305239 6.96107003 63.32239848 3.3125 61.5625 C2.31863281 61.08941406 1.32476562 60.61632812 0.30078125 60.12890625 C-0.45847656 59.75636719 -1.21773437 59.38382812 -2 59 C-2 58.01 -2 57.02 -2 56 C-3.31266518 54.64631404 -4.64567325 53.31200404 -6 52 C-6 51.34 -6 50.68 -6 50 C-6.66 50 -7.32 50 -8 50 C-9.92774217 43.31716048 -11.18143953 37.71954193 -11.1875 30.75 C-11.19974609 30.02425781 -11.21199219 29.29851562 -11.22460938 28.55078125 C-11.24410424 21.25970271 -9.81110741 15.01051931 -6.375 8.5 C-5.92898437 7.6440625 -5.48296875 6.788125 -5.0234375 5.90625 C-4.68570313 5.2771875 -4.34796875 4.648125 -4 4 C-3.34 4 -2.68 4 -2 4 C-1.34 2.68 -0.68 1.36 0 0 Z " fill="#255391" transform="translate(226,216)"/>
<path d="M0 0 C2 1 2 1 3 2 C3 5.96 3 9.92 3 14 C12.24 14 21.48 14 31 14 C31 14.33 31 14.66 31 15 C18.13 15 5.26 15 -8 15 C-5.75 6 -5.75 6 -2.875 3 C-2.33617187 2.4225 -1.79734375 1.845 -1.2421875 1.25 C-0.62730469 0.63125 -0.62730469 0.63125 0 0 Z " fill="#1B4B91" transform="translate(233,227)"/>
<path d="M0 0 C2.31 0 4.62 0 7 0 C7 3.3 7 6.6 7 10 C7.66 10 8.32 10 9 10 C9 8.68 9 7.36 9 6 C9.99 6 10.98 6 12 6 C12 7.32 12 8.64 12 10 C12.66 10 13.32 10 14 10 C14 7.69 14 5.38 14 3 C14.99 3 15.98 3 17 3 C17.33 5.31 17.66 7.62 18 10 C19.65 10 21.3 10 23 10 C23.33 8.68 23.66 7.36 24 6 C23.34 6.66 22.68 7.32 22 8 C21.01 8 20.02 8 19 8 C19 6.68 19 5.36 19 4 C19.99 3.67 20.98 3.34 22 3 C20.68 2.34 19.36 1.68 18 1 C19.62324086 0.77837671 21.248721 0.57310197 22.875 0.375 C23.77992187 0.25898438 24.68484375 0.14296875 25.6171875 0.0234375 C26.40351562 0.01570313 27.18984375 0.00796875 28 0 C28.66 0.66 29.32 1.32 30 2 C28.35 2 26.7 2 25 2 C25 5.3 25 8.6 25 12 C19.4744186 12.1255814 19.4744186 12.1255814 16.875 11.4375 C15.0056683 10.84878978 15.0056683 10.84878978 13.1796875 11.46875 C10.78931503 12.05134974 8.70600984 12.09861779 6.25 12.0625 C5.45078125 12.05347656 4.6515625 12.04445313 3.828125 12.03515625 C3.22484375 12.02355469 2.6215625 12.01195312 2 12 C2 11.34 2 10.68 2 10 C2.66 10 3.32 10 4 10 C4 7.69 4 5.38 4 3 C4.66 3 5.32 3 6 3 C6 2.34 6 1.68 6 1 C4.02 1 2.04 1 0 1 C0 0.67 0 0.34 0 0 Z " fill="#245F9C" transform="translate(64,344)"/>
<path d="M0 0 C0.66 0.66 1.32 1.32 2 2 C2.99 1.34 3.98 0.68 5 0 C5.14715692 7.3905476 4.70776992 14.64424835 4 22 C3.01 22.33 2.02 22.66 1 23 C1 28.61 1 34.22 1 40 C0.67 40 0.34 40 0 40 C0 31.42 0 22.84 0 14 C-1.65 14 -3.3 14 -5 14 C-4.67 13.34 -4.34 12.68 -4 12 C-4.99 11.34 -5.98 10.68 -7 10 C-6 9 -6 9 -2.9375 8.9375 C-1.4834375 8.9684375 -1.4834375 8.9684375 0 9 C0 6.03 0 3.06 0 0 Z " fill="#5A99CA" transform="translate(267,34)"/>
<path d="M0 0 C0.33 -0.66 0.66 -1.32 1 -2 C1.495 -0.02 1.495 -0.02 2 2 C2.66 2 3.32 2 4 2 C3.505 0.515 3.505 0.515 3 -1 C3.99 -1 4.98 -1 6 -1 C5.773125 -0.0925 5.54625 0.815 5.3125 1.75 C4.66443541 4.98439148 4.66443541 4.98439148 6.4375 7.25 C6.953125 7.8275 7.46875 8.405 8 9 C8 9.66 8 10.32 8 11 C8.66 11.33 9.32 11.66 10 12 C10 13.32 10 14.64 10 16 C7.97245961 14.17521365 6.62971904 12.43223586 5.125 10.125 C1.2604554 4.44184618 -2.36178663 1.06764023 -9 -1 C-16.21010481 -1.99533433 -22.75674609 -0.7938972 -29 3 C-31.6322851 5.46747298 -33.86891351 8.09268995 -36 11 C-37 8 -37 8 -36.375 5.375 C-35 3 -35 3 -32.375 2.1875 C-31.59125 2.125625 -30.8075 2.06375 -30 2 C-29.67 1.01 -29.34 0.02 -29 -1 C-19.2021926 -5.64106666 -9.52314466 -4.76157233 0 0 Z " fill="#2C5C9A" transform="translate(145,217)"/>
<path d="M0 0 C10.23 0 20.46 0 31 0 C27.45986775 2.36008817 25.98878045 2.23463644 21.80078125 2.1953125 C20.59228516 2.18886719 19.38378906 2.18242187 18.13867188 2.17578125 C16.2447168 2.15064453 16.2447168 2.15064453 14.3125 2.125 C13.03826172 2.11597656 11.76402344 2.10695312 10.45117188 2.09765625 C7.30059373 2.07405641 4.15039017 2.04113194 1 2 C1.11976044 6.622522 1.24407629 11.24489291 1.37231445 15.8671875 C1.41518286 17.43421238 1.45688301 19.00126973 1.49731445 20.56835938 C1.71289449 28.89347479 1.97139506 37.1528732 2.89257812 45.4375 C3.07396174 49.7643238 2.11362717 53.84000428 1 58 C0.67 58 0.34 58 0 58 C0 38.86 0 19.72 0 0 Z " fill="#C4D9F3" transform="translate(165,215)"/>
<path d="M0 0 C3 0 6 0 9 0 C9 0.66 9 1.32 9 2 C-8.81643223 7.51551253 -26.72024434 12.27746698 -45 16 C-45 14.35 -45 12.7 -45 11 C-44.319375 11.185625 -43.63875 11.37125 -42.9375 11.5625 C-36.9317097 12.45697941 -31.6809524 10.6678023 -26.0859375 8.69140625 C-24 8 -24 8 -21 7.4375 C-20.34 7.293125 -19.68 7.14875 -19 7 C-18.67 6.34 -18.34 5.68 -18 5 C-12.80342022 3.81794537 -7.30441982 3.88714 -2 4 C-2 3.34 -2 2.68 -2 2 C-1.34 2 -0.68 2 0 2 C0 1.34 0 0.68 0 0 Z M-14 5 C-13 7 -13 7 -13 7 Z " fill="#1C54A2" transform="translate(364,432)"/>
<path d="M0 0 C-0.33 0.99 -0.66 1.98 -1 3 C-1.66 3 -2.32 3 -3 3 C-3 3.66 -3 4.32 -3 5 C-0.03 5.495 -0.03 5.495 3 6 C2.67 4.35 2.34 2.7 2 1 C3.32 1.66 4.64 2.32 6 3 C6 4.98 6 6.96 6 9 C2.7 9 -0.6 9 -4 9 C-3.67 9.66 -3.34 10.32 -3 11 C-0.69 11 1.62 11 4 11 C4 12.32 4 13.64 4 15 C3 16 3 16 -0.375 16.3125 C-4 16 -4 16 -5.9375 14.5625 C-7.49559391 10.80474409 -7.75236814 7.00525391 -7 3 C-4.72138285 -0.18027854 -4.16875662 0 0 0 Z " fill="#E1EFF9" transform="translate(92,180)"/>
<path d="M0 0 C0.12375 0.639375 0.2475 1.27875 0.375 1.9375 C0.58125 2.618125 0.7875 3.29875 1 4 C1.66 4.33 2.32 4.66 3 5 C2.01 5.66 1.02 6.32 0 7 C-1.01965427 9.32481174 -2.02059602 11.65794699 -3 14 C-3.99 14.495 -3.99 14.495 -5 15 C-4.67 15.33 -4.34 15.66 -4 16 C-3.95919217 17.99958364 -3.95745644 20.00045254 -4 22 C-3.34 22 -2.68 22 -2 22 C-2 23.32 -2 24.64 -2 26 C-1.34 26.33 -0.68 26.66 0 27 C-0.66 27 -1.32 27 -2 27 C-1.525625 28.0725 -1.05125 29.145 -0.5625 30.25 C0.53766332 32.80839865 1.45167003 35.25835017 2 38 C1.34 38 0.68 38 0 38 C-1.67613728 34.56703905 -3.33925697 31.12793117 -5 27.6875 C-5.47695312 26.71103516 -5.95390625 25.73457031 -6.4453125 24.72851562 C-6.89648438 23.79072266 -7.34765625 22.85292969 -7.8125 21.88671875 C-8.23144531 21.02264404 -8.65039062 20.15856934 -9.08203125 19.26831055 C-10 17 -10 17 -10 14 C-8.53454115 12.86759998 -7.06885463 11.73549231 -5.6015625 10.60546875 C-2.67651838 7.67329038 -1.41836895 3.82959617 0 0 Z " fill="#285599" transform="translate(208,238)"/>
<path d="M0 0 C0.33 0 0.66 0 1 0 C1.16763742 5.21424594 1.32819469 10.42864348 1.48217773 15.64331055 C1.53556608 17.41745885 1.59089298 19.19154991 1.64819336 20.96557617 C1.73019269 23.51468565 1.80523144 26.06391928 1.87890625 28.61328125 C1.90594131 29.40712723 1.93297638 30.20097321 1.96083069 31.01887512 C2.05004432 34.30636716 2.04883406 36.85349781 1 40 C1.66 40 2.32 40 3 40 C2.84660156 41.23621094 2.69320313 42.47242188 2.53515625 43.74609375 C1.89493571 49.50807865 1.66036322 55.27170967 1.4375 61.0625 C1.39431641 62.11888672 1.35113281 63.17527344 1.30664062 64.26367188 C1.20162663 66.84234879 1.09947123 69.42110435 1 72 C1.66 72.33 2.32 72.66 3 73 C2.01 76.465 2.01 76.465 1 80 C1.66 80.33 2.32 80.66 3 81 C2.67 81.99 2.34 82.98 2 84 C1.34 84 0.68 84 0 84 C0 56.28 0 28.56 0 0 Z " fill="#3B7BC3" transform="translate(319,260)"/>
<path d="M0 0 C2.55270089 2.55270089 2.91363069 4.46726975 3.11352539 8.01464844 C3.10828857 8.7059082 3.10305176 9.39716797 3.09765625 10.109375 C3.09443359 10.86347656 3.09121094 11.61757812 3.08789062 12.39453125 C3.07951172 13.17183594 3.07113281 13.94914063 3.0625 14.75 C3.05798828 15.54277344 3.05347656 16.33554688 3.04882812 17.15234375 C3.03708565 19.10159508 3.01915146 21.05080738 3 23 C1.35 23.66 -0.3 24.32 -2 25 C-2 23.68 -2 22.36 -2 21 C-2.66 21 -3.32 21 -4 21 C-4.33 22.32 -4.66 23.64 -5 25 C-5 20.38 -5 15.76 -5 11 C-4.34 11.66 -3.68 12.32 -3 13 C-2.34 12.01 -1.68 11.02 -1 10 C-0.34 10 0.32 10 1 10 C0.67 9.34 0.34 8.68 0 8 C-0.13415472 5.3276379 -0.04318541 2.67749512 0 0 Z " fill="#CEDAEE" transform="translate(153,232)"/>
<path d="M0 0 C5.0593094 1.63683539 9.41573707 4.3317677 12.1875 9 C11.87186714 12.36675046 9.43057524 13.86583638 7 16 C5.948125 14.8553125 5.948125 14.8553125 4.875 13.6875 C2.03647396 11.03409522 -0.46949051 9.55999257 -4 8 C-3 6 -3 6 0 5 C0 3.35 0 1.7 0 0 Z " fill="#D6E6F5" transform="translate(87,217)"/>
<path d="M0 0 C1.98 0 3.96 0 6 0 C6 5.61 6 11.22 6 17 C7.32 17.33 8.64 17.66 10 18 C10 18.66 10 19.32 10 20 C9.278125 19.835 8.55625 19.67 7.8125 19.5 C5.0348499 18.91050936 5.0348499 18.91050936 2.3125 19.0625 C0 19 0 19 -2 17 C-1.66015625 15.296875 -1.66015625 15.296875 -1 13 C-0.7801777 10.75292759 -0.59516013 8.50228762 -0.4375 6.25 C-0.35371094 5.07953125 -0.26992188 3.9090625 -0.18359375 2.703125 C-0.12300781 1.81109375 -0.06242187 0.9190625 0 0 Z " fill="#5A86B6" transform="translate(57,180)"/>
<path d="M0 0 C1 2 1 2 0.3125 4.5 C-1.18255341 7.34772078 -2.11915322 7.79190296 -5 9 C-5.33 9.66 -5.66 10.32 -6 11 C-6.66 11 -7.32 11 -8 11 C-8 11.99 -8 12.98 -8 14 C-13.25855247 14.86137451 -18.36158484 15.21259234 -23.6875 15.25 C-24.80608398 15.2809375 -24.80608398 15.2809375 -25.94726562 15.3125 C-29.23435182 15.33595824 -31.57145564 15.23898287 -34.47265625 13.62109375 C-36.21605566 11.77068261 -36.65586336 10.49499062 -37 8 C-35.948125 8.433125 -35.948125 8.433125 -34.875 8.875 C-33.92625 9.24625 -32.9775 9.6175 -32 10 C-31.071875 10.37125 -30.14375 10.7425 -29.1875 11.125 C-22.20186899 13.0426242 -16.89138011 12.15527488 -10.3359375 9.3515625 C-7.22064642 7.54906967 -5.27472089 5.36422865 -3.15625 2.48828125 C-2 1 -2 1 0 0 Z " fill="#27599C" transform="translate(152,265)"/>
<path d="M0 0 C2.00451121 0.30503431 4.00448218 0.64080679 6 1 C6.99 1 7.98 1 9 1 C9 1.66 9 2.32 9 3 C9.66 3.66 10.32 4.32 11 5 C11 5.66 11 6.32 11 7 C11.66 7.66 12.32 8.32 13 9 C15.15507411 13.94283053 16.41772532 18.5695708 16 24 C14.46604645 21.08683382 13.34009101 18.1654345 12.25 15.0625 C10.07975702 9.53082803 7.36834145 6.68417073 2 4 C-0.40560273 3.84391977 -2.78702772 3.74195542 -5.1953125 3.68359375 C-5.90275604 3.66281265 -6.61019958 3.64203156 -7.33908081 3.62062073 C-9.60095425 3.55518922 -11.86294462 3.49627026 -14.125 3.4375 C-15.65756422 3.39430867 -17.19011657 3.35069418 -18.72265625 3.30664062 C-22.48165073 3.19951445 -26.24076292 3.0982291 -30 3 C-28 1 -28 1 -25.31030273 0.78881836 C-24.19598877 0.80565674 -23.0816748 0.82249512 -21.93359375 0.83984375 C-20.1227832 0.8562793 -20.1227832 0.8562793 -18.27539062 0.87304688 C-16.37563477 0.90495117 -16.37563477 0.90495117 -14.4375 0.9375 C-11.93625331 0.97176365 -9.43494614 1.00194252 -6.93359375 1.02734375 C-5.2638147 1.05429321 -5.2638147 1.05429321 -3.56030273 1.08178711 C-1.06630639 1.29436297 -1.06630639 1.29436297 0 0 Z " fill="#1D4B8C" transform="translate(194,212)"/>
<path d="M0 0 C1.32 0 2.64 0 4 0 C4 8.25 4 16.5 4 25 C2.68 25 1.36 25 0 25 C0 16.75 0 8.5 0 0 Z " fill="#D6E4F4" transform="translate(100,171)"/>
<path d="M0 0 C4.875 1.75 4.875 1.75 6 4 C6.99 4.33 7.98 4.66 9 5 C9.33 4.01 9.66 3.02 10 2 C11.2866645 4.573329 11.16824551 6.50223038 11.1875 9.375 C11.20167969 10.33148438 11.21585938 11.28796875 11.23046875 12.2734375 C10.99745572 15.03010017 10.40920164 16.64947395 9 19 C8.34 18.67 7.68 18.34 7 18 C7 16.35 7 14.7 7 13 C6.34 13 5.68 13 5 13 C2 7.25 2 7.25 2 5 C1.01 4.67 0.02 4.34 -1 4 C-0.67 2.68 -0.34 1.36 0 0 Z " fill="#CCD3E0" transform="translate(196,222)"/>
<path d="M0 0 C1.56197295 2.34295943 3.10846459 4.69014198 4.625 7.0625 C5.07101563 7.75472656 5.51703125 8.44695312 5.9765625 9.16015625 C7 11 7 11 7 13 C5.68 12.67 4.36 12.34 3 12 C2.01 13.32 1.02 14.64 0 16 C-3.09592835 12.4912812 -4.74194623 9.50802601 -6 5 C-4.625 3.5 -4.625 3.5 -3 2 C-2.34 2 -1.68 2 -1 2 C-0.67 1.34 -0.34 0.68 0 0 Z " fill="#C7D5ED" transform="translate(112,253)"/>
<path d="M0 0 C6.93 0.33 13.86 0.66 21 1 C21.33 1.66 21.66 2.32 22 3 C21.443125 2.98839844 20.88625 2.97679687 20.3125 2.96484375 C15.10221657 2.90323567 10.1562049 3.25000656 5 4 C5.33 6.31 5.66 8.62 6 11 C7.32 10.67 8.64 10.34 10 10 C10.33 11.65 10.66 13.3 11 15 C11.99 15.33 12.98 15.66 14 16 C14 16.66 14 17.32 14 18 C7.93155166 16.09277338 4.57565201 12.40723483 1.6875 6.875 C0.37860255 4.21581705 0 3.04470565 0 0 Z " fill="#22559A" transform="translate(225,251)"/>
<path d="M0 0 C0.99 0 1.98 0 3 0 C3 2.31 3 4.62 3 7 C3.99 7 4.98 7 6 7 C6 7.99 6 8.98 6 10 C5.01 10 4.02 10 3 10 C3 12.97 3 15.94 3 19 C3.99 19 4.98 19 6 19 C6 20.65 6 22.3 6 24 C1.125 23.125 1.125 23.125 0 22 C-0.08700342 20.36527118 -0.10701063 18.72685945 -0.09765625 17.08984375 C-0.09443359 16.10048828 -0.09121094 15.11113281 -0.08789062 14.09179688 C-0.07951172 13.05087891 -0.07113281 12.00996094 -0.0625 10.9375 C-0.05798828 9.89271484 -0.05347656 8.84792969 -0.04882812 7.77148438 C-0.03699913 5.1809334 -0.02051689 2.59049441 0 0 Z " fill="#E6F5FD" transform="translate(78,173)"/>
<path d="M0 0 C0.33 0 0.66 0 1 0 C1.02187378 0.83978394 1.02187378 0.83978394 1.04418945 1.6965332 C1.11871352 4.23588137 1.21535581 6.77392078 1.3125 9.3125 C1.33505859 10.19357422 1.35761719 11.07464844 1.38085938 11.98242188 C1.41630859 12.82998047 1.45175781 13.67753906 1.48828125 14.55078125 C1.51446533 15.33106689 1.54064941 16.11135254 1.56762695 16.9152832 C2.10555789 19.50895472 2.92599481 20.39089495 5 22 C5.99 22.33 6.98 22.66 8 23 C8 21.35 8 19.7 8 18 C7.34 18 6.68 18 6 18 C6.33 16.68 6.66 15.36 7 14 C7.38671875 14.56589844 7.7734375 15.13179687 8.171875 15.71484375 C8.95304687 16.81505859 8.95304687 16.81505859 9.75 17.9375 C10.26046875 18.66839844 10.7709375 19.39929688 11.296875 20.15234375 C13.19177915 22.20805399 14.27425729 22.62669176 17 23 C17 23.66 17 24.32 17 25 C14.98177083 24.96744792 12.96354167 24.93489583 10.9453125 24.90234375 C8.91814596 24.87350758 8.91814596 24.87350758 7 26 C5.11515056 25.75378093 3.23977913 25.43111913 1.375 25.0625 C0.37210937 24.86785156 -0.63078125 24.67320312 -1.6640625 24.47265625 C-2.43492188 24.31667969 -3.20578125 24.16070312 -4 24 C-2.68 23.67 -1.36 23.34 0 23 C-0.08378906 21.92621094 -0.16757813 20.85242188 -0.25390625 19.74609375 C-0.3571603 18.30992378 -0.46000294 16.87372419 -0.5625 15.4375 C-0.61857422 14.73302734 -0.67464844 14.02855469 -0.73242188 13.30273438 C-1.05157754 8.68561569 -0.80878035 4.5591248 0 0 Z " fill="#2E629D" transform="translate(76,174)"/>
<path d="M0 0 C2.475 0.99 2.475 0.99 5 2 C4.34 2.66 3.68 3.32 3 4 C2.71986721 7.10446096 2.71986721 7.10446096 2.8046875 10.8046875 C2.80760803 11.50402405 2.81052856 12.2033606 2.8135376 12.92388916 C2.82115551 14.44410008 2.83339496 15.96429316 2.84967041 17.48443604 C2.87513705 19.88793482 2.88821262 22.29121363 2.89794922 24.69482422 C2.92083923 29.79664794 2.95932415 34.89829112 3 40 C3.04712295 45.9103262 3.08793517 51.82054855 3.11187744 57.73101807 C3.12488055 60.10320811 3.14989618 62.47508283 3.17529297 64.84716797 C3.18255594 66.29654664 3.18925966 67.74592827 3.1953125 69.1953125 C3.20578613 70.46391113 3.21625977 71.73250977 3.22705078 73.03955078 C3 76 3 76 1 78 C0.67 52.26 0.34 26.52 0 0 Z " fill="#5598D7" transform="translate(318,98)"/>
<path d="M0 0 C0 0.66 0 1.32 0 2 C-0.639375 2.2475 -1.27875 2.495 -1.9375 2.75 C-4.18741541 3.81562433 -4.18741541 3.81562433 -4.75 6.125 C-4.8325 6.74375 -4.915 7.3625 -5 8 C-3.68 8 -2.36 8 -1 8 C-2.48781815 11.78717347 -4.61988409 13.77407001 -8 16 C-8.99 15.67 -9.98 15.34 -11 15 C-12 11.9375 -12 11.9375 -12 8 C-9.1170866 4.51448237 -4.7815936 0 0 0 Z " fill="#E4E5F0" transform="translate(122,217)"/>
<path d="M0 0 C1.98206999 0.06422024 3.96202254 0.20117678 5.9375 0.375 C7.55978516 0.51035156 7.55978516 0.51035156 9.21484375 0.6484375 C12 1 12 1 14 2 C14 2.66 14 3.32 14 4 C12.02 4.99 10.04 5.98 8 7 C8 7.33 8 7.66 8 8 C1.9453125 8.1953125 1.9453125 8.1953125 0 8 C-0.66 7.34 -1.32 6.68 -2 6 C-1.44444444 1.44444444 -1.44444444 1.44444444 0 0 Z " fill="#F8FAFA" transform="translate(241,214)"/>
<path d="M0 0 C5.28 0 10.56 0 16 0 C15.67 0.66 15.34 1.32 15 2 C13.82630859 1.98259766 13.82630859 1.98259766 12.62890625 1.96484375 C11.61699219 1.95582031 10.60507813 1.94679687 9.5625 1.9375 C8.04849609 1.92009766 8.04849609 1.92009766 6.50390625 1.90234375 C4.05978933 1.71387324 4.05978933 1.71387324 3 3 C2.92536236 4.46569664 2.91673625 5.93489485 2.9375 7.40234375 C2.94523438 8.29244141 2.95296875 9.18253906 2.9609375 10.09960938 C2.98692541 11.98763095 3.01296685 13.87565179 3.0390625 15.76367188 C3.04679688 16.65505859 3.05453125 17.54644531 3.0625 18.46484375 C3.07410156 19.285896 3.08570313 20.10694824 3.09765625 20.95288086 C3 23 3 23 2 25 C-0.06640625 25.4140625 -0.06640625 25.4140625 -2.5625 25.625 C-3.38878906 25.69976562 -4.21507812 25.77453125 -5.06640625 25.8515625 C-6.02353516 25.92503906 -6.02353516 25.92503906 -7 26 C-7.33 25.34 -7.66 24.68 -8 24 C-5.36 24 -2.72 24 0 24 C0 16.08 0 8.16 0 0 Z " fill="#245595" transform="translate(173,254)"/>
<path d="M0 0 C0.33 0.99 0.66 1.98 1 3 C1.66 3.33 2.32 3.66 3 4 C3 4.66 3 5.32 3 6 C1.35 5.34 -0.3 4.68 -2 4 C-2 3.34 -2 2.68 -2 2 C-4.7260137 3.55772212 -7.18017261 5.14585402 -9.625 7.125 C-13.3112046 10.03516153 -16.13657455 10.1160403 -20.6875 10.0625 C-21.68136719 10.05347656 -22.67523438 10.04445313 -23.69921875 10.03515625 C-24.83810547 10.01775391 -24.83810547 10.01775391 -26 10 C-23 8 -23 8 -20.5 8.125 C-19.2625 8.063125 -19.2625 8.063125 -18 8 C-16.95374591 6.70264493 -15.95298777 5.36733028 -15 4 C-12.875 3.375 -12.875 3.375 -11 3 C-10.67 2.34 -10.34 1.68 -10 1 C-6.70581806 -0.22006738 -3.47634765 -0.0790079 0 0 Z " fill="#275FA4" transform="translate(267,260)"/>
<path d="M0 0 C3.02093215 3.02093215 2.46676834 6.56372072 2.625 10.625 C2.66367187 11.42679688 2.70234375 12.22859375 2.7421875 13.0546875 C2.83653931 15.03607556 2.91936215 17.01800645 3 19 C1.02 19.99 1.02 19.99 -1 21 C-2.15795477 17.52613568 -2.16829849 14.72230696 -2.1875 11.0625 C-2.20167969 9.83660156 -2.21585938 8.61070312 -2.23046875 7.34765625 C-2.01676797 4.24356188 -1.63998182 2.58637449 0 0 Z " fill="#D5D9E3" transform="translate(59,234)"/>
<path d="M0 0 C17.0872125 -0.17656132 17.0872125 -0.17656132 23.7421875 0.7890625 C27.87653608 1.17531652 32.0357507 0.9087287 36.1796875 0.7421875 C39 1 39 1 40.8828125 2.5078125 C41.25148437 3.00023437 41.62015625 3.49265625 42 4 C33.07268486 4.28290787 24.27198008 3.82901029 15.375 3.125 C13.79235352 3.00729248 13.79235352 3.00729248 12.17773438 2.88720703 C11.17806641 2.80325684 10.17839844 2.71930664 9.1484375 2.6328125 C8.25302246 2.55949707 7.35760742 2.48618164 6.43505859 2.41064453 C3.94645775 1.99097072 2.17936385 1.24725304 0 0 Z " fill="#295996" transform="translate(52,423)"/>
<path d="M0 0 C10.20136094 -0.11490895 20.30859257 0.09228808 30.48828125 0.78125 C32.98840317 0.93698618 35.49503227 1 38 1 C38 1.66 38 2.32 38 3 C39.65 3 41.3 3 43 3 C43 3.33 43 3.66 43 4 C28.768088 4.33574629 13.93999032 4.19698125 0 1 C0 0.67 0 0.34 0 0 Z " fill="#2C5D98" transform="translate(140,431)"/>
<path d="M0 0 C0 3 0 3 -1 5 C0.65 5.33 2.3 5.66 4 6 C3.42655063 8.86724686 3.1385485 9.8614515 1 12 C0.01 12 -0.98 12 -2 12 C-2 11.34 -2 10.68 -2 10 C-2.99 10 -3.98 10 -5 10 C-5.33 10.66 -5.66 11.32 -6 12 C-8.0625 12.625 -8.0625 12.625 -10 13 C-8.51082643 8.08572721 -5.55813338 4.59680874 -2 1 C-1.34 0.67 -0.68 0.34 0 0 Z " fill="#DCE5EE" transform="translate(230,218)"/>
<path d="M0 0 C1.65 0.33 3.3 0.66 5 1 C5 4.96 5 8.92 5 13 C3.35 13.33 1.7 13.66 0 14 C-1 13 -1 13 -1.1328125 10.56640625 C-1.13023438 9.57511719 -1.12765625 8.58382812 -1.125 7.5625 C-1.12757812 6.57378906 -1.13015625 5.58507812 -1.1328125 4.56640625 C-1 2 -1 2 0 0 Z " fill="#3A6DA9" transform="translate(67,184)"/>
<path d="M0 0 C2.475 0.99 2.475 0.99 5 2 C5.33 1.34 5.66 0.68 6 0 C6 0.66 6 1.32 6 2 C7.65 2.33 9.3 2.66 11 3 C10.67 3.66 10.34 4.32 10 5 C9.01 4.67 8.02 4.34 7 4 C7 5.32 7 6.64 7 8 C7.33 7.34 7.66 6.68 8 6 C9.32 6 10.64 6 12 6 C11.67 7.32 11.34 8.64 11 10 C9.35 10 7.7 10 6 10 C5.34 8.35 4.68 6.7 4 5 C3.67 5 3.34 5 3 5 C2.67 6.65 2.34 8.3 2 10 C1.34 10 0.68 10 0 10 C0 8.68 0 7.36 0 6 C-0.99 6 -1.98 6 -3 6 C-3.33 6.99 -3.66 7.98 -4 9 C-4 6.69 -4 4.38 -4 2 C-3.67 2.99 -3.34 3.98 -3 5 C-2.01 5 -1.02 5 0 5 C0 3.35 0 1.7 0 0 Z " fill="#8CBBDF" transform="translate(76,344)"/>
<path d="M0 0 C0.99 0 1.98 0 3 0 C4.359375 1.7578125 4.359375 1.7578125 5.75 4.125 C8.63708997 8.71677877 11.73691738 11.67479555 16 15 C14.71034824 16.37562854 13.37310707 17.70766393 12 19 C11.34 19 10.68 19 10 19 C9.67 18.01 9.34 17.02 9 16 C9.66 16 10.32 16 11 16 C11 15.34 11 14.68 11 14 C10.34 14 9.68 14 9 14 C8.34 13.34 7.68 12.68 7 12 C6.34 12 5.68 12 5 12 C5.33 10.68 5.66 9.36 6 8 C4.35 7.67 2.7 7.34 1 7 C0.67 4.69 0.34 2.38 0 0 Z " fill="#27589D" transform="translate(55,260)"/>
<path d="M0 0 C1.98 0 3.96 0 6 0 C6.86688848 4.45730848 7.10626849 8.65016617 7.0625 13.1875 C7.05347656 14.39792969 7.04445313 15.60835937 7.03515625 16.85546875 C7.02355469 17.89316406 7.01195313 18.93085938 7 20 C7 20.99 7 21.98 7 23 C6.25 25.625 6.25 25.625 5 28 C2.875 28.8125 2.875 28.8125 1 29 C1.33 28.01 1.66 27.02 2 26 C2.99 26 3.98 26 5 26 C5 17.75 5 9.5 5 1 C3.68 1 2.36 1 1 1 C1 8.92 1 16.84 1 25 C0.67 25 0.34 25 0 25 C0 16.75 0 8.5 0 0 Z " fill="#295A92" transform="translate(99,170)"/>
<path d="M0 0 C2.64 0 5.28 0 8 0 C8 2.97 8 5.94 8 9 C5.36 9 2.72 9 0 9 C0 6.03 0 3.06 0 0 Z " fill="#E8F8FD" transform="translate(259,34)"/>
<path d="M0 0 C0.66 0 1.32 0 2 0 C2.20753906 0.6290625 2.41507813 1.258125 2.62890625 1.90625 C6.39682967 12.37445566 11.9649822 18.26693038 22 23 C18.08428299 24.305239 16.96107003 23.32239848 13.3125 21.5625 C12.31863281 21.08941406 11.32476562 20.61632812 10.30078125 20.12890625 C9.54152344 19.75636719 8.78226563 19.38382812 8 19 C8 18.01 8 17.02 8 16 C6.68733482 14.64631404 5.35432675 13.31200404 4 12 C4 11.34 4 10.68 4 10 C3.34 10 2.68 10 2 10 C0 3.375 0 3.375 0 0 Z " fill="#2B5799" transform="translate(216,256)"/>
<path d="M0 0 C0.99 0.66 1.98 1.32 3 2 C3.99 2 4.98 2 6 2 C7.73223664 3.94348501 9.39881603 5.94720004 11 8 C11.66 8.66 12.32 9.32 13 10 C12.67 10.66 12.34 11.32 12 12 C8.6425269 11.39430886 6.69833219 10.1972631 4.0625 8.0625 C1.14801936 5.79083939 -1.43177668 4.11506979 -5 3 C-5 2.67 -5 2.34 -5 2 C-3.35 2 -1.7 2 0 2 C0 1.34 0 0.68 0 0 Z " fill="#275FA5" transform="translate(89,213)"/>
<path d="M0 0 C2.97 0 5.94 0 9 0 C9 0.66 9 1.32 9 2 C8.34 2 7.68 2 7 2 C7 4.31 7 6.62 7 9 C5.02 9.33 3.04 9.66 1 10 C0.67 6.7 0.34 3.4 0 0 Z " fill="#6D9FCB" transform="translate(61,345)"/>
<path d="M0 0 C1.77049689 -0.05410687 3.54146849 -0.09284119 5.3125 -0.125 C6.29863281 -0.14820313 7.28476562 -0.17140625 8.30078125 -0.1953125 C11 0 11 0 14 2 C13.01 2.33 12.02 2.66 11 3 C11.33 3.66 11.66 4.32 12 5 C11.07767578 5.09087891 11.07767578 5.09087891 10.13671875 5.18359375 C9.32847656 5.26738281 8.52023437 5.35117187 7.6875 5.4375 C6.88699219 5.51871094 6.08648437 5.59992187 5.26171875 5.68359375 C2.83912821 5.95265693 2.83912821 5.95265693 0 7 C0 4.69 0 2.38 0 0 Z " fill="#5D98CE" transform="translate(279,40)"/>
<path d="M0 0 C1.485 0.99 1.485 0.99 3 2 C3.29296875 5.2578125 3.29296875 5.2578125 3.1875 9.125 C3.14689453 11.04699219 3.14689453 11.04699219 3.10546875 13.0078125 C3.07066406 13.99523437 3.03585938 14.98265625 3 16 C1.68 16 0.36 16 -1 16 C-1.02685095 13.52076199 -1.04676547 11.0418116 -1.0625 8.5625 C-1.07506836 7.50192383 -1.07506836 7.50192383 -1.08789062 6.41992188 C-1.09653588 4.61306441 -1.05220011 2.80612397 -1 1 C-0.67 0.67 -0.34 0.34 0 0 Z " fill="#D6E6F2" transform="translate(73,181)"/>
<path d="M0 0 C6.73432123 0.56384057 12.63458974 2.34558126 19 4.5625 C20.44826172 5.0565332 20.44826172 5.0565332 21.92578125 5.56054688 C24.28629806 6.36686202 26.64416717 7.18012163 29 8 C29 8.33 29 8.66 29 9 C24.05 8.67 19.1 8.34 14 8 C14 7.01 14 6.02 14 5 C13.278125 4.855625 12.55625 4.71125 11.8125 4.5625 C9.97334385 4.19466877 8.13932863 3.79984387 6.3125 3.375 C3.98135781 2.76572985 3.98135781 2.76572985 2 4 C1.34 3.67 0.68 3.34 0 3 C0 2.01 0 1.02 0 0 Z " fill="#5785B7" transform="translate(363,16)"/>
<path d="M0 0 C11.48459891 -0.30900266 22.60453238 0.62616537 34 2 C34 2.33 34 2.66 34 3 C22.44536021 3.20923895 11.40161688 3.1142071 0 1 C0 0.67 0 0.34 0 0 Z " fill="#305E9A" transform="translate(96,427)"/>
<path d="M0 0 C0.66 0.33 1.32 0.66 2 1 C4.34363731 8.26527566 3.42338476 16.00253847 0.75390625 22.9921875 C0.00904456 24.9759124 -0.52360517 26.93716414 -1 29 C-1.66 28.67 -2.32 28.34 -3 28 C-2.52433594 26.08380859 -2.52433594 26.08380859 -2.0390625 24.12890625 C-0.91314311 19.06226901 -0.56771841 14.11279224 -0.375 8.9375 C-0.33632812 8.07189453 -0.29765625 7.20628906 -0.2578125 6.31445312 C-0.16479519 4.20993641 -0.08137331 2.1049991 0 0 Z " fill="#3061A0" transform="translate(156,236)"/>
<path d="M0 0 C0.76376953 -0.01224609 1.52753906 -0.02449219 2.31445312 -0.03710938 C9.23835851 -0.05518746 9.23835851 -0.05518746 12.5625 2.1875 C12.5625 2.8475 12.5625 3.5075 12.5625 4.1875 C11.61246094 4.02378906 10.66242188 3.86007812 9.68359375 3.69140625 C4.99716951 3.02191707 0.34981694 3.07829078 -4.375 3.125 C-5.24962891 3.12951172 -6.12425781 3.13402344 -7.02539062 3.13867188 C-9.16279047 3.15035166 -11.30015463 3.16828311 -13.4375 3.1875 C-9.61540778 -0.63459222 -5.07364728 0.00425999 0 0 Z " fill="#F0FAFC" transform="translate(315.4375,-0.1875)"/>
<path d="M0 0 C0.33 1.32 0.66 2.64 1 4 C3.97 4.33 6.94 4.66 10 5 C8.68 5.33 7.36 5.66 6 6 C6 11.28 6 16.56 6 22 C5.67 22 5.34 22 5 22 C5 16.72 5 11.44 5 6 C3.68 6 2.36 6 1 6 C1 11.28 1 16.56 1 22 C0.67 22 0.34 22 0 22 C0 16.39 0 10.78 0 5 C-0.66 4.67 -1.32 4.34 -2 4 C-1.34 4 -0.68 4 0 4 C0 2.68 0 1.36 0 0 Z " fill="#255D92" transform="translate(56,174)"/>
<path d="M0 0 C0 0.33 0 0.66 0 1 C-4.42871648 1.43151008 -8.85783122 1.85859968 -13.28735352 2.28173828 C-14.79170005 2.42605482 -16.29593469 2.57154289 -17.80004883 2.71826172 C-19.9718784 2.92990172 -22.14408598 3.13721488 -24.31640625 3.34375 C-25.62037354 3.46943359 -26.92434082 3.59511719 -28.26782227 3.72460938 C-31.86149417 3.98977991 -35.39816362 4.04892138 -39 4 C-34.06811711 1.53405856 -30.34349179 0.71490402 -24.8125 0.4375 C-24.01473145 0.3950415 -23.21696289 0.35258301 -22.39501953 0.30883789 C-14.92551614 -0.05937707 -7.47711089 -0.09925368 0 0 Z " fill="#CEEDF8" transform="translate(201,14)"/>
<path d="M0 0 C3.3 0.33 6.6 0.66 10 1 C10.268125 1.763125 10.53625 2.52625 10.8125 3.3125 C11.95970729 5.90881123 12.94646668 7.1250348 15 9 C16.231394 11.46278801 16.07159196 13.2795055 16 16 C13.33842568 13.44488865 10.93822626 10.75413616 8.5625 7.9375 C5.95784954 4.9174527 3.58163398 2.84508417 0 1 C0 0.67 0 0.34 0 0 Z " fill="#2D64A3" transform="translate(256,215)"/>
<path d="M0 0 C1.051875 0.433125 1.051875 0.433125 2.125 0.875 C3.07375 1.24625 4.0225 1.6175 5 2 C5.845625 2.37125 6.69125 2.7425 7.5625 3.125 C12.68713808 4.42945333 17.7401428 4.15319972 23 4 C23 4.99 23 5.98 23 7 C20.08277452 7.08103404 17.16780484 7.14051081 14.25 7.1875 C13.0125 7.22520508 13.0125 7.22520508 11.75 7.26367188 C5.62186379 7.33780255 5.62186379 7.33780255 2.46875 5.625 C0.79269405 3.77064023 0.33876788 2.45606712 0 0 Z " fill="#27569A" transform="translate(115,273)"/>
<path d="M0 0 C0.99 0 1.98 0 3 0 C3 0.66 3 1.32 3 2 C4.32 2.66 5.64 3.32 7 4 C7 7 7 7 4.8125 9.5625 C2.18722294 11.83774012 0.27556481 12.97053677 -3 14 C-2.505 13.4225 -2.01 12.845 -1.5 12.25 C0.36980013 9.89599371 0.36980013 9.89599371 0 6 C1.32 6 2.64 6 4 6 C4 5.34 4 4.68 4 4 C1.03 3.505 1.03 3.505 -2 3 C-1.34 2.01 -0.68 1.02 0 0 Z " fill="#A8BEE3" transform="translate(262,262)"/>
<path d="M0 0 C0.66 0.33 1.32 0.66 2 1 C1.67 2.98 1.34 4.96 1 7 C-0.3303125 7.3403125 -0.3303125 7.3403125 -1.6875 7.6875 C-5.43762153 9.17339721 -7.25614386 11.10370741 -10 14 C-10.66 14 -11.32 14 -12 14 C-12 13.01 -12 12.02 -12 11 C-11.071875 10.87625 -11.071875 10.87625 -10.125 10.75 C-7.27917691 9.74559185 -7.30639857 8.68537484 -6 6 C-4.08662136 3.8963122 -2.05720213 1.96775855 0 0 Z " fill="#2B5B9D" transform="translate(99,266)"/>
<path d="M0 0 C0 0.99 0 1.98 0 3 C-13.6332574 7.40774487 -13.6332574 7.40774487 -20 8 C-20 6.35 -20 4.7 -20 3 C-19.319375 3.185625 -18.63875 3.37125 -17.9375 3.5625 C-11.4195063 4.53326502 -5.94068578 2.39711882 0 0 Z " fill="#174798" transform="translate(339,440)"/>
<path d="M0 0 C2 2 2 2 2.125 5.625 C2.08375 6.73875 2.0425 7.8525 2 9 C2.66 9 3.32 9 4 9 C4 6.03 4 3.06 4 0 C6 2 6 2 6.265625 3.875 C6.26046875 4.57625 6.2553125 5.2775 6.25 6 C6.25515625 6.70125 6.2603125 7.4025 6.265625 8.125 C6 10 6 10 4 12 C3.01 12 2.02 12 1 12 C0.34 11.34 -0.32 10.68 -1 10 C-0.64644564 7.73725212 -0.02455574 6.04911148 1 4 C0.01 3.67 -0.98 3.34 -2 3 C-2 2.34 -2 1.68 -2 1 C-1.34 0.67 -0.68 0.34 0 0 Z " fill="#2863A6" transform="translate(56,344)"/>
<path d="M0 0 C1.5 1.25 1.5 1.25 3 3 C3 4.32 3 5.64 3 7 C4.32 6.67 5.64 6.34 7 6 C6.42655063 8.86724686 6.1385485 9.8614515 4 12 C1.5 10.9375 1.5 10.9375 -1 9 C-1.3607834 5.57255771 -1.55938978 3.11877956 0 0 Z " fill="#C7D0E1" transform="translate(219,231)"/>
<path d="M0 0 C0.99 0 1.98 0 3 0 C3 5.28 3 10.56 3 16 C2.01 16 1.02 16 0 16 C0 10.72 0 5.44 0 0 Z " fill="#DCF7FE" transform="translate(58,181)"/>
<path d="M0 0 C0.598125 0.350625 1.19625 0.70125 1.8125 1.0625 C1.4825 2.0525 1.1525 3.0425 0.8125 4.0625 C-1.1675 3.4025 -3.1475 2.7425 -5.1875 2.0625 C-5.1875 1.4025 -5.1875 0.7425 -5.1875 0.0625 C-2.1875 -0.9375 -2.1875 -0.9375 0 0 Z M-4.1875 3.0625 C-3.5275 4.3825 -2.8675 5.7025 -2.1875 7.0625 C-3.5075 8.0525 -4.8275 9.0425 -6.1875 10.0625 C-7.1775 9.0725 -8.1675 8.0825 -9.1875 7.0625 C-7.55337557 5.35409719 -6.31843906 4.12796953 -4.1875 3.0625 Z " fill="#BBC2D9" transform="translate(265.1875,264.9375)"/>
<path d="M0 0 C0.66 0 1.32 0 2 0 C4 3 4 3 4 6 C4.66 6 5.32 6 6 6 C6 6.66 6 7.32 6 8 C9.04913228 9.01111093 9.04913228 9.01111093 12 8 C12 8.99 12 9.98 12 11 C14.97 10.34 17.94 9.68 21 9 C20.67 9.99 20.34 10.98 20 12 C15.04381139 12.35261421 11.17082946 12.5637327 6.625 10.375 C3.78653973 7.80686928 1.88116336 5.3282121 0 2 C0 1.34 0 0.68 0 0 Z " fill="#285A98" transform="translate(65,256)"/>
<path d="M0 0 C3.27066566 -0.08706892 6.54103365 -0.14041241 9.8125 -0.1875 C10.74126953 -0.21263672 11.67003906 -0.23777344 12.62695312 -0.26367188 C13.9659668 -0.27817383 13.9659668 -0.27817383 15.33203125 -0.29296875 C16.56530151 -0.31653442 16.56530151 -0.31653442 17.82348633 -0.34057617 C20.47502434 0.07433079 21.33263592 0.95529751 23 3 C22.01 3.33 21.02 3.66 20 4 C20 3.34 20 2.68 20 2 C18.72382813 2.08378906 17.44765625 2.16757813 16.1328125 2.25390625 C14.46355965 2.35706232 12.79428779 2.45991099 11.125 2.5625 C10.28324219 2.61857422 9.44148437 2.67464844 8.57421875 2.73242188 C7.76855469 2.78076172 6.96289062 2.82910156 6.1328125 2.87890625 C5.38918457 2.9260376 4.64555664 2.97316895 3.87939453 3.02172852 C2 3 2 3 0 2 C0 1.34 0 0.68 0 0 Z " fill="#325993" transform="translate(173,224)"/>
<path d="M0 0 C2.97 0.33 5.94 0.66 9 1 C9.33 2.32 9.66 3.64 10 5 C9 6 9 6 6.71484375 6.09765625 C5.34005859 6.08025391 5.34005859 6.08025391 3.9375 6.0625 C3.01839844 6.05347656 2.09929687 6.04445312 1.15234375 6.03515625 C0.44207031 6.02355469 -0.26820312 6.01195312 -1 6 C-0.649375 5.38125 -0.29875 4.7625 0.0625 4.125 C0.371875 3.42375 0.68125 2.7225 1 2 C0.67 1.34 0.34 0.68 0 0 Z " fill="#F1F0F0" transform="translate(78,217)"/>
<path d="M0 0 C0.66 0.33 1.32 0.66 2 1 C2 2.32 2 3.64 2 5 C2.99 4.67 3.98 4.34 5 4 C5 5.98 5 7.96 5 10 C3.35 9.67 1.7 9.34 0 9 C-1.125 6.1875 -1.125 6.1875 -2 3 C-1.34 2.01 -0.68 1.02 0 0 Z " fill="#BAC2D8" transform="translate(201,267)"/>
<path d="M0 0 C0 0.66 0 1.32 0 2 C-0.639375 2.2475 -1.27875 2.495 -1.9375 2.75 C-4.18741541 3.81562433 -4.18741541 3.81562433 -4.75 6.125 C-4.8325 6.74375 -4.915 7.3625 -5 8 C-3.68 8 -2.36 8 -1 8 C-2.39332574 11.36720387 -3.9789286 12.9859524 -7 15 C-6.67 13.68 -6.34 12.36 -6 11 C-5.34 11 -4.68 11 -4 11 C-4 10.34 -4 9.68 -4 9 C-6.475 8.01 -6.475 8.01 -9 7 C-7.4576387 2.93377477 -4.5679954 0 0 0 Z " fill="#DBE9F6" transform="translate(122,217)"/>
<path d="M0 0 C1.9375 0.6875 1.9375 0.6875 4 2 C4.75 4.625 4.75 4.625 5 7 C3.68 7.99 2.36 8.98 1 10 C1.33 8.35 1.66 6.7 2 5 C0.02 5.99 0.02 5.99 -2 7 C-2.6875 5.1875 -2.6875 5.1875 -3 3 C-1.5625 1.25 -1.5625 1.25 0 0 Z " fill="#B0C6E6" transform="translate(94,260)"/>
<path d="M0 0 C2.9375 0.75 2.9375 0.75 4.9375 2.75 C5.0625 6.375 5.0625 6.375 4.9375 9.75 C4.6075 9.75 4.2775 9.75 3.9375 9.75 C3.6075 7.77 3.2775 5.79 2.9375 3.75 C1.23637008 2.94530151 1.23637008 2.94530151 -1.0625 2.75 C-3.07097365 3.73287008 -5.07069591 4.73377342 -7.0625 5.75 C-9.9375 5.9375 -9.9375 5.9375 -12.0625 5.75 C-12.0625 5.09 -12.0625 4.43 -12.0625 3.75 C-10.6703125 3.316875 -10.6703125 3.316875 -9.25 2.875 C-0.89675414 -0.07320442 -0.89675414 -0.07320442 0 0 Z " fill="#689BC5" transform="translate(284.0625,52.25)"/>
<path d="M0 0 C1.66674321 2.91824244 2.2432008 4.97594379 2.1953125 8.328125 C2.18886719 9.12734375 2.18242187 9.9265625 2.17578125 10.75 C2.15902344 11.575 2.14226562 12.4 2.125 13.25 C2.11597656 14.09046875 2.10695312 14.9309375 2.09765625 15.796875 C2.07415817 17.86470604 2.03828908 19.93238995 2 22 C-0.50424009 19.42326875 -0.99278944 18.07837191 -1.328125 14.43359375 C-1.30234375 13.11488281 -1.2765625 11.79617187 -1.25 10.4375 C-1.24484375 9.76525391 -1.2396875 9.09300781 -1.234375 8.40039062 C-1.18585283 5.3465264 -0.97175456 2.91526368 0 0 Z " fill="#A7BCDA" transform="translate(217,236)"/>
<path d="M0 0 C-0.33 0.66 -0.66 1.32 -1 2 C-2.92578125 2.34375 -2.92578125 2.34375 -5.3125 2.5 C-7.85187233 2.66789239 -9.63484879 2.80955152 -11.90234375 3.9921875 C-14.69317508 5.33303384 -17.17172703 5.42424307 -20.25 5.625 C-21.32765625 5.69976562 -22.4053125 5.77453125 -23.515625 5.8515625 C-24.33546875 5.90054687 -25.1553125 5.94953125 -26 6 C-22.05978214 3.3731881 -18.10886119 2.50426458 -13.5625 1.3125 C-12.70333984 1.07466797 -11.84417969 0.83683594 -10.95898438 0.59179688 C-10.12818359 0.37201172 -9.29738281 0.15222656 -8.44140625 -0.07421875 C-7.68545166 -0.27619873 -6.92949707 -0.47817871 -6.15063477 -0.6862793 C-3.79749384 -1.02954029 -2.24524509 -0.72719845 0 0 Z " fill="#CDE2F4" transform="translate(371,436)"/>
<path d="M0 0 C0 0.33 0 0.66 0 1 C-2.75026417 1.05404449 -5.49946203 1.09369306 -8.25 1.125 C-9.02730469 1.14175781 -9.80460938 1.15851563 -10.60546875 1.17578125 C-17.72431144 1.23662606 -17.72431144 1.23662606 -21 -1 C-13.94936486 -2.20010811 -6.58655274 -3.39951109 0 0 Z " fill="#2B619E" transform="translate(227,438)"/>
<path d="M0 0 C4.59035454 1.53011818 6.06703353 5.22736371 8.25 9.375 C8.4975 9.91125 8.745 10.4475 9 11 C7.68 11 6.36 11 5 11 C2.4345406 8.4345406 2.45953913 6.52313332 2 3 C0.68 3 -0.64 3 -2 3 C-2 2.34 -2 1.68 -2 1 C-1.34 0.67 -0.68 0.34 0 0 Z " fill="#295C9E" transform="translate(105,261)"/>
<path d="M0 0 C0.33 0 0.66 0 1 0 C1.06058594 1.31355469 1.12117188 2.62710938 1.18359375 3.98046875 C1.26803256 5.71615541 1.35267888 7.45183198 1.4375 9.1875 C1.47681641 10.05181641 1.51613281 10.91613281 1.55664062 11.80664062 C1.76347016 15.95914122 2.00103531 19.94537862 3 24 C1.1875 24.625 1.1875 24.625 -1 25 C-1.99 24.34 -2.98 23.68 -4 23 C-2.68 23 -1.36 23 0 23 C-0.08378906 21.92621094 -0.16757813 20.85242188 -0.25390625 19.74609375 C-0.3571603 18.30992378 -0.46000294 16.87372419 -0.5625 15.4375 C-0.61857422 14.73302734 -0.67464844 14.02855469 -0.73242188 13.30273438 C-1.05157754 8.68561569 -0.80878035 4.5591248 0 0 Z " fill="#245B8F" transform="translate(76,174)"/>
<path d="M0 0 C0.33 0 0.66 0 1 0 C1 4.95 1 9.9 1 15 C-9.625 18 -9.625 18 -13 18 C-13 17.34 -13 16.68 -13 16 C-6.375 13.875 -6.375 13.875 -3 15 C-2.67 14.34 -2.34 13.68 -2 13 C-1.34 13.33 -0.68 13.66 0 14 C0 9.38 0 4.76 0 0 Z " fill="#285FA4" transform="translate(429,404)"/>
<path d="M0 0 C7.59 0 15.18 0 23 0 C22.67 0.66 22.34 1.32 22 2 C14.53857209 3.7556301 7.46227578 2.26816765 0 1 C0 0.67 0 0.34 0 0 Z " fill="#D3D9EC" transform="translate(232,243)"/>
<path d="M0 0 C0 0.33 0 0.66 0 1 C-1.7015625 1.2165625 -1.7015625 1.2165625 -3.4375 1.4375 C-6.80777201 1.61171478 -6.80777201 1.61171478 -8 3 C-10.01964199 3.07244053 -12.04167124 3.08377188 -14.0625 3.0625 C-15.71958984 3.04896484 -15.71958984 3.04896484 -17.41015625 3.03515625 C-18.26480469 3.02355469 -19.11945313 3.01195312 -20 3 C-20.33 2.34 -20.66 1.68 -21 1 C-13.97195301 0.14626761 -7.07721931 -0.12109311 0 0 Z " fill="#85B0CF" transform="translate(321,2)"/>
<path d="M0 0 C2.02045442 0.60183749 4.02111039 1.27306096 6 2 C6.33 2.66 6.66 3.32 7 4 C9.35599235 4.46751788 9.35599235 4.46751788 12.0625 4.625 C12.98160156 4.69976562 13.90070313 4.77453125 14.84765625 4.8515625 C15.55792969 4.90054687 16.26820313 4.94953125 17 5 C16.67 5.66 16.34 6.32 16 7 C9.8569122 7.54848998 6.61542058 6.67398815 1.46875 3.2890625 C0.9840625 2.86367188 0.499375 2.43828125 0 2 C0 1.34 0 0.68 0 0 Z " fill="#2D5D98" transform="translate(118,262)"/>
<path d="M0 0 C6.93 0.495 6.93 0.495 14 1 C14 1.99 14 2.98 14 4 C12.41705218 4.05437607 10.83355744 4.09296271 9.25 4.125 C8.36828125 4.14820313 7.4865625 4.17140625 6.578125 4.1953125 C3.8864142 3.99139502 2.30095026 3.36551721 0 2 C0 1.34 0 0.68 0 0 Z " fill="#1E5399" transform="translate(72,276)"/>
<path d="M0 0 C0.33 0 0.66 0 1 0 C1 1.98 1 3.96 1 6 C1.66 6 2.32 6 3 6 C2.67 7.65 2.34 9.3 2 11 C1.01 11.33 0.02 11.66 -1 12 C-2.11658501 7.31034294 -1.80619523 4.46236469 0 0 Z " fill="#CFD2DF" transform="translate(59,243)"/>
<path d="M0 0 C1.65 0 3.3 0 5 0 C6.0625 2.375 6.0625 2.375 7 5 C6.67 5.66 6.34 6.32 6 7 C3.69 7 1.38 7 -1 7 C-0.0022242 4.00667261 0.7522025 3.05233685 3 1 C2.01 0.67 1.02 0.34 0 0 Z " fill="#86A4C4" transform="translate(89,179)"/>
<path d="M0 0 C2.31 0.66 4.62 1.32 7 2 C7 2.99 7 3.98 7 5 C3.71303767 5.79953138 2.28976808 6.09658936 -1 5 C-0.67 3.35 -0.34 1.7 0 0 Z " fill="#E1E7EF" transform="translate(90,221)"/>
<path d="M0 0 C0.33 1.32 0.66 2.64 1 4 C1.99 4 2.98 4 4 4 C4 5.65 4 7.3 4 9 C-0.875 8.125 -0.875 8.125 -2 7 C-2.1875 4.5625 -2.1875 4.5625 -2 2 C-1.34 1.34 -0.68 0.68 0 0 Z " fill="#D4E7F4" transform="translate(80,188)"/>
<path d="M0 0 C1.485 0.99 1.485 0.99 3 2 C3.33 1.34 3.66 0.68 4 0 C4.66 0 5.32 0 6 0 C6 2.64 6 5.28 6 8 C5.01 7.67 4.02 7.34 3 7 C2.67 6.34 2.34 5.68 2 5 C1.34 5.99 0.68 6.98 0 8 C0 5.36 0 2.72 0 0 Z " fill="#B4DAF4" transform="translate(96,347)"/>
<path d="M0 0 C1.65 0 3.3 0 5 0 C5 0.66 5 1.32 5 2 C4.01 2 3.02 2 2 2 C2 2.66 2 3.32 2 4 C2.99 4.33 3.98 4.66 5 5 C4.01 5 3.02 5 2 5 C2 5.66 2 6.32 2 7 C2.99 7 3.98 7 5 7 C5 7.66 5 8.32 5 9 C3.35 8.67 1.7 8.34 0 8 C0 5.36 0 2.72 0 0 Z " fill="#9CC9EF" transform="translate(89,346)"/>
<path d="M0 0 C2.73979504 1.00459151 3.79743501 1.59487002 5.125 4.25 C5.41375 5.1575 5.7025 6.065 6 7 C6.37125 8.093125 6.7425 9.18625 7.125 10.3125 C7.41375 11.199375 7.7025 12.08625 8 13 C5 12 5 12 3.61328125 9.78515625 C3.18402344 8.88667969 2.75476563 7.98820312 2.3125 7.0625 C1.87550781 6.16660156 1.43851563 5.27070313 0.98828125 4.34765625 C0 2 0 2 0 0 Z " fill="#B2C5E5" transform="translate(190,255)"/>
<path d="M0 0 C0.99 0.33 1.98 0.66 3 1 C3.26218749 4.14624993 3.24754367 5.61837017 1.5 8.3125 C1.005 8.869375 0.51 9.42625 0 10 C0 8.68 0 7.36 0 6 C-1.11375 6.309375 -1.11375 6.309375 -2.25 6.625 C-5 7 -5 7 -9 5 C-6.03 5 -3.06 5 0 5 C0 3.35 0 1.7 0 0 Z " fill="#DEE7F7" transform="translate(265,238)"/>
<path d="M0 0 C3.35620271 1.38877354 5.07298728 2.91677965 7 6 C7 6.66 7 7.32 7 8 C7.66 8.33 8.32 8.66 9 9 C9 10.32 9 11.64 9 13 C5.0189869 9.41708821 2.23130716 4.83449886 0 0 Z " fill="#2C5B93" transform="translate(146,220)"/>
<path d="M0 0 C0.99 0.33 1.98 0.66 3 1 C3 1.66 3 2.32 3 3 C2.34 3 1.68 3 1 3 C1 3.66 1 4.32 1 5 C0.236875 5.061875 -0.52625 5.12375 -1.3125 5.1875 C-4.84268623 6.2547656 -5.30250226 7.8475042 -7 11 C-7.66 11 -8.32 11 -9 11 C-7.67667408 6.00076875 -4.39231845 2.60213075 0 0 Z " fill="#32629E" transform="translate(123,225)"/>
<path d="M0 0 C6.17222879 1.24028238 12.06682122 2.89603589 18 5 C17.38125 5.144375 16.7625 5.28875 16.125 5.4375 C13.96741678 5.93152225 13.96741678 5.93152225 12 7 C12 6.34 12 5.68 12 5 C11.319375 4.896875 10.63875 4.79375 9.9375 4.6875 C6.37084011 3.85274981 3.33777806 2.50527246 0 1 C0 0.67 0 0.34 0 0 Z " fill="#6592BD" transform="translate(325,4)"/>
<path d="M0 0 C1.24546405 2.49092811 0.7767578 3.41080733 0 6 C-0.66 6 -1.32 6 -2 6 C-2.33 7.32 -2.66 8.64 -3 10 C-4.32 10.33 -5.64 10.66 -7 11 C-5.5140084 6.40693504 -3.14985318 3.56430755 0 0 Z " fill="#D0DFF0" transform="translate(227,220)"/>
<path d="M0 0 C2.3828125 -0.29296875 2.3828125 -0.29296875 5.125 -0.1875 C6.03507812 -0.16042969 6.94515625 -0.13335937 7.8828125 -0.10546875 C8.58148438 -0.07066406 9.28015625 -0.03585938 10 0 C10 0.33 10 0.66 10 1 C7.03 1 4.06 1 1 1 C1.33 2.98 1.66 4.96 2 7 C2.66 7 3.32 7 4 7 C4 7.66 4 8.32 4 9 C2.35 8.67 0.7 8.34 -1 8 C-1.625 5.6875 -1.625 5.6875 -2 3 C-1.34 2.01 -0.68 1.02 0 0 Z " fill="#DDEFF9" transform="translate(278,39)"/>
<path d="M0 0 C0.66 0 1.32 0 2 0 C2.33 1.65 2.66 3.3 3 5 C3.66 5 4.32 5 5 5 C4.67 6.98 4.34 8.96 4 11 C3.34 11 2.68 11 2 11 C-1.07692308 4.6 -1.07692308 4.6 -0.6875 1.5625 C-0.460625 1.046875 -0.23375 0.53125 0 0 Z " fill="#C6CEE2" transform="translate(62,257)"/>
<path d="M0 0 C0.99 0.66 1.98 1.32 3 2 C5.28648848 2.24107326 5.28648848 2.24107326 7.6875 2.125 C8.49574219 2.10695312 9.30398437 2.08890625 10.13671875 2.0703125 C10.75160156 2.04710937 11.36648437 2.02390625 12 2 C12 2.33 12 2.66 12 3 C10.27192682 3.33895656 8.54248026 3.67091525 6.8125 4 C5.36810547 4.2784375 5.36810547 4.2784375 3.89453125 4.5625 C1.2065794 4.96877612 -1.28771019 5.07933572 -4 5 C-3 2 -3 2 0 0 Z " fill="#1E569D" transform="translate(236,210)"/>
<path d="M0 0 C0.33 0.66 0.66 1.32 1 2 C2.65 2 4.3 2 6 2 C5.67 2.99 5.34 3.98 5 5 C-0.28 4.67 -5.56 4.34 -11 4 C-11 3.67 -11 3.34 -11 3 C-10.28972656 2.86722656 -9.57945312 2.73445312 -8.84765625 2.59765625 C-7.92855469 2.42105469 -7.00945312 2.24445313 -6.0625 2.0625 C-4.68771484 1.80146484 -4.68771484 1.80146484 -3.28515625 1.53515625 C-1.04710156 1.22285012 -1.04710156 1.22285012 0 0 Z " fill="#3C73B5" transform="translate(251,210)"/>
<path d="M0 0 C0.33 0.99 0.66 1.98 1 3 C0.67 3.66 0.34 4.32 0 5 C-0.99 5 -1.98 5 -3 5 C-3 5.66 -3 6.32 -3 7 C-3.66 7 -4.32 7 -5 7 C-5.6875 5.1875 -5.6875 5.1875 -6 3 C-4.04862098 0.26806937 -3.44686768 0 0 0 Z " fill="#C2CBD7" transform="translate(201,244)"/>
<path d="M0 0 C2.475 0.99 2.475 0.99 5 2 C4.34 3.65 3.68 5.3 3 7 C2.01 7 1.02 7 0 7 C-0.33 6.34 -0.66 5.68 -1 5 C-1.66 4.67 -2.32 4.34 -3 4 C-2.01 3.67 -1.02 3.34 0 3 C0 2.01 0 1.02 0 0 Z " fill="#F1F4FB" transform="translate(263,225)"/>
<path d="M0 0 C1.32 0.33 2.64 0.66 4 1 C3.25749403 5.08378283 2.17076699 9.01939223 1 13 C0.67 13 0.34 13 0 13 C0 8.71 0 4.42 0 0 Z " fill="#3268A6" transform="translate(105,224)"/>
<path d="M0 0 C-2.92209224 1.94806149 -5.84960716 3.45695045 -9 5 C-9.78375 5.391875 -10.5675 5.78375 -11.375 6.1875 C-11.91125 6.455625 -12.4475 6.72375 -13 7 C-13 5.35 -13 3.7 -13 2 C-12.236875 1.855625 -11.47375 1.71125 -10.6875 1.5625 C-2.8537234 -0.07712766 -2.8537234 -0.07712766 0 0 Z " fill="#2E65A0" transform="translate(77,215)"/>
<path d="M0 0 C0.99 0.66 1.98 1.32 3 2 C3 2.66 3 3.32 3 4 C-2.41176471 8 -2.41176471 8 -5 8 C-3.8141763 4.62496331 -2.72426311 2.35277269 0 0 Z " fill="#2661AA" transform="translate(270,267)"/>
<path d="M0 0 C0.99 0.33 1.98 0.66 3 1 C4.03863773 7.23182639 3.83288874 12.74692761 3 19 C2.67 19 2.34 19 2 19 C1.93941406 18.13117188 1.87882812 17.26234375 1.81640625 16.3671875 C1.73261719 15.21476563 1.64882813 14.06234375 1.5625 12.875 C1.48128906 11.73804688 1.40007812 10.60109375 1.31640625 9.4296875 C1.02269035 6.2459522 0.56875687 3.14489093 0 0 Z " fill="#2B63A1" transform="translate(272,232)"/>
<path d="M0 0 C0.99 0.66 1.98 1.32 3 2 C2.66226563 2.51949219 2.32453125 3.03898438 1.9765625 3.57421875 C-0.39891701 7.28848007 -2.55762815 10.80400915 -4 15 C-4.33 15 -4.66 15 -5 15 C-5.39253254 10.55129785 -4.15305957 7.85756507 -2 4 C-1.34 4 -0.68 4 0 4 C0 2.68 0 1.36 0 0 Z " fill="#31669F" transform="translate(61,221)"/>
<path d="M0 0 C1.32 0.66 2.64 1.32 4 2 C4 3.98 4 5.96 4 8 C0.7 7.34 -2.6 6.68 -6 6 C-6 5.67 -6 5.34 -6 5 C-3.69 5 -1.38 5 1 5 C0.67 3.35 0.34 1.7 0 0 Z " fill="#DCEDF8" transform="translate(94,181)"/>
<path d="M0 0 C1.8871875 0.0309375 1.8871875 0.0309375 3.8125 0.0625 C3.8125 0.3925 3.8125 0.7225 3.8125 1.0625 C1.1725 1.7225 -1.4675 2.3825 -4.1875 3.0625 C-4.1875 4.7125 -4.1875 6.3625 -4.1875 8.0625 C-5.1775 8.0625 -6.1675 8.0625 -7.1875 8.0625 C-7.1875 5.7525 -7.1875 3.4425 -7.1875 1.0625 C-4.43671116 0.14557039 -2.82801087 -0.04636083 0 0 Z " fill="#D8EDF6" transform="translate(280.1875,31.9375)"/>
<path d="M0 0 C1.32 0.33 2.64 0.66 4 1 C4 3.31 4 5.62 4 8 C3.34 7.34 2.68 6.68 2 6 C1.34 6.99 0.68 7.98 0 9 C0 6.03 0 3.06 0 0 Z " fill="#5D86AC" transform="translate(81,183)"/>
<path d="M0 0 C0.66 0.66 1.32 1.32 2 2 C2.99 1.34 3.98 0.68 5 0 C5 3.3 5 6.6 5 10 C3 6 3 6 3 4 C2.34 4 1.68 4 1 4 C1 5.65 1 7.3 1 9 C0.67 9 0.34 9 0 9 C0 6.03 0 3.06 0 0 Z " fill="#5490C2" transform="translate(267,34)"/>
<path d="M0 0 C11.70615034 0.59453303 11.70615034 0.59453303 16 4 C12.06322574 5.31225809 10.2205738 4.3393954 6.3125 3.0625 C5.13300781 2.68222656 3.95351563 2.30195313 2.73828125 1.91015625 C1.83464844 1.60980469 0.93101562 1.30945313 0 1 C0 0.67 0 0.34 0 0 Z " fill="#DAEBF6" transform="translate(383,21)"/>
<path d="M0 0 C-0.33 1.32 -0.66 2.64 -1 4 C-1.66 4 -2.32 4 -3 4 C-3 3.34 -3 2.68 -3 2 C-6.63 2 -10.26 2 -14 2 C-14 1.67 -14 1.34 -14 1 C-9.23692563 0.04738513 -4.8333472 -0.08333357 0 0 Z " fill="#256FAF" transform="translate(78,28)"/>
<path d="M0 0 C-1.65 0.33 -3.3 0.66 -5 1 C-5 1.66 -5 2.32 -5 3 C-8.57644848 4.2380014 -11.33694766 3.74926071 -15 3 C-10.42919136 0.44034716 -5.14097791 -2.05639116 0 0 Z " fill="#CAE2F2" transform="translate(401,428)"/>
<path d="M0 0 C-3.2645028 3.2645028 -7.41047299 3.93236055 -11.9375 4.125 C-12.618125 4.08375 -13.29875 4.0425 -14 4 C-10.02736804 0.02736804 -5.42163087 -1.80721029 0 0 Z " fill="#1D589F" transform="translate(403,425)"/>
<path d="M0 0 C4.29 0.33 8.58 0.66 13 1 C9 4 9 4 5 4 C5 3.34 5 2.68 5 2 C3.02 2 1.04 2 -1 2 C-0.67 1.34 -0.34 0.68 0 0 Z " fill="#B2C0E0" transform="translate(238,270)"/>
<path d="M0 0 C1.08667969 0.01804688 2.17335938 0.03609375 3.29296875 0.0546875 C4.54013672 0.08949219 4.54013672 0.08949219 5.8125 0.125 C5.8125 1.115 5.8125 2.105 5.8125 3.125 C5.14863281 3.0528125 4.48476562 2.980625 3.80078125 2.90625 C2.91777344 2.8134375 2.03476563 2.720625 1.125 2.625 C0.25488281 2.5321875 -0.61523438 2.439375 -1.51171875 2.34375 C-4.08473339 2.13340136 -6.60734364 2.08780856 -9.1875 2.125 C-5.66070901 -0.22619399 -4.15870515 -0.08943452 0 0 Z " fill="#DDEDF8" transform="translate(80.1875,215.875)"/>
<path d="M0 0 C1.43836751 0.11458693 2.87570966 0.24209116 4.3125 0.375 C5.51326172 0.47941406 5.51326172 0.47941406 6.73828125 0.5859375 C9 1 9 1 12 3 C9.36 3.33 6.72 3.66 4 4 C3.67 3.01 3.34 2.02 3 1 C2.01 0.67 1.02 0.34 0 0 Z " fill="#6192BF" transform="translate(351,13)"/>
<path d="M0 0 C5.61 0.33 11.22 0.66 17 1 C17 1.33 17 1.66 17 2 C8.585 2.495 8.585 2.495 0 3 C0 2.01 0 1.02 0 0 Z " fill="#E1F2F9" transform="translate(193,437)"/>
<path d="M0 0 C0.99 0.495 0.99 0.495 2 1 C3.55033393 5.80603519 3.0872355 11.00819059 3 16 C2.34 16.33 1.68 16.66 1 17 C0.67 11.39 0.34 5.78 0 0 Z " fill="#21559C" transform="translate(156,236)"/>
<path d="M0 0 C4.3694206 0.25702474 6.51822991 0.60023333 9.9375 3.4375 C12 6 12 6 12 8 C11.34 8 10.68 8 10 8 C9.34 7.01 8.68 6.02 8 5 C6.6846659 4.29848848 5.34882408 3.63474075 4 3 C2.64886795 2.02418241 1.31053056 1.02970259 0 0 Z " fill="#CAD9F0" transform="translate(193,216)"/>
<path d="M0 0 C0 0.66 0 1.32 0 2 C-4.62 1.34 -9.24 0.68 -14 0 C-14 -0.33 -14 -0.66 -14 -1 C-8.58264203 -1.93402724 -5.19548425 -2.20808081 0 0 Z " fill="#E2F1FA" transform="translate(328,2)"/>
<path d="M0 0 C1.485 0.99 1.485 0.99 3 2 C3 2.99 3 3.98 3 5 C4.98 5 6.96 5 9 5 C9 5.33 9 5.66 9 6 C5.7 6 2.4 6 -1 6 C-0.67 4.02 -0.34 2.04 0 0 Z " fill="#1E5498" transform="translate(197,274)"/>
<path d="M0 0 C0.33 0.66 0.66 1.32 1 2 C1.66 2.33 2.32 2.66 3 3 C-1.43076923 6.07692308 -1.43076923 6.07692308 -4.3125 5.6875 C-4.869375 5.460625 -5.42625 5.23375 -6 5 C-4.02 3.35 -2.04 1.7 0 0 Z " fill="#AABFDD" transform="translate(259,265)"/>
<path d="M0 0 C0.66 0.33 1.32 0.66 2 1 C1.67 1.99 1.34 2.98 1 4 C-3.40914783 5.10228696 -7.48382401 5.07654536 -12 5 C-12 4.67 -12 4.34 -12 4 C-11.38511719 3.87882812 -10.77023438 3.75765625 -10.13671875 3.6328125 C-9.32847656 3.46523438 -8.52023438 3.29765625 -7.6875 3.125 C-6.88699219 2.96257812 -6.08648437 2.80015625 -5.26171875 2.6328125 C-2.74698882 2.05521001 -2.74698882 2.05521001 0 0 Z " fill="#A1BADC" transform="translate(90,264)"/>
<path d="M0 0 C0.66 0 1.32 0 2 0 C2 0.66 2 1.32 2 2 C2.99 2 3.98 2 5 2 C4.67 3.98 4.34 5.96 4 8 C1.10067643 5.60490662 0.49831724 3.68754757 0 0 Z " fill="#215296" transform="translate(201,258)"/>
<path d="M0 0 C-3.99560608 2.83022097 -7.42737323 1.76210446 -12 1 C-11 -1 -11 -1 -8.8125 -1.75 C-5.41560571 -2.05194616 -3.14413009 -1.24302818 0 0 Z " fill="#1A4A91" transform="translate(200,214)"/>
<path d="M0 0 C0.66 0 1.32 0 2 0 C2 0.99 2 1.98 2 3 C5.3 3 8.6 3 12 3 C12 3.33 12 3.66 12 4 C11.07767578 4.09087891 11.07767578 4.09087891 10.13671875 4.18359375 C9.32847656 4.26738281 8.52023437 4.35117187 7.6875 4.4375 C6.88699219 4.51871094 6.08648437 4.59992187 5.26171875 4.68359375 C2.83912821 4.95265693 2.83912821 4.95265693 0 6 C0 4.02 0 2.04 0 0 Z " fill="#5F93BE" transform="translate(279,41)"/>
<path d="M0 0 C2.64 0 5.28 0 8 0 C6.09598862 1.90401138 4.66574314 2.93520439 1.953125 3.19921875 C-0.03233273 3.1886578 -2.0169914 3.09915043 -4 3 C-2.68 2.67 -1.36 2.34 0 2 C0 1.34 0 0.68 0 0 Z " fill="#5798CC" transform="translate(276,29)"/>
<path d="M0 0 C1.50433594 0.01353516 1.50433594 0.01353516 3.0390625 0.02734375 C3.80992187 0.03894531 4.58078125 0.05054688 5.375 0.0625 C5.375 0.3925 5.375 0.7225 5.375 1.0625 C4.67632812 1.19527344 3.97765625 1.32804688 3.2578125 1.46484375 C2.34773437 1.64144531 1.43765625 1.81804687 0.5 2 C-0.40492188 2.17402344 -1.30984375 2.34804687 -2.2421875 2.52734375 C-4.62456317 2.96213701 -4.62456317 2.96213701 -6.625 4.0625 C-6.955 3.0725 -7.285 2.0825 -7.625 1.0625 C-4.98041621 -0.25979189 -2.94738699 -0.03427194 0 0 Z " fill="#4470A6" transform="translate(244.625,222.9375)"/>
<path d="M0 0 C1.4800841 0.11362262 2.95910074 0.24122908 4.4375 0.375 C5.26121094 0.44460937 6.08492188 0.51421875 6.93359375 0.5859375 C7.95646484 0.79089844 7.95646484 0.79089844 9 1 C9.33 1.66 9.66 2.32 10 3 C6.7 3 3.4 3 0 3 C0 2.01 0 1.02 0 0 Z " fill="#F2FDFD" transform="translate(86,186)"/>
<path d="M0 0 C-0.33 1.65 -0.66 3.3 -1 5 C-2.32 4.67 -3.64 4.34 -5 4 C-5 3.34 -5 2.68 -5 2 C-5.66 1.67 -6.32 1.34 -7 1 C-4.53721199 -0.231394 -2.7204945 -0.07159196 0 0 Z " fill="#D7E7F3" transform="translate(73,180)"/>
<path d="M0 0 C0.66 0.33 1.32 0.66 2 1 C2 4.3 2 7.6 2 11 C1.67 11 1.34 11 1 11 C0.566875 9.3603125 0.566875 9.3603125 0.125 7.6875 C-0.81893204 3.95986155 -0.81893204 3.95986155 -3 1 C-2.01 0.67 -1.02 0.34 0 0 Z " fill="#4478AE" transform="translate(97,178)"/>
<path d="M0 0 C0.66 0 1.32 0 2 0 C0.71480435 2.86697492 -0.57129254 4.97607712 -3 7 C-3.66 7 -4.32 7 -5 7 C-5 6.01 -5 5.02 -5 4 C-4.0409375 3.8453125 -4.0409375 3.8453125 -3.0625 3.6875 C-2.381875 3.460625 -1.70125 3.23375 -1 3 C-0.67 2.01 -0.34 1.02 0 0 Z " fill="#21559C" transform="translate(92,273)"/>
<path d="M0 0 C0.96661363 3.12180401 0.98988909 5.52083795 0.5625 8.75 C0.40974609 9.94882813 0.40974609 9.94882813 0.25390625 11.171875 C0.12822266 12.07679688 0.12822266 12.07679688 0 13 C-0.33 13 -0.66 13 -1 13 C-1.33 9.37 -1.66 5.74 -2 2 C-1.34 2 -0.68 2 0 2 C0 1.34 0 0.68 0 0 Z " fill="#ACC3E3" transform="translate(63,238)"/>
<path d="M0 0 C3.3 0 6.6 0 10 0 C10 0.66 10 1.32 10 2 C7.69 2.66 5.38 3.32 3 4 C3 3.34 3 2.68 3 2 C2.01 2 1.02 2 0 2 C0 1.34 0 0.68 0 0 Z " fill="#3369A8" transform="translate(63,177)"/>
<path d="M0 0 C1.32 0 2.64 0 4 0 C4 1.65 4 3.3 4 5 C2.68 5 1.36 5 0 5 C0 3.35 0 1.7 0 0 Z " fill="#5B9EDA" transform="translate(57,173)"/>
<path d="M0 0 C0 0.66 0 1.32 0 2 C1.65 2 3.3 2 5 2 C5 2.33 5 2.66 5 3 C3.54207116 3.05399736 2.08357288 3.09279177 0.625 3.125 C-0.18710938 3.14820313 -0.99921875 3.17140625 -1.8359375 3.1953125 C-4 3 -4 3 -6 1 C-4 0 -4 0 0 0 Z " fill="#1A5196" transform="translate(178,432)"/>
<path d="M0 0 C0.66 0.33 1.32 0.66 2 1 C2.625 3.5625 2.625 3.5625 3 6 C0.03 6 -2.94 6 -6 6 C-6 5.67 -6 5.34 -6 5 C-4.02 5 -2.04 5 0 5 C0 3.35 0 1.7 0 0 Z " fill="#9EB8E3" transform="translate(206,272)"/>
<path d="M0 0 C2.64 0 5.28 0 8 0 C6.25 4.875 6.25 4.875 4 6 C4.33 4.68 4.66 3.36 5 2 C3.35 2 1.7 2 0 2 C0 1.34 0 0.68 0 0 Z " fill="#DFE9F5" transform="translate(60,229)"/>
<path d="M0 0 C3.3 0.99 6.6 1.98 10 3 C6 5 6 5 3.375 4.25 C1 3 1 3 -1 1 C-0.67 0.67 -0.34 0.34 0 0 Z " fill="#DEF1FA" transform="translate(274,63)"/>
<path d="M0 0 C2 4 2 4 3 7 C2.0625 9.6875 2.0625 9.6875 1 12 C0.67 12 0.34 12 0 12 C0 8.04 0 4.08 0 0 Z " fill="#588EBE" transform="translate(297,52)"/>
<path d="M0 0 C0 0.99 0 1.98 0 3 C-2.97 3.66 -5.94 4.32 -9 5 C-4 0 -4 0 0 0 Z " fill="#1F5197" transform="translate(348,438)"/>
<path d="M0 0 C0 0.33 0 0.66 0 1 C-1.65 1 -3.3 1 -5 1 C-5.33 1.66 -5.66 2.32 -6 3 C-6 2.34 -6 1.68 -6 1 C-7.98 1 -9.96 1 -12 1 C-12 0.67 -12 0.34 -12 0 C-7.74433453 -1.16063604 -4.3164922 -0.76173392 0 0 Z " fill="#1D589B" transform="translate(94,345)"/>
<path d="M0 0 C-0.66 0.66 -1.32 1.32 -2 2 C-4.6015625 1.9765625 -4.6015625 1.9765625 -7.625 1.625 C-8.62789062 1.51414062 -9.63078125 1.40328125 -10.6640625 1.2890625 C-11.82035156 1.14597656 -11.82035156 1.14597656 -13 1 C-13 0.67 -13 0.34 -13 0 C-4.57142857 -1.28571429 -4.57142857 -1.28571429 0 0 Z " fill="#174C8C" transform="translate(139,278)"/>
<path d="M0 0 C2.5654594 2.5654594 2.54046087 4.47686668 3 8 C2.01 7.67 1.02 7.34 0 7 C-0.38133299 5.0085944 -0.71325582 3.00720923 -1 1 C-0.67 0.67 -0.34 0.34 0 0 Z " fill="#3F6FA6" transform="translate(262,234)"/>
<path d="M0 0 C-2.39763185 2.39763185 -3.33273498 2.34280586 -6.625 2.625 C-7.44226563 2.69976562 -8.25953125 2.77453125 -9.1015625 2.8515625 C-9.72804688 2.90054687 -10.35453125 2.94953125 -11 3 C-10 1 -10 1 -6.625 -0.1875 C-3 -1 -3 -1 0 0 Z " fill="#1D59A0" transform="translate(415,422)"/>
<path d="M0 0 C0.2475 0.61875 0.495 1.2375 0.75 1.875 C2.20628639 4.35068687 3.37812506 4.95125002 6 6 C3.69 6 1.38 6 -1 6 C-0.67 4.02 -0.34 2.04 0 0 Z " fill="#BACBE7" transform="translate(166,271)"/>
<path d="M0 0 C4.27343092 -0.36629408 6.48812804 0.59185923 10 3 C9.34 3.66 8.68 4.32 8 5 C5.36 3.68 2.72 2.36 0 1 C0 0.67 0 0.34 0 0 Z " fill="#35629E" transform="translate(84,215)"/>
<path d="M0 0 C0.33 0.66 0.66 1.32 1 2 C0.01 3.32 -0.98 4.64 -2 6 C-3.32 5.67 -4.64 5.34 -6 5 C-5.195625 4.360625 -4.39125 3.72125 -3.5625 3.0625 C-1.7249496 1.59396498 -1.7249496 1.59396498 0 0 Z " fill="#72A1C9" transform="translate(293,69)"/>
<path d="M0 0 C0.99 0 1.98 0 3 0 C2.34 1.32 1.68 2.64 1 4 C-1.31 4 -3.62 4 -6 4 C-6 3.67 -6 3.34 -6 3 C-4.35 3 -2.7 3 -1 3 C-0.67 2.01 -0.34 1.02 0 0 Z " fill="#679CC4" transform="translate(285,62)"/>
<path d="M0 0 C2.875 -0.125 2.875 -0.125 6 0 C6.66 0.66 7.32 1.32 8 2 C5.36 2.33 2.72 2.66 0 3 C0 2.01 0 1.02 0 0 Z " fill="#3282B9" transform="translate(169,17)"/>
</svg>
