<?xml version="1.0" encoding="UTF-8"?>
<svg version="1.1" xmlns="http://www.w3.org/2000/svg" width="278" height="278">
<path d="M0 0 C91.74 0 183.48 0 278 0 C278 91.74 278 183.48 278 278 C186.26 278 94.52 278 0 278 C0 186.26 0 94.52 0 0 Z " fill="#0E8CD9" transform="translate(0,0)"/>
<path d="M0 0 C0 0.33 0 0.66 0 1 C-2.64 1 -5.28 1 -8 1 C-8 91.42 -8 181.84 -8 275 C-14.74978155 273.87503641 -14.74978155 273.87503641 -18.28271484 272.51293945 C-19.07149017 272.2120491 -19.8602655 271.91115875 -20.67294312 271.60115051 C-21.51048126 271.27515366 -22.34801941 270.9491568 -23.2109375 270.61328125 C-24.09673492 270.27378952 -24.98253235 269.93429779 -25.89517212 269.58451843 C-28.72384824 268.49913447 -31.54947479 267.40605697 -34.375 266.3125 C-37.16547082 265.23855029 -39.95655219 264.16619964 -42.74771118 263.09403992 C-44.47821953 262.42864469 -46.20823297 261.76195991 -47.93759155 261.09358215 C-55.93821682 258.00517952 -63.96841857 255.01184304 -72 252 C-72 176.43 -72 100.86 -72 23 C-8.53338435 -0.97627702 -8.53338435 -0.97627702 0 0 Z " fill="#0C588D" transform="translate(86,2)"/>
<path d="M0 0 C91.74 0 183.48 0 278 0 C278 91.74 278 183.48 278 278 C212.66 278 147.32 278 80 278 C80 277.67 80 277.34 80 277 C114.40982642 273.33388779 148.82056274 269.67869968 183.24414062 266.14355469 C194.78517215 264.95768173 206.32406281 263.75599995 217.859375 262.515625 C221.15244614 262.16386927 224.44556805 261.81259301 227.7387085 261.46148682 C229.79449832 261.24092499 231.85005162 261.01814476 233.90533447 260.79290771 C236.72537797 260.48390777 239.54615472 260.18262592 242.3671875 259.8828125 C243.17081726 259.7925177 243.97444702 259.7022229 244.8024292 259.60919189 C251.30317082 258.93012084 257.35357115 259 264 259 C264 197.29 264 135.58 264 72 C259.38 72 254.76 72 250 72 C247.5736088 71.89049057 245.14784013 71.75428437 242.7265625 71.5625 C241.13448975 71.44068359 241.13448975 71.44068359 239.51025391 71.31640625 C238.22812012 71.21199219 236.94598633 71.10757813 235.625 71 C229.375625 70.505 229.375625 70.505 223 70 C223 52.18 223 34.36 223 16 C217.39 15.67 211.78 15.34 206 15 C203.10775151 14.76203302 200.21675006 14.50648118 197.3293457 14.21557617 C196.24675224 14.10795204 196.24675224 14.10795204 195.14228821 13.99815369 C192.81977083 13.76642172 190.49778351 13.52980147 188.17578125 13.29296875 C186.4975205 13.12433932 184.81923094 12.9559965 183.14091492 12.78791809 C179.63547501 12.43615957 176.13026977 12.08218083 172.62524414 11.72631836 C168.25982018 11.28310119 163.89404065 10.8435293 159.52809334 10.40550041 C155.22302686 9.97343699 150.91814402 9.53955646 146.61328125 9.10546875 C145.7628336 9.01981533 144.91238594 8.93416191 144.03616714 8.84591293 C134.48784746 7.88285976 124.94341861 6.89218692 115.40380859 5.84619141 C113.67710951 5.65845363 111.95039966 5.47081485 110.22367859 5.28327942 C106.99897721 4.93297526 103.7754392 4.57383401 100.55232239 4.20927429 C85.99157017 2.59272907 74.73254701 2.34152476 60.89453125 7.8125 C59.59585925 8.30771995 58.29641844 8.80092793 56.9962616 9.29223633 C53.6147048 10.57563277 50.24331067 11.883773 46.8737793 13.19836426 C42.7547198 14.80027493 38.62477447 16.3738612 34.49577618 17.94993591 C31.29020217 19.17383354 28.08669711 20.40236416 24.8886261 21.64575195 C23.74951279 22.0862085 22.61039948 22.52666504 21.43676758 22.98046875 C20.4322908 23.37129639 19.42781403 23.76212402 18.39289856 24.16479492 C16 25 16 25 14 25 C14 100.57 14 176.14 14 254 C17.63 254.99 21.26 255.98 25 257 C27.21690846 257.75494556 29.42283815 258.54395464 31.609375 259.3828125 C32.76606689 259.82391357 33.92275879 260.26501465 35.11450195 260.71948242 C36.91407349 261.41521362 36.91407349 261.41521362 38.75 262.125 C40.01572571 262.61015626 41.28159698 263.09493293 42.54760742 263.5793457 C54.05582978 267.99055268 65.53581832 272.47569113 77 277 C77 277.33 77 277.66 77 278 C51.59 278 26.18 278 0 278 C0 186.26 0 94.52 0 0 Z " fill="#FAFCFD" transform="translate(0,0)"/>
<path d="M0 0 C1.82649078 0.17680298 1.82649078 0.17680298 3.68988037 0.35717773 C4.99974915 0.49325439 6.30961792 0.62933105 7.65917969 0.76953125 C9.06798555 0.90962762 10.47686222 1.0490135 11.88580322 1.18774414 C15.67036701 1.56305579 19.45363737 1.9501034 23.23666382 2.34057617 C25.5736729 2.58127098 27.91092941 2.81939526 30.24829102 3.05664062 C40.78101329 4.12616516 51.3111452 5.2196693 61.84051514 6.32165527 C65.16808126 6.66953904 68.49580765 7.01587522 71.82353973 7.36216736 C91.41316873 9.40087522 110.99879504 11.47357799 130.58105469 13.58203125 C130.58105469 31.07203125 130.58105469 48.56203125 130.58105469 66.58203125 C115.95568687 66.58203125 115.95568687 66.58203125 110.203125 66.24658203 C108.90916809 66.17295441 107.61521118 66.09932678 106.28204346 66.02346802 C104.90775038 65.94151296 103.5334626 65.85946899 102.15917969 65.77734375 C100.68741638 65.69214074 99.21563444 65.60725895 97.74383545 65.52267456 C93.88322318 65.29989871 90.02288978 65.07260746 86.16259766 64.84436035 C82.35173066 64.61989829 78.54059634 64.40007904 74.72949219 64.1796875 C62.78741283 63.48704682 50.84564844 62.79148541 38.90722656 62.03808594 C36.77923043 61.90499221 34.65122344 61.77207314 32.52321625 61.63915634 C30.62983231 61.51972364 28.73668933 61.39648817 26.84356689 61.27297974 C13.75580343 60.45354345 0.70244901 60.06800882 -12.41894531 59.58203125 C-12.74894531 129.54203125 -13.07894531 199.50203125 -13.41894531 271.58203125 C-13.74894531 271.58203125 -14.07894531 271.58203125 -14.41894531 271.58203125 C-14.41894531 182.15203125 -14.41894531 92.72203125 -14.41894531 0.58203125 C-8.89463391 -0.10850768 -5.26253833 -0.52751317 0 0 Z " fill="#0C82D0" transform="translate(92.4189453125,2.41796875)"/>
<path d="M0 0 C-0.33 16.83 -0.66 33.66 -1 51 C2.3 50.34 5.6 49.68 9 49 C9 44.38 9 39.76 9 35 C11.97 34.505 11.97 34.505 15 34 C15 38.62 15 43.24 15 48 C13.35 48.66 11.7 49.32 10 50 C9.67 58.25 9.34 66.5 9 75 C4.05 75.495 4.05 75.495 -1 76 C-1 68.08 -1 60.16 -1 52 C-7.6 53.32 -14.2 54.64 -21 56 C-21 39.5 -21 23 -21 6 C-3 -1 -3 -1 0 0 Z " fill="#1772A1" transform="translate(35,19)"/>
<path d="M0 0 C3.27220258 2.63198903 5.41885581 5.12619675 7 9 C7.32251079 14.91269776 5.87358665 19.46236992 2 24 C-0.96585996 26.33031854 -4.23622643 26.47119441 -7.96484375 26.39453125 C-11.61727597 25.68647817 -13.43783808 23.62465368 -16 21 C-17.97449669 17.05100663 -17.43770498 12.30409896 -17 8 C-13.41987767 0.5745611 -8.13607189 -2.71751389 0 0 Z " fill="#BCDFF0" transform="translate(147,173)"/>
<path d="M0 0 C5.94 0.66 11.88 1.32 18 2 C18 3.32 18 4.64 18 6 C15.36 5.67 12.72 5.34 10 5 C10.33 6.32 10.66 7.64 11 9 C11.763125 8.9175 12.52625 8.835 13.3125 8.75 C16 9 16 9 17.8125 10.5 C19.57678933 14.21429332 19.32591105 16.89352076 19 21 C18.34 21.99 17.68 22.98 17 24 C14.43359375 24.2578125 14.43359375 24.2578125 11.4375 24.125 C9.62589916 24.05432637 7.81296952 24.00582013 6 24 C5.67 24.33 5.34 24.66 5 25 C2.5625 25.1875 2.5625 25.1875 0 25 C-3.36253482 21.63746518 -2.76380074 17.22561636 -3.046875 12.64453125 C-2.98465924 7.80725559 -1.9039792 4.41723175 0 0 Z " fill="#D9F3FA" transform="translate(235,32)"/>
<path d="M0 0 C3.57630089 0.74080518 5.0796311 2.57875832 7.1875 5.453125 C9.40738869 9.57577543 9.1875 11.40920217 9.1875 16.453125 C3.9075 16.783125 -1.3725 17.113125 -6.8125 17.453125 C-6.4825 18.113125 -6.1525 18.773125 -5.8125 19.453125 C-0.72946314 19.56633356 -0.72946314 19.56633356 4.1875 18.453125 C5.1775 19.113125 6.1675 19.773125 7.1875 20.453125 C5.81766497 23.61428276 5.1984362 24.4458342 2.1875 26.453125 C-2.28458083 27.17334776 -5.79919453 27.03523665 -9.75 24.765625 C-12.8971262 21.23702896 -13.6983344 18.70894656 -14.125 14.015625 C-13.69395508 9.10171292 -11.92987838 6.08621647 -9.1875 2.078125 C-6.05391833 -0.06590456 -3.7432274 -0.17238547 0 0 Z " fill="#E3F8FC" transform="translate(169.8125,135.546875)"/>
<path d="M0 0 C3.96 0 7.92 0 12 0 C12 61.71 12 123.42 12 187 C-11.1 189.31 -34.2 191.62 -58 194 C-80.01381289 196.30719764 -80.01381289 196.30719764 -102.0234375 198.65209961 C-105.38052443 198.94580349 -108.63398067 199.07246292 -112 199 C-104.82411014 195.13730253 -96.94410858 194.85663238 -88.93823242 194.46459961 C-81.35366686 194.0488762 -73.85138931 193.04434413 -66.31933594 192.08837891 C-58.61816891 191.13365966 -50.98451811 190.56119358 -43.23046875 190.30859375 C-40.12517299 190.01195727 -38.69775824 189.37081211 -36 188 C-33.16015625 187.83984375 -33.16015625 187.83984375 -30.0625 187.9375 C-25.80798451 188.06186391 -25.80798451 188.06186391 -21.609375 187.5078125 C-18.13193783 186.83106574 -14.71325066 186.89363899 -11.1875 186.9375 C-10.49462891 186.94201172 -9.80175781 186.94652344 -9.08789062 186.95117188 C-7.39188932 186.96286844 -5.69593297 186.98080076 -4 187 C-4 186.34 -4 185.68 -4 185 C0.95 185 5.9 185 11 185 C11 124.28 11 63.56 11 1 C7.37 1 3.74 1 0 1 C0 0.67 0 0.34 0 0 Z " fill="#1A79B5" transform="translate(252,72)"/>
<path d="M0 0 C1.43739513 -0.02712066 2.87493863 -0.04645067 4.3125 -0.0625 C5.51326172 -0.07990234 5.51326172 -0.07990234 6.73828125 -0.09765625 C9 0 9 0 12 1 C11.67 1.66 11.34 2.32 11 3 C9.80375 2.7525 8.6075 2.505 7.375 2.25 C3.83112485 1.80387387 3.01551306 1.99224347 -0.375 3.6875 C-3.59962709 6.52824292 -4.83637994 8.36379939 -5.265625 12.65625 C-5.26046875 13.5946875 -5.2553125 14.533125 -5.25 15.5 C-5.25515625 16.4384375 -5.2603125 17.376875 -5.265625 18.34375 C-4.99595232 21.04047676 -4.3732259 22.68949293 -3 25 C-3.928125 25.268125 -4.85625 25.53625 -5.8125 25.8125 C-8.94424055 26.72769901 -8.94424055 26.72769901 -10.5625 28.5625 C-12.59131664 30.59131664 -14.17435037 30.79324515 -17 31 C-19.16015625 30.01171875 -19.16015625 30.01171875 -21 29 C-20.37351562 28.87882812 -19.74703125 28.75765625 -19.1015625 28.6328125 C-18.28429687 28.46523437 -17.46703125 28.29765625 -16.625 28.125 C-15.40683594 27.88136719 -15.40683594 27.88136719 -14.1640625 27.6328125 C-11.81326077 27.13341068 -11.81326077 27.13341068 -10 25 C-10.33 24.01 -10.66 23.02 -11 22 C-11.515625 22.495 -12.03125 22.99 -12.5625 23.5 C-15.9238388 25.56851618 -18.11959911 25.48505011 -22 25 C-24.36497439 23.13291495 -25.66030715 21.67938569 -27 19 C-27.4136968 14.34591099 -26.81070393 11.74760524 -24 8 C-20.49337515 5.6622501 -19.12370255 5.6701038 -15 6 C-12.125 7 -12.125 7 -10 8 C-10.4640625 7.071875 -10.4640625 7.071875 -10.9375 6.125 C-11.625 4.75 -12.3125 3.375 -13 2 C-11.35 1.67 -9.7 1.34 -8 1 C-8.33 2.32 -8.66 3.64 -9 5 C-7.35 4.67 -5.7 4.34 -4 4 C-4 3.34 -4 2.68 -4 2 C-2.68 2 -1.36 2 0 2 C0 1.34 0 0.68 0 0 Z " fill="#0E82CD" transform="translate(136,171)"/>
<path d="M0 0 C3.33333333 0 6.66666667 0 10 0 C11.299375 -0.061875 12.59875 -0.12375 13.9375 -0.1875 C16.76628552 -0.1875 17.88250629 -0.06326584 20.4375 1.3125 C23.15626727 4.24876865 23.12074479 7.07710943 23.09765625 10.88671875 C23.09443359 11.82451172 23.09121094 12.76230469 23.08789062 13.72851562 C23.07951172 14.70498047 23.07113281 15.68144531 23.0625 16.6875 C23.05798828 17.67556641 23.05347656 18.66363281 23.04882812 19.68164062 C23.03704303 22.12115474 23.02059011 24.56054689 23 27 C21.02 27 19.04 27 17 27 C16.97494385 26.42967041 16.9498877 25.85934082 16.92407227 25.27172852 C16.80843451 22.70173843 16.68556376 20.13214473 16.5625 17.5625 C16.52318359 16.66466797 16.48386719 15.76683594 16.44335938 14.84179688 C16.40146484 13.98779297 16.35957031 13.13378906 16.31640625 12.25390625 C16.27974854 11.46314697 16.24309082 10.6723877 16.20532227 9.85766602 C16.19436743 7.98598559 16.19436743 7.98598559 15 7 C13.00041636 6.95919217 10.99954746 6.95745644 9 7 C7.88176185 9.23647631 7.80603939 10.64891529 7.68359375 13.1328125 C7.64169922 13.93847656 7.59980469 14.74414062 7.55664062 15.57421875 C7.49766602 16.83685547 7.49766602 16.83685547 7.4375 18.125 C7.37272461 19.39923828 7.37272461 19.39923828 7.30664062 20.69921875 C7.20045764 22.79928223 7.09971503 24.89961948 7 27 C4.69 27 2.38 27 0 27 C0 18.09 0 9.18 0 0 Z " fill="#F0FAFC" transform="translate(118,136)"/>
<path d="M0 0 C3.64468151 2.07912513 6.76308164 4.91816941 8 9 C8 10.98 8 12.96 8 15 C1.73 15 -4.54 15 -11 15 C-9.02 17.97 -9.02 17.97 -7 21 C-3.41499591 21.66707548 -3.41499591 21.66707548 0 21 C0.66 20.34 1.32 19.68 2 19 C4.125 19.375 4.125 19.375 6 20 C5.06896676 22.32758311 4.34617872 23.74357132 2.3125 25.25 C-1.51761854 26.49220061 -5.28330597 26.65628793 -9.07421875 25.20703125 C-12.52820614 23.04215883 -13.8354314 19.81249833 -15 16 C-15.33348161 11.33125741 -14.64669941 8.01316241 -12.125 4.0625 C-8.07533422 0.13194204 -5.59462308 -0.66376884 0 0 Z " fill="#C5EDF9" transform="translate(193,171)"/>
<path d="M0 0 C13.32210526 -0.49341131 13.32210526 -0.49341131 16.42578125 1.765625 C18.54252131 4.77003024 18.50583152 6.53497221 18.33984375 10.09375 C17.88274864 12.65768577 16.82509684 14.17490316 15 16 C16.32 18.97 17.64 21.94 19 25 C16.6875 24.875 16.6875 24.875 14 24 C11 19.13793103 11 19.13793103 11 16 C8.69 16 6.38 16 4 16 C4 19.3 4 22.6 4 26 C2.68 26 1.36 26 0 26 C0 17.42 0 8.84 0 0 Z " fill="#AAE5FD" transform="translate(157,172)"/>
<path d="M0 0 C6.373125 0.2165625 6.373125 0.2165625 12.875 0.4375 C14.2141748 0.48060303 15.55334961 0.52370605 16.93310547 0.56811523 C18.50922607 0.6252771 18.50922607 0.6252771 20.1171875 0.68359375 C21.19597168 0.72025146 22.27475586 0.75690918 23.38623047 0.79467773 C26 1 26 1 28 2 C29.87056791 2.2275015 31.74685958 2.40962811 33.625 2.5625 C34.62789063 2.64628906 35.63078125 2.73007813 36.6640625 2.81640625 C37.43492187 2.87699219 38.20578125 2.93757813 39 3 C39 5.97 39 8.94 39 12 C37.02 12.99 37.02 12.99 35 14 C34.9175 13.38125 34.835 12.7625 34.75 12.125 C34.18072985 9.85567174 34.18072985 9.85567174 32.125 8.6875 C29.85168354 7.72005152 29.85168354 7.72005152 27 9 C27 10.98 27 12.96 27 15 C26.01 15 25.02 15 24 15 C24.33 13.35 24.66 11.7 25 10 C24.34 10 23.68 10 23 10 C23 11.32 23 12.64 23 14 C19.78548731 15.60725635 16.56387464 15.05748185 13 15 C13.66 14.67 14.32 14.34 15 14 C15.65213292 11.97536745 15.65213292 11.97536745 16 10 C16 11.32 16 12.64 16 14 C16.66 14 17.32 14 18 14 C18 13.01 18 12.02 18 11 C18 10.34 18 9.68 18 9 C16.02 9 14.04 9 12 9 C11.67 9.66 11.34 10.32 11 11 C11 10.34 11 9.68 11 9 C10.34 9 9.68 9 9 9 C8.67 9.66 8.34 10.32 8 11 C8 10.01 8 9.02 8 8 C7.34 8 6.68 8 6 8 C6 5.69 6 3.38 6 1 C4.35 1.33 2.7 1.66 1 2 C1 15.2 1 28.4 1 42 C0.67 42 0.34 42 0 42 C0 28.14 0 14.28 0 0 Z " fill="#1180C9" transform="translate(224,70)"/>
<path d="M0 0 C1.45823212 -0.0270043 2.91660675 -0.04639787 4.375 -0.0625 C5.18710938 -0.07410156 5.99921875 -0.08570313 6.8359375 -0.09765625 C9 0 9 0 11 1 C11 9.91 11 18.82 11 28 C13.31 28 15.62 28 18 28 C18 28.33 18 28.66 18 29 C12.34429288 29.82264831 6.72120437 30.42564759 1 30 C0 29 0 29 -0.11352539 26.22436523 C-0.10828857 25.01466064 -0.10305176 23.80495605 -0.09765625 22.55859375 C-0.09443359 21.25341797 -0.09121094 19.94824219 -0.08789062 18.60351562 C-0.07953401 17.2148431 -0.07106905 15.82617123 -0.0625 14.4375 C-0.05748666 13.04492344 -0.05292347 11.65234519 -0.04882812 10.25976562 C-0.03699434 6.8398013 -0.0205088 3.41992156 0 0 Z " fill="#2482BD" transform="translate(107,135)"/>
<path d="M0 0 C2.31 0 4.62 0 7 0 C7 3.3 7 6.6 7 10 C8.32 10 9.64 10 11 10 C11 11.98 11 13.96 11 16 C9.35 16 7.7 16 6 16 C6.05991406 17.95918968 6.14867138 19.91751529 6.25 21.875 C6.29640625 22.96554688 6.3428125 24.05609375 6.390625 25.1796875 C6.68846128 28.1332065 6.68846128 28.1332065 9.046875 29.3828125 C9.69140625 29.58648437 10.3359375 29.79015625 11 30 C11 32.31 11 34.62 11 37 C4.59340659 36.3956044 4.59340659 36.3956044 2.125 34.75 C-0.44329951 30.75486743 -0.11865969 25.98647125 -0.09765625 21.38671875 C-0.09443359 20.13955078 -0.09121094 18.89238281 -0.08789062 17.60742188 C-0.07532227 15.66706055 -0.07532227 15.66706055 -0.0625 13.6875 C-0.05798828 12.37458984 -0.05347656 11.06167969 -0.04882812 9.70898438 C-0.03705949 6.4726099 -0.0206176 3.23632822 0 0 Z " fill="#F4FDFD" transform="translate(144,126)"/>
<path d="M0 0 C3.66496327 1.43411606 4.93945324 2.70057111 6.875 6.125 C7.56938972 10.36849271 7.28768665 13.08740352 4.8125 16.5625 C1.875 19.125 1.875 19.125 -1.6875 19.75 C-5.125 19.125 -5.125 19.125 -7.5625 17.75 C-10.00234781 13.65105567 -10.11116711 9.75699701 -9.125 5.125 C-6.86548535 1.56549062 -4.25620371 0.17024815 0 0 Z " fill="#1182CA" transform="translate(143.125,175.875)"/>
<path d="M0 0 C1.98 0 3.96 0 6 0 C6 12.54 6 25.08 6 38 C4.02 38 2.04 38 0 38 C0 25.46 0 12.92 0 0 Z " fill="#C2F0FD" transform="translate(181,124)"/>
<path d="M0 0 C2.9375 1.25 2.9375 1.25 5 3 C5 4.32 5 5.64 5 7 C4.29875 6.67 3.5975 6.34 2.875 6 C-0.382056 4.86711096 -2.57697562 4.56301816 -6 5 C-8.30275556 6.8670991 -9.67823871 8.35647741 -11 11 C-11.28143104 15.22146566 -10.80098121 18.17291493 -9 22 C-3.49633208 22.32374517 0.43672206 22.53286034 5 19 C5.33 20.32 5.66 21.64 6 23 C2.92808524 26.27670908 0.45173854 27.38958788 -3.9375 27.6875 C-6.96961844 27.5788868 -8.50953182 27.37031332 -10.9453125 25.53125 C-14.23872013 21.77644709 -15.83467272 18.75246916 -16.3125 13.6875 C-15.84900638 8.21827526 -13.42864516 5.46725719 -9.6875 1.625 C-6.1711236 -0.50118108 -4.05002755 -0.50625344 0 0 Z " fill="#DBF6FC" transform="translate(121,173)"/>
<path d="M0 0 C13.68714983 -0.25386353 27.28108025 0.05331566 40.9375 0.9375 C41.97948044 1.00284943 41.97948044 1.00284943 43.04251099 1.06951904 C54.81889181 1.81889181 54.81889181 1.81889181 56 3 C56.10150418 5.60137973 56.13965616 8.17551099 56.1328125 10.77734375 C56.13376923 11.57668839 56.13472595 12.37603302 56.13571167 13.19960022 C56.1363948 14.90707477 56.13453136 16.61455187 56.13037109 18.32202148 C56.12514326 20.86774004 56.13024808 23.41327226 56.13671875 25.95898438 C56.14075712 37.00434246 55.73087289 47.97946903 55 59 C54.67 59 54.34 59 54 59 C52.89373853 47.19405746 52.88392546 35.47113589 52.9375 23.625 C52.9684375 13.910625 52.9684375 13.910625 53 4 C26.765 2.515 26.765 2.515 0 1 C0 0.67 0 0.34 0 0 Z " fill="#3BBCF2" transform="translate(168,67)"/>
<path d="M0 0 C0 4.62 0 9.24 0 14 C-1.65 14.66 -3.3 15.32 -5 16 C-5.33 18.97 -5.66 21.94 -6 25 C-7.32 25 -8.64 25 -10 25 C-10 25.66 -10 26.32 -10 27 C-9.34 27 -8.68 27 -8 27 C-8 29.31 -8 31.62 -8 34 C-9.485 34.495 -9.485 34.495 -11 35 C-11 34.34 -11 33.68 -11 33 C-10.34 33 -9.68 33 -9 33 C-9.495 31.515 -9.495 31.515 -10 30 C-10.66 30 -11.32 30 -12 30 C-12 31.65 -12 33.3 -12 35 C-12.33 35 -12.66 35 -13 35 C-13 31.04 -13 27.08 -13 23 C-13.66 23 -14.32 23 -15 23 C-15 21.02 -15 19.04 -15 17 C-12.03 16.34 -9.06 15.68 -6 15 C-6 10.38 -6 5.76 -6 1 C-3 0 -3 0 0 0 Z " fill="#2E7BA5" transform="translate(50,53)"/>
<path d="M0 0 C-3.00070057 3.00070057 -6.46733711 2.42675355 -10.5 2.5625 C-15.91548653 2.53488889 -15.91548653 2.53488889 -21 4 C-23.81594854 4.20794697 -26.61785111 4.37426834 -29.4375 4.5 C-35.30264963 4.70132605 -35.30264963 4.70132605 -41 6 C-44.45722763 6.258753 -47.90856444 6.44288042 -51.37109375 6.60546875 C-54.98793121 6.47120355 -54.98793121 6.47120355 -58 8 C-60.39939114 8.1863892 -62.78434082 8.33043983 -65.1875 8.4375 C-70.61520624 8.6720942 -70.61520624 8.6720942 -75.83374023 10.01147461 C-79.24025347 11.07500858 -81.93298699 11.22920965 -85.4921875 11.1953125 C-87.29042969 11.18564453 -87.29042969 11.18564453 -89.125 11.17578125 C-90.3625 11.15902344 -91.6 11.14226562 -92.875 11.125 C-94.13570312 11.11597656 -95.39640625 11.10695313 -96.6953125 11.09765625 C-99.7970704 11.07415808 -102.89843652 11.04130334 -106 11 C-106 10.67 -106 10.34 -106 10 C-105.2353241 9.9189653 -104.47064819 9.8379306 -103.68280029 9.75444031 C-96.33343206 8.97557924 -88.98408074 8.19655879 -81.63474655 7.41737652 C-77.12737829 6.93950797 -72.61999801 6.46175318 -68.11260223 5.98414421 C-66.65164241 5.82929981 -65.19068965 5.67438872 -63.72974396 5.51941109 C-60.08422517 5.13269404 -56.43862697 4.74676275 -52.79284668 4.36251831 C-45.85987885 3.63061355 -38.92923416 2.88418231 -32.00195312 2.10009766 C-30.74618469 1.95981644 -29.49041626 1.81953522 -28.19659424 1.67500305 C-25.87789844 1.41517888 -23.55975696 1.1503291 -21.24237061 0.8790741 C-14.1328823 0.08788646 -7.1514573 -0.14622664 0 0 Z " fill="#CDEFF9" transform="translate(186,267)"/>
<path d="M0 0 C2.64 0 5.28 0 8 0 C8.02505615 0.65597168 8.0501123 1.31194336 8.07592773 1.98779297 C8.1917326 4.95040183 8.31452886 7.91268031 8.4375 10.875 C8.47681641 11.90753906 8.51613281 12.94007812 8.55664062 14.00390625 C8.61948242 15.48310547 8.61948242 15.48310547 8.68359375 16.9921875 C8.72025146 17.90339355 8.75690918 18.81459961 8.79467773 19.75341797 C8.86577065 22.03483481 8.86577065 22.03483481 10 24 C10.07066599 26.99005469 9.99693034 29.96694229 9.9375 32.95703125 C9.99547198 35.77954223 10.35172815 38.26003853 11 41 C10.67 41 10.34 41 10 41 C10 44.96 10 48.92 10 53 C12.64 53 15.28 53 18 53 C18.33 52.01 18.66 51.02 19 50 C19.36480469 50.49371094 19.72960937 50.98742187 20.10546875 51.49609375 C22.8487839 53.67377691 24.86448198 53.22555506 28.3125 53.0625 C33.04538826 52.8481183 36.60840323 53.12530064 41 55 C41.33 55.66 41.66 56.32 42 57 C37.85395998 56.85970858 33.70822624 56.71175506 29.5625 56.5625 C27.81549805 56.50352539 27.81549805 56.50352539 26.03320312 56.44335938 C24.31713867 56.38051758 24.31713867 56.38051758 22.56640625 56.31640625 C21.52427979 56.27974854 20.48215332 56.24309082 19.40844727 56.20532227 C15.2603498 55.95544404 11.13020003 55.45891111 7 55 C7 37.18 7 19.36 7 1 C4.69 1 2.38 1 0 1 C0 0.67 0 0.34 0 0 Z " fill="#CCEFF9" transform="translate(216,15)"/>
<path d="M0 0 C3.63 0.33 7.26 0.66 11 1 C11 2.32 11 3.64 11 5 C8.36 4.67 5.72 4.34 3 4 C3.33 5.32 3.66 6.64 4 8 C5.1446875 7.87625 5.1446875 7.87625 6.3125 7.75 C9 8 9 8 10.8125 9.5 C12.57678933 13.21429332 12.32591105 15.89352076 12 20 C11.34 20.99 10.68 21.98 10 23 C6.18115682 23.42431591 3.87594552 23.5390434 0.5625 21.5 C0.046875 21.005 -0.46875 20.51 -1 20 C-0.505 18.515 -0.505 18.515 0 17 C2.64 17.66 5.28 18.32 8 19 C8 17.02 8 15.04 8 13 C4.63458162 11.91825838 3.70152678 12.07461831 0 13 C0 8.71 0 4.42 0 0 Z " fill="#2682BD" transform="translate(242,33)"/>
<path d="M0 0 C2.45898655 -0.08076963 4.91533742 -0.14037143 7.375 -0.1875 C8.07367188 -0.21263672 8.77234375 -0.23777344 9.4921875 -0.26367188 C11.5234375 -0.29296875 11.5234375 -0.29296875 15 0 C17.45416273 3.6812441 17.59384154 6.72261963 17 11 C15.5 13.5 15.5 13.5 14 15 C15.32 17.97 16.64 20.94 18 24 C15.6875 23.875 15.6875 23.875 13 23 C10 18.13793103 10 18.13793103 10 15 C7.69 15 5.38 15 3 15 C3.33 14.01 3.66 13.02 4 12 C6.06640625 11.05078125 6.06640625 11.05078125 8.5625 10.3125 C9.38878906 10.06113281 10.21507812 9.80976563 11.06640625 9.55078125 C11.70449219 9.36902344 12.34257812 9.18726563 13 9 C12.67 7.35 12.34 5.7 12 4 C8.7 3.67 5.4 3.34 2 3 C2 4.98 2 6.96 2 9 C1.01 9.495 1.01 9.495 0 10 C0 6.7 0 3.4 0 0 Z " fill="#E5FAFD" transform="translate(158,173)"/>
<path d="M0 0 C1.98 0 3.96 0 6 0 C6 8.91 6 17.82 6 27 C4.02 27 2.04 27 0 27 C0 18.09 0 9.18 0 0 Z " fill="#B9D3E3" transform="translate(109,136)"/>
<path d="M0 0 C2.02075566 -0.02734857 4.04162221 -0.0465517 6.0625 -0.0625 C7.18785156 -0.07410156 8.31320313 -0.08570313 9.47265625 -0.09765625 C13 0 13 0 20 1 C20 18.49 20 35.98 20 54 C15.71 54 11.42 54 7 54 C7.66 53.34 8.32 52.68 9 52 C11.97 52 14.94 52 18 52 C17.67 35.83 17.34 19.66 17 3 C11.72 2.67 6.44 2.34 1 2 C0.67 1.34 0.34 0.68 0 0 Z " fill="#177DB7" transform="translate(203,15)"/>
<path d="M0 0 C0 0.99 0 1.98 0 3 C-6.04829486 3.89604368 -11.8894576 4.11269443 -18 4 C-16.49540371 7.13384514 -16.49540371 7.13384514 -14 10 C-10.41499591 10.66707548 -10.41499591 10.66707548 -7 10 C-6.34 9.34 -5.68 8.68 -5 8 C-2.875 8.375 -2.875 8.375 -1 9 C-1.93103324 11.32758311 -2.65382128 12.74357132 -4.6875 14.25 C-8.59790118 15.51823822 -12.31963575 15.51344463 -16.25 14.3125 C-18.68910086 12.48317435 -19.73896101 10.77428577 -21 8 C-21.25 4.75 -21.25 4.75 -21 2 C-18.77824943 -0.22175057 -14.0696899 0.20221913 -11.0625 -0.125 C-10.22525391 -0.22425781 -9.38800781 -0.32351562 -8.52539062 -0.42578125 C-7.72423828 -0.51472656 -6.92308594 -0.60367188 -6.09765625 -0.6953125 C-5.36039307 -0.77797363 -4.62312988 -0.86063477 -3.86352539 -0.94580078 C-2 -1 -2 -1 0 0 Z " fill="#D4F8FE" transform="translate(200,182)"/>
<path d="M0 0 C2 3 2 3 1.625 6.1875 C1.41875 7.115625 1.2125 8.04375 1 9 C0.01 9 -0.98 9 -2 9 C-3.72325064 12.75934948 -4.27710336 15.79869412 -4.37890625 19.921875 C-4.41306641 21.02917969 -4.44722656 22.13648438 -4.48242188 23.27734375 C-4.52206055 24.99630859 -4.52206055 24.99630859 -4.5625 26.75 C-4.62213864 29.03657072 -4.68571741 31.32304329 -4.75390625 33.609375 C-4.77783447 34.61967773 -4.8017627 35.62998047 -4.82641602 36.67089844 C-5 39 -5 39 -6 40 C-7.99958364 40.04080783 -10.00045254 40.04254356 -12 40 C-12 39.67 -12 39.34 -12 39 C-10.35 39 -8.7 39 -7 39 C-7 26.13 -7 13.26 -7 0 C-3.86559131 -1.0448029 -2.97903963 -1.15317663 0 0 Z " fill="#2C92C9" transform="translate(194,123)"/>
<path d="M0 0 C0.9075 0.350625 1.815 0.70125 2.75 1.0625 C5.98006474 1.99424944 6.95065605 1.98014627 10 1 C10.66 1.33 11.32 1.66 12 2 C12.33 2.99 12.66 3.98 13 5 C7.61526763 5.97904225 2.45860738 6 -3 6 C-3 6.66 -3 7.32 -3 8 C-7.59671159 8.901316 -10.89362363 9.53629129 -15 7 C-15.9375 5 -15.9375 5 -16 3 C-15.34 2.34 -14.68 1.68 -14 1 C-10.7421875 1.0234375 -10.7421875 1.0234375 -6.875 1.375 C-5.59367187 1.48585937 -4.31234375 1.59671875 -2.9921875 1.7109375 C-2.00476563 1.80632812 -1.01734375 1.90171875 0 2 C0 1.34 0 0.68 0 0 Z " fill="#6EBCE6" transform="translate(133,235)"/>
<path d="M0 0 C3.34761851 2.44285675 4.86964805 5.04376819 6 9 C6 10.98 6 12.96 6 15 C0.39 15 -5.22 15 -11 15 C-11 14.67 -11 14.34 -11 14 C-6.05 13.67 -1.1 13.34 4 13 C3.34 9.7 2.68 6.4 2 3 C0.68 3.33 -0.64 3.66 -2 4 C-1.34 5.98 -0.68 7.96 0 10 C-3.63 10 -7.26 10 -11 10 C-10.34 8.02 -9.68 6.04 -9 4 C-9.66 4 -10.32 4 -11 4 C-11 3.34 -11 2.68 -11 2 C-7.35042135 -0.33573034 -4.26089509 -0.45652447 0 0 Z " fill="#CEEEF7" transform="translate(173,137)"/>
<path d="M0 0 C-0.03480469 0.72445312 -0.06960937 1.44890625 -0.10546875 2.1953125 C-0.26809641 8.00344326 -0.13017724 11.91346199 3 17 C3 17.66 3 18.32 3 19 C7.67482292 20.49594333 12.35601989 20.54799337 17 19 C16.34 20.32 15.68 21.64 15 23 C13.39504433 22.88557539 11.79101881 22.75805306 10.1875 22.625 C9.29417969 22.55539063 8.40085938 22.48578125 7.48046875 22.4140625 C5 22 5 22 2 20 C2 19.34 2 18.68 2 18 C1.01 18 0.02 18 -1 18 C-1.66 19.32 -2.32 20.64 -3 22 C-4.65 18.37 -6.3 14.74 -8 11 C-7.01 10.01 -6.02 9.02 -5 8 C-4.63858045 5.67085177 -4.30300475 3.33746522 -4 1 C-2 0 -2 0 0 0 Z " fill="#1B87C7" transform="translate(179,176)"/>
<path d="M0 0 C0 0.66 0 1.32 0 2 C0.56509277 1.99476318 1.13018555 1.98952637 1.71240234 1.98413086 C4.2665903 1.96337578 6.82076053 1.9503446 9.375 1.9375 C10.26445312 1.92912109 11.15390625 1.92074219 12.0703125 1.91210938 C13.34648437 1.90727539 13.34648437 1.90727539 14.6484375 1.90234375 C15.43395996 1.89710693 16.21948242 1.89187012 17.02880859 1.88647461 C19 2 19 2 21 3 C22.39197429 3.19596892 23.79093239 3.3437273 25.19140625 3.46484375 C26.47349976 3.57989258 26.47349976 3.57989258 27.78149414 3.69726562 C28.69922607 3.77654297 29.61695801 3.85582031 30.5625 3.9375 C32.46886645 4.1120138 34.3751155 4.2878144 36.28125 4.46484375 C37.23902344 4.55362793 38.19679687 4.64241211 39.18359375 4.73388672 C43.31367121 5.12412462 47.43918448 5.54398404 51.5625 6 C52.60482788 6.10622681 52.60482788 6.10622681 53.66821289 6.21459961 C57.21471593 6.61778194 59.87448608 7.31463624 63 9 C47.55812897 8.40406689 32.23878576 6.78427963 16.87744141 5.14996338 C13.49806062 4.79140374 10.11814694 4.43793868 6.73828125 4.08398438 C0.15836591 3.39389995 -6.42101823 2.69892575 -13 2 C-13 1.67 -13 1.34 -13 1 C-8.61414671 0.29826347 -4.44209357 -0.10834375 0 0 Z " fill="#CCEEF9" transform="translate(139,5)"/>
<path d="M0 0 C5.28 0 10.56 0 16 0 C15.67 0.66 15.34 1.32 15 2 C8.07 1.505 8.07 1.505 1 1 C1 9.58 1 18.16 1 27 C0.34 25.68 -0.32 24.36 -1 23 C-1.66 23 -2.32 23 -3 23 C-3.78375 23.78375 -4.5675 24.5675 -5.375 25.375 C-8.8774535 28.8774535 -10.49019833 29.89019624 -15.4375 30.25 C-18.78156767 30.01532858 -21.01044495 29.44948124 -24 28 C-23.01 26.515 -23.01 26.515 -22 25 C-21.01 25.66 -20.02 26.32 -19 27 C-14.84061328 27.33543441 -12.07824565 27.40733724 -8.1875 25.9375 C-4.43951939 22.61786003 -3.17818958 18.78189577 -2.6875 13.875 C-3.00872857 10.91969719 -3.73866097 8.68034544 -5 6 C-3.68 6.66 -2.36 7.32 -1 8 C-0.67 5.36 -0.34 2.72 0 0 Z " fill="#1F81BD" transform="translate(156,171)"/>
<path d="M0 0 C0.66 0 1.32 0 2 0 C2.33 2.31 2.66 4.62 3 7 C3.99 6.67 4.98 6.34 6 6 C6 7.32 6 8.64 6 10 C5.34 10 4.68 10 4 10 C4 10.66 4 11.32 4 12 C4.66 11.67 5.32 11.34 6 11 C6.40729228 8.67843403 6.74438677 6.3431213 7 4 C6.34 4 5.68 4 5 4 C5 3.34 5 2.68 5 2 C5.66 2 6.32 2 7 2 C7.33 1.34 7.66 0.68 8 0 C9.59412284 3.18824568 9.10174735 6.62896662 9.0625 10.125 C9.05798828 10.87910156 9.05347656 11.63320312 9.04882812 12.41015625 C9.03703499 14.27347127 9.01909942 16.13674555 9 18 C6.03 18.33 3.06 18.66 0 19 C0 12.73 0 6.46 0 0 Z " fill="#2E749D" transform="translate(35,76)"/>
<path d="M0 0 C1.32 0 2.64 0 4 0 C4 1.98 4 3.96 4 6 C3.01 6 2.02 6 1 6 C1 6.66 1 7.32 1 8 C1.99 8 2.98 8 4 8 C4 12.95 4 17.9 4 23 C2.68 23 1.36 23 0 23 C-3.05313728 16.69018295 -3.78370608 10.59064085 -1.5625 3.9375 C-1.05953059 2.61805111 -0.54506872 1.30262186 0 0 Z " fill="#E2F6FA" transform="translate(235,32)"/>
<path d="M0 0 C2.31 0 4.62 0 7 0 C7.33 0.99 7.66 1.98 8 3 C7.34 3 6.68 3 6 3 C6 2.34 6 1.68 6 1 C4.35 1 2.7 1 1 1 C1.33 4.63 1.66 8.26 2 12 C2.99 12 3.98 12 5 12 C5.66 11.34 6.32 10.68 7 10 C7 15.61 7 21.22 7 27 C4.69 27 2.38 27 0 27 C0 18.09 0 9.18 0 0 Z " fill="#A4CDE8" transform="translate(118,136)"/>
<path d="M0 0 C1.43739513 -0.02712066 2.87493863 -0.04645067 4.3125 -0.0625 C5.51326172 -0.07990234 5.51326172 -0.07990234 6.73828125 -0.09765625 C9 0 9 0 12 1 C11.67 1.66 11.34 2.32 11 3 C9.80375 2.7525 8.6075 2.505 7.375 2.25 C3.96035342 1.83903369 2.98428668 2.00711547 -0.3125 3.5 C-3.58761594 6.54661948 -4.55127796 8.814803 -6 13 C-6.66 11.68 -7.32 10.36 -8 9 C-8.66 9.20625 -9.32 9.4125 -10 9.625 C-14.09630108 10.13703763 -17.04235979 9.14033701 -21 8 C-21.309375 8.639375 -21.61875 9.27875 -21.9375 9.9375 C-23 12 -23 12 -24 13 C-24.07179964 14.51928038 -24.08392007 16.04167482 -24.0625 17.5625 C-24.05347656 18.38878906 -24.04445313 19.21507812 -24.03515625 20.06640625 C-24.02355469 20.70449219 -24.01195313 21.34257812 -24 22 C-26.953125 19.359375 -26.953125 19.359375 -27.375 16.125 C-26.95466405 12.62220045 -26.10485728 10.80647637 -24 8 C-20.49337515 5.6622501 -19.12370255 5.6701038 -15 6 C-12.125 7 -12.125 7 -10 8 C-10.4640625 7.071875 -10.4640625 7.071875 -10.9375 6.125 C-11.625 4.75 -12.3125 3.375 -13 2 C-11.35 1.67 -9.7 1.34 -8 1 C-8.33 2.32 -8.66 3.64 -9 5 C-7.35 4.67 -5.7 4.34 -4 4 C-4 3.34 -4 2.68 -4 2 C-2.68 2 -1.36 2 0 2 C0 1.34 0 0.68 0 0 Z " fill="#2080BC" transform="translate(136,171)"/>
<path d="M0 0 C1.53333984 0.00676758 1.53333984 0.00676758 3.09765625 0.01367188 C5.60683194 0.025397 8.1158849 0.04180824 10.625 0.0625 C11.12 1.5475 11.12 1.5475 11.625 3.0625 C13.45224609 3.02769531 13.45224609 3.02769531 15.31640625 2.9921875 C16.94009799 2.9734165 18.56379642 2.95521773 20.1875 2.9375 C20.98736328 2.92074219 21.78722656 2.90398437 22.61132812 2.88671875 C27.69000335 2.84526018 31.81311906 3.42193925 36.625 5.0625 C36.625 5.3925 36.625 5.7225 36.625 6.0625 C28.49375327 5.61982468 20.39327002 5.06232545 12.2878418 4.27587891 C-4.74182706 2.14158891 -4.74182706 2.14158891 -21.375 5.0625 C-21.375 4.4025 -21.375 3.7425 -21.375 3.0625 C-14.79174067 -0.73553423 -7.35281558 -0.06166878 0 0 Z " fill="#DDF4FA" transform="translate(89.375,-0.0625)"/>
<path d="M0 0 C0.33 0 0.66 0 1 0 C1.01981934 0.81678223 1.03963867 1.63356445 1.06005859 2.47509766 C1.15558143 6.1920444 1.26515124 9.90845019 1.375 13.625 C1.4059375 14.91019531 1.436875 16.19539063 1.46875 17.51953125 C1.50742188 18.76347656 1.54609375 20.00742188 1.5859375 21.2890625 C1.6173584 22.43068848 1.6487793 23.57231445 1.68115234 24.74853516 C2.09406852 28.9592684 2.81231863 32.62959842 5.625 35.875 C6.07875 36.24625 6.5325 36.6175 7 37 C3 37 3 37 1.25 35.5 C0.8375 35.005 0.425 34.51 0 34 C0 34.66 0 35.32 0 36 C-0.66 36 -1.32 36 -2 36 C-2.01981934 35.41508789 -2.03963867 34.83017578 -2.06005859 34.22753906 C-2.15553481 31.56791975 -2.26512142 28.90906162 -2.375 26.25 C-2.4059375 25.32960937 -2.436875 24.40921875 -2.46875 23.4609375 C-2.50742188 22.57148438 -2.54609375 21.68203125 -2.5859375 20.765625 C-2.6173584 19.94868164 -2.6487793 19.13173828 -2.68115234 18.29003906 C-3.24736556 14.22336223 -5.00677595 11.72111277 -8 9 C-5.5625 9.8125 -5.5625 9.8125 -3 11 C-2.67 11.99 -2.34 12.98 -2 14 C-1.34 14 -0.68 14 0 14 C0 9.38 0 4.76 0 0 Z " fill="#1A81BF" transform="translate(143,126)"/>
<path d="M0 0 C0.66 0 1.32 0 2 0 C2.87495179 7.9199413 3.12590042 15.7234313 3.0625 23.6875 C3.05798828 24.78255859 3.05347656 25.87761719 3.04882812 27.00585938 C3.03719156 29.67063309 3.02084564 32.33528517 3 35 C2.01 34.67 1.02 34.34 0 34 C0 22.78 0 11.56 0 0 Z " fill="#F9FDFC" transform="translate(183,126)"/>
<path d="M0 0 C5.28 0 10.56 0 16 0 C16 1.32 16 2.64 16 4 C13.16024853 6.4094861 11.13232051 6.9814287 7.4375 7.5 C4 7 4 7 1.5625 4.625 C0 2 0 2 0 0 Z " fill="#0F8ED5" transform="translate(182,186)"/>
<path d="M0 0 C1.9375 0.1875 1.9375 0.1875 4 1 C6.35535899 4.17973464 6.17494335 7.15124621 6 11 C1.03926578 12.32286246 -3.91111512 12.08893197 -9 12 C-9.33 11.01 -9.66 10.02 -10 9 C-9 8 -9 8 -6.49609375 7.90234375 C-4.98208984 7.91974609 -4.98208984 7.91974609 -3.4375 7.9375 C-2.42558594 7.94652344 -1.41367188 7.95554688 -0.37109375 7.96484375 C0.80259766 7.98224609 0.80259766 7.98224609 2 8 C1.01 5.69 0.02 3.38 -1 1 C-0.67 0.67 -0.34 0.34 0 0 Z " fill="#F1FCFC" transform="translate(171,139)"/>
<path d="M0 0 C0.02685412 2.31243792 0.04632841 4.6249627 0.0625 6.9375 C0.07410156 8.22527344 0.08570313 9.51304688 0.09765625 10.83984375 C0 14 0 14 -1 15 C-2.65 15 -4.3 15 -6 15 C-6 10.38 -6 5.76 -6 1 C-3 0 -3 0 0 0 Z " fill="#C7CBCE" transform="translate(50,53)"/>
<path d="M0 0 C1.45792884 -0.05399736 2.91642712 -0.09279177 4.375 -0.125 C5.18710938 -0.14820313 5.99921875 -0.17140625 6.8359375 -0.1953125 C9 0 9 0 11 2 C10.44444444 6.55555556 10.44444444 6.55555556 9 8 C7.48071962 8.07179964 5.95832518 8.08392007 4.4375 8.0625 C3.61121094 8.05347656 2.78492188 8.04445312 1.93359375 8.03515625 C1.29550781 8.02355469 0.65742188 8.01195312 0 8 C0 5.36 0 2.72 0 0 Z " fill="#1685C5" transform="translate(161,176)"/>
<path d="M0 0 C1.9375 1.9375 1.9375 1.9375 3 4 C3 4.66 3 5.32 3 6 C-1.95 6 -6.9 6 -12 6 C-8.29596797 -1.40806406 -7.70952448 -1.7583126 0 0 Z " fill="#1A8ACA" transform="translate(194,176)"/>
<path d="M0 0 C0.99 0.33 1.98 0.66 3 1 C3.474375 2.11375 3.94875 3.2275 4.4375 4.375 C6.00643303 8.01492462 6.61789064 9.16399778 10 11 C11.98014432 11.72351427 13.97821315 12.40265389 16 13 C15.67 13.66 15.34 14.32 15 15 C7.23214286 15.66964286 7.23214286 15.66964286 3.5625 12.625 C0.05163156 9.02850062 0.05163156 9.02850062 -0.09765625 6.0546875 C-0.06510417 4.03645833 -0.03255208 2.01822917 0 0 Z " fill="#DCF6FC" transform="translate(130,184)"/>
<path d="M0 0 C2.31 0 4.62 0 7 0 C7 3.3 7 6.6 7 10 C8.32 10 9.64 10 11 10 C11 11.98 11 13.96 11 16 C10.67 16 10.34 16 10 16 C10 14.35 10 12.7 10 11 C8.68 11 7.36 11 6 11 C5.67 7.7 5.34 4.4 5 1 C4.01 1.495 4.01 1.495 3 2 C2.52891722 4.62039764 2.52891722 4.62039764 2.3671875 7.78515625 C2.28339844 8.95498047 2.19960937 10.12480469 2.11328125 11.33007812 C2.03464844 12.56177734 1.95601562 13.79347656 1.875 15.0625 C1.78863281 16.29806641 1.70226562 17.53363281 1.61328125 18.80664062 C1.40034105 21.87061356 1.19632138 24.93492456 1 28 C0.67 28 0.34 28 0 28 C0 18.76 0 9.52 0 0 Z " fill="#B2E1F7" transform="translate(144,126)"/>
<path d="M0 0 C0.33 0 0.66 0 1 0 C1 1.98 1 3.96 1 6 C-0.134375 5.979375 -1.26875 5.95875 -2.4375 5.9375 C-5.81575674 5.58422523 -5.81575674 5.58422523 -7 7 C-7.969375 6.979375 -8.93875 6.95875 -9.9375 6.9375 C-13.11031214 6.64862426 -13.11031214 6.64862426 -15 9 C-15 8.34 -15 7.68 -15 7 C-15.66 6.67 -16.32 6.34 -17 6 C-16.34 6 -15.68 6 -15 6 C-15 5.34 -15 4.68 -15 4 C-15.66 3.67 -16.32 3.34 -17 3 C-16.2575 3.04125 -15.515 3.0825 -14.75 3.125 C-12.03438239 3.20388621 -12.03438239 3.20388621 -10.0625 1.9375 C-7.14102214 0.60955552 -5.07209664 1.3321529 -2 2 C-1.34 2 -0.68 2 0 2 C0 1.34 0 0.68 0 0 Z " fill="#71BEE8" transform="translate(173,232)"/>
<path d="M0 0 C3 -0.3125 3 -0.3125 6 0 C8 2 8 2 8.22705078 3.97119141 C8.21134033 5.1494751 8.21134033 5.1494751 8.1953125 6.3515625 C8.18564453 7.62773437 8.18564453 7.62773437 8.17578125 8.9296875 C8.15902344 9.81914062 8.14226562 10.70859375 8.125 11.625 C8.11597656 12.5221875 8.10695312 13.419375 8.09765625 14.34375 C8.0740497 16.56276586 8.0411231 18.78125077 8 21 C9.98 21 11.96 21 14 21 C14 21.33 14 21.66 14 22 C11.69 22 9.38 22 7 22 C6.93941406 20.89140625 6.87882813 19.7828125 6.81640625 18.640625 C6.73197049 17.1770718 6.64732401 15.71353075 6.5625 14.25 C6.52318359 13.52039063 6.48386719 12.79078125 6.44335938 12.0390625 C6.23852902 8.5727027 5.9147998 5.34666974 5 2 C1.87802522 3.3089572 1.87802522 3.3089572 0 6 C-0.0716735 8.55157655 -0.09308442 11.07472971 -0.0625 13.625 C-0.05798828 14.33140625 -0.05347656 15.0378125 -0.04882812 15.765625 C-0.03703875 17.51045275 -0.01910324 19.255237 0 21 C-0.66 21 -1.32 21 -2 21 C-2.05390357 18.06225537 -2.0936255 15.12549768 -2.125 12.1875 C-2.14175781 11.35412109 -2.15851563 10.52074219 -2.17578125 9.66210938 C-2.18222656 8.85966797 -2.18867187 8.05722656 -2.1953125 7.23046875 C-2.20578613 6.49207764 -2.21625977 5.75368652 -2.22705078 4.99291992 C-2 3 -2 3 0 0 Z " fill="#1E81BA" transform="translate(127,142)"/>
<path d="M0 0 C0 0.99 0 1.98 0 3 C-10.395 3.99 -10.395 3.99 -21 5 C-20.67 3.68 -20.34 2.36 -20 1 C-17.04239121 0.63851448 -14.08419774 0.28550884 -11.125 -0.0625 C-9.86236328 -0.2181543 -9.86236328 -0.2181543 -8.57421875 -0.37695312 C-7.36572266 -0.51713867 -7.36572266 -0.51713867 -6.1328125 -0.66015625 C-5.01737061 -0.79369507 -5.01737061 -0.79369507 -3.87939453 -0.92993164 C-2 -1 -2 -1 0 0 Z " fill="#EEFEFE" transform="translate(200,182)"/>
<path d="M0 0 C-4.45812392 2.22906196 -7.02402487 3.12138306 -12.1015625 3.09765625 C-13.31328125 3.09443359 -14.525 3.09121094 -15.7734375 3.08789062 C-17.04445313 3.07951172 -18.31546875 3.07113281 -19.625 3.0625 C-20.90375 3.05798828 -22.1825 3.05347656 -23.5 3.04882812 C-26.66671292 3.03701203 -29.83333356 3.02053815 -33 3 C-33 2.67 -33 2.34 -33 2 C-21.92900046 0.57966558 -11.16809528 -0.2964981 0 0 Z " fill="#DAF5FB" transform="translate(113,275)"/>
<path d="M0 0 C4.62 0 9.24 0 14 0 C14.33 1.98 14.66 3.96 15 6 C14.01 5.34 13.02 4.68 12 4 C9.49103314 3.54398739 9.49103314 3.54398739 6.8125 3.375 C5.91144531 3.30023438 5.01039063 3.22546875 4.08203125 3.1484375 C3.39496094 3.09945312 2.70789063 3.05046875 2 3 C2 4.98 2 6.96 2 9 C1.01 9.495 1.01 9.495 0 10 C0 6.7 0 3.4 0 0 Z " fill="#EAFBFE" transform="translate(158,173)"/>
<path d="M0 0 C0.33 0 0.66 0 1 0 C1 12.54 1 25.08 1 38 C0.67 38 0.34 38 0 38 C-0.13277344 36.90300781 -0.26554688 35.80601562 -0.40234375 34.67578125 C-0.58062985 33.22134199 -0.7590208 31.76691558 -0.9375 30.3125 C-1.02451172 29.59126953 -1.11152344 28.87003906 -1.20117188 28.12695312 C-1.66313805 24.37989416 -2.19167679 20.69207089 -3 17 C-2.34 17 -1.68 17 -1 17 C-0.67 11.39 -0.34 5.78 0 0 Z " fill="#1587C1" transform="translate(180,124)"/>
<path d="M0 0 C3.625 0.375 3.625 0.375 7 1 C7 1.99 7 2.98 7 4 C7.99 4.33 8.98 4.66 10 5 C10 5.66 10 6.32 10 7 C5.68066349 8.00449686 2.88779613 8.33267768 -1 6 C-1.9375 4 -1.9375 4 -2 2 C-1.34 1.34 -0.68 0.68 0 0 Z " fill="#4CA7DC" transform="translate(119,236)"/>
<path d="M0 0 C1.32 0 2.64 0 4 0 C4 4.95 4 9.9 4 15 C2.68 15 1.36 15 0 15 C0 10.05 0 5.1 0 0 Z " fill="#3987BA" transform="translate(235,40)"/>
<path d="M0 0 C1.13598633 0.00483398 1.13598633 0.00483398 2.29492188 0.00976562 C3.47344727 0.02233398 3.47344727 0.02233398 4.67578125 0.03515625 C5.47306641 0.03966797 6.27035156 0.04417969 7.09179688 0.04882812 C9.05732382 0.06059775 11.0228121 0.07853277 12.98828125 0.09765625 C12.98828125 0.42765625 12.98828125 0.75765625 12.98828125 1.09765625 C8.86442298 1.60737706 4.73904702 2.10363252 0.61328125 2.59765625 C-1.12115234 2.81228516 -1.12115234 2.81228516 -2.890625 3.03125 C-9.63649226 3.83160713 -16.21851204 4.30733511 -23.01171875 4.09765625 C-20.1921245 1.278062 -17.72588093 1.11573177 -13.7890625 1.07421875 C-12.2250725 1.08947719 -10.661138 1.11746733 -9.09765625 1.16015625 C-5.93432424 1.06537477 -3.23384469 -0.02431462 0 0 Z " fill="#1C7BB7" transform="translate(121.01171875,270.90234375)"/>
<path d="M0 0 C0.99 0.33 1.98 0.66 3 1 C2.34 2.65 1.68 4.3 1 6 C0.67 6 0.34 6 0 6 C-0.66 8.31 -1.32 10.62 -2 13 C-3.32 13.33 -4.64 13.66 -6 14 C-6 10.04 -6 6.08 -6 2 C-4.02 2 -2.04 2 0 2 C0 1.34 0 0.68 0 0 Z " fill="#108DD6" transform="translate(156,140)"/>
<path d="M0 0 C0.99 0.33 1.98 0.66 3 1 C3 1.99 3 2.98 3 4 C2.195625 4.556875 1.39125 5.11375 0.5625 5.6875 C-2.23246476 8.20978527 -2.40111508 8.71582958 -2.8125 12.25 C-2.874375 13.4875 -2.93625 14.725 -3 16 C-3.103125 15.360625 -3.20625 14.72125 -3.3125 14.0625 C-3.539375 13.381875 -3.76625 12.70125 -4 12 C-4.99 11.67 -5.98 11.34 -7 11 C-6.49697411 6.59852343 -4.97554199 4.24604581 -2 1 C-1.34 0.67 -0.68 0.34 0 0 Z " fill="#A2C3D7" transform="translate(137,173)"/>
<path d="M0 0 C1.98 0 3.96 0 6 0 C6 3.96 6 7.92 6 12 C5.34 12 4.68 12 4 12 C4 10.68 4 9.36 4 8 C3.01 8 2.02 8 1 8 C0.67 8.66 0.34 9.32 0 10 C0 6.7 0 3.4 0 0 Z " fill="#D0E8F1" transform="translate(109,136)"/>
<path d="M0 0 C0.33 0 0.66 0 1 0 C0.7313393 6.04486575 0.06423007 10.21855286 -4 15 C-7.76624671 16.25541557 -9.37188934 15.37061958 -13 14 C-13 13.67 -13 13.34 -13 13 C-12.071875 12.7525 -11.14375 12.505 -10.1875 12.25 C-6.77824707 10.91303807 -5.96587748 9.94881621 -4 7 C-3.34 7 -2.68 7 -2 7 C-2 6.01 -2 5.02 -2 4 C-1.34 4 -0.68 4 0 4 C0 2.68 0 1.36 0 0 Z " fill="#A7CAE0" transform="translate(153,182)"/>
<path d="M0 0 C5.94 0.33 11.88 0.66 18 1 C16.68 1.33 15.36 1.66 14 2 C14 2.99 14 3.98 14 5 C12.35 5 10.7 5 9 5 C9 4.01 9 3.02 9 2 C8.34 2 7.68 2 7 2 C7.66 3.32 8.32 4.64 9 6 C10.65 6 12.3 6 14 6 C14 6.66 14 7.32 14 8 C6.25 8.125 6.25 8.125 4 7 C3.855625 6.195625 3.71125 5.39125 3.5625 4.5625 C3.23497283 1.65559342 3.23497283 1.65559342 0 0 Z " fill="#207FB9" transform="translate(89,237)"/>
<path d="M0 0 C2.31 0 4.62 0 7 0 C7 2.64 7 5.28 7 8 C4.69 8 2.38 8 0 8 C0 5.36 0 2.72 0 0 Z " fill="#D4F2FA" transform="translate(108,124)"/>
<path d="M0 0 C2.16926659 3.25389988 2.24080049 4.13395957 2.1953125 7.88671875 C2.18886719 8.82451172 2.18242187 9.76230469 2.17578125 10.72851562 C2.15902344 11.70498047 2.14226562 12.68144531 2.125 13.6875 C2.11597656 14.67556641 2.10695312 15.66363281 2.09765625 16.68164062 C2.0740843 19.12133765 2.04118022 21.56054697 2 24 C0.02 24 -1.96 24 -4 24 C-4 18.39 -4 12.78 -4 7 C-3.67 7 -3.34 7 -3 7 C-2.67 11.95 -2.34 16.9 -2 22 C-1.01 22 -0.02 22 1 22 C0.67 14.74 0.34 7.48 0 0 Z " fill="#C2F0FD" transform="translate(139,139)"/>
<path d="M0 0 C2.875 2 2.875 2 5 4 C1.37 3.34 -2.26 2.68 -6 2 C-6.66 3.32 -7.32 4.64 -8 6 C-8.33 6.33 -8.66 6.66 -9 7 C-9.07179964 8.51928038 -9.08392007 10.04167482 -9.0625 11.5625 C-9.05347656 12.38878906 -9.04445313 13.21507812 -9.03515625 14.06640625 C-9.02355469 14.70449219 -9.01195313 15.34257812 -9 16 C-11.953125 13.359375 -11.953125 13.359375 -12.375 10.125 C-11.95466405 6.62220045 -11.10485728 4.80647637 -9 2 C-5.48746854 -0.34168764 -4.13530644 -0.49623677 0 0 Z " fill="#2983BB" transform="translate(121,177)"/>
<path d="M0 0 C3 1 3 1 4 3 C4.46537396 9.39889197 4.46537396 9.39889197 2.5 11.9375 C2.005 12.288125 1.51 12.63875 1 13 C-1 11 -1 11 -1.23046875 8.90625 C-1.21628906 8.1121875 -1.20210937 7.318125 -1.1875 6.5 C-1.18105469 5.7059375 -1.17460938 4.911875 -1.16796875 4.09375 C-1 2 -1 2 0 0 Z " fill="#83B3D7" transform="translate(39,157)"/>
<path d="M0 0 C0.33 0.66 0.66 1.32 1 2 C1.66 2 2.32 2 3 2 C3.25 9.625 3.25 9.625 1 13 C0.34 13 -0.32 13 -1 13 C-2.17673198 10.64653604 -2.16623866 9.1193967 -2.1875 6.5 C-2.20167969 5.7059375 -2.21585938 4.911875 -2.23046875 4.09375 C-2 2 -2 2 0 0 Z " fill="#6E95B6" transform="translate(40,131)"/>
<path d="M0 0 C5.28 0 10.56 0 16 0 C15.34 1.32 14.68 2.64 14 4 C13.360625 3.814375 12.72125 3.62875 12.0625 3.4375 C11.381875 3.293125 10.70125 3.14875 10 3 C9.67 3.33 9.34 3.66 9 4 C6.66702567 4.04092937 4.33294775 4.04241723 2 4 C1.34 2.68 0.68 1.36 0 0 Z " fill="#1E8AC6" transform="translate(162,152)"/>
<path d="M0 0 C0.33 0 0.66 0 1 0 C1 2.64 1 5.28 1 8 C2.65 8 4.3 8 6 8 C5.195625 8.474375 4.39125 8.94875 3.5625 9.4375 C0.00982428 12.99017572 0.11421377 16.14072325 0 21 C-0.66 21 -1.32 21 -2 21 C-2.3690205 6.21867882 -2.3690205 6.21867882 0 0 Z " fill="#CAE5F2" transform="translate(160,176)"/>
<path d="M0 0 C0.33 0 0.66 0 1 0 C1.33 3.3 1.66 6.6 2 10 C3.96822886 8.03177114 3.66248381 4.65191291 4 2 C4.33 2 4.66 2 5 2 C5.12117187 2.74765625 5.24234375 3.4953125 5.3671875 4.265625 C5.53476563 5.25046875 5.70234375 6.2353125 5.875 7.25 C6.03742188 8.22453125 6.19984375 9.1990625 6.3671875 10.203125 C6.94855848 12.77264117 7.70840265 14.72071056 9 17 C8.01 16.67 7.02 16.34 6 16 C5.34 17.32 4.68 18.64 4 20 C4 17.69 4 15.38 4 13 C2.68 12.67 1.36 12.34 0 12 C0 8.04 0 4.08 0 0 Z " fill="#1883BF" transform="translate(151,143)"/>
<path d="M0 0 C7.39626965 -0.31178654 14.70097416 0.21628124 22.0625 0.875 C23.47341919 0.99270752 23.47341919 0.99270752 24.9128418 1.11279297 C25.79883057 1.19674316 26.68481934 1.28069336 27.59765625 1.3671875 C28.39695557 1.44050293 29.19625488 1.51381836 30.01977539 1.58935547 C32 2 32 2 34 4 C33.34 4.66 32.68 5.32 32 6 C31.47438477 5.68756348 30.94876953 5.37512695 30.40722656 5.05322266 C27.40409579 3.7392768 24.74583347 3.47458335 21.484375 3.1484375 C20.23398438 3.01953125 18.98359375 2.890625 17.6953125 2.7578125 C16.39335937 2.63148437 15.09140625 2.50515625 13.75 2.375 C12.41919802 2.24030082 11.08846768 2.1048918 9.7578125 1.96875 C6.50584567 1.63884032 3.25332304 1.31620728 0 1 C0 0.67 0 0.34 0 0 Z " fill="#E8E8E9" transform="translate(224,17)"/>
<path d="M0 0 C0.66 0 1.32 0 2 0 C2 0.66 2 1.32 2 2 C2.66 2 3.32 2 4 2 C4.125 8.625 4.125 8.625 3 12 C2.01 12 1.02 12 0 12 C-1.1671568 8.49852959 -1.13357453 5.67329964 -1 2 C-0.67 1.34 -0.34 0.68 0 0 Z " fill="#86AAC7" transform="translate(39,192)"/>
<path d="M0 0 C1.98 0.66 3.96 1.32 6 2 C6 1.34 6 0.68 6 0 C7.98 0 9.96 0 12 0 C11.67 1.65 11.34 3.3 11 5 C10.01 5 9.02 5 8 5 C8.33 6.65 8.66 8.3 9 10 C8.443125 9.278125 7.88625 8.55625 7.3125 7.8125 C5.02090666 5.02542701 2.58540143 2.51358472 0 0 Z " fill="#3AA1D7" transform="translate(192,170)"/>
<path d="M0 0 C2.31 0 4.62 0 7 0 C7.66 1.65 8.32 3.3 9 5 C5.37 5 1.74 5 -2 5 C-1.34 3.35 -0.68 1.7 0 0 Z " fill="#3896CD" transform="translate(164,142)"/>
<path d="M0 0 C0.639375 0.165 1.27875 0.33 1.9375 0.5 C4.04582216 1.24598544 4.04582216 1.24598544 6 0 C6 2.31 6 4.62 6 7 C3 8 3 8 -1 8 C-1.04241723 5.66705225 -1.04092937 3.33297433 -1 1 C-0.67 0.67 -0.34 0.34 0 0 Z " fill="#55AFE1" transform="translate(89,238)"/>
<path d="M0 0 C5.28 0 10.56 0 16 0 C16 0.33 16 0.66 16 1 C10.555 1.495 10.555 1.495 5 2 C5 2.99 5 3.98 5 5 C7.31 5 9.62 5 12 5 C11.67 5.66 11.34 6.32 11 7 C7.75 7.3125 7.75 7.3125 4 7 C1.5625 4.625 1.5625 4.625 0 2 C0 1.34 0 0.68 0 0 Z " fill="#1B83BA" transform="translate(182,186)"/>
<path d="M0 0 C2.0625 0.4375 2.0625 0.4375 4 1 C3.49396008 3.16874252 3.00016187 4.99967627 2 7 C2.99 7.33 3.98 7.66 5 8 C4.01 8 3.02 8 2 8 C1.34 9.65 0.68 11.3 0 13 C-0.33 13 -0.66 13 -1 13 C-1.02686553 11.02090602 -1.04633375 9.04171029 -1.0625 7.0625 C-1.07410156 5.96035156 -1.08570313 4.85820312 -1.09765625 3.72265625 C-1 1 -1 1 0 0 Z " fill="#179DE7" transform="translate(190,124)"/>
<path d="M0 0 C2.64 0.33 5.28 0.66 8 1 C8.33 1.99 8.66 2.98 9 4 C7 6 7 6 3.375 6.125 C2.26125 6.08375 1.1475 6.0425 0 6 C0 4.02 0 2.04 0 0 Z " fill="#66AEDB" transform="translate(147,234)"/>
<path d="M0 0 C2.4375 0.8125 2.4375 0.8125 5 2 C5.33 2.99 5.66 3.98 6 5 C6.66 5 7.32 5 8 5 C7.67 12.26 7.34 19.52 7 27 C6.67 27 6.34 27 6 27 C5.98018066 26.41508789 5.96036133 25.83017578 5.93994141 25.22753906 C5.84446519 22.56791975 5.73487858 19.90906162 5.625 17.25 C5.5940625 16.32960937 5.563125 15.40921875 5.53125 14.4609375 C5.49257812 13.57148438 5.45390625 12.68203125 5.4140625 11.765625 C5.3826416 10.94868164 5.3512207 10.13173828 5.31884766 9.29003906 C4.75263444 5.22336223 2.99322405 2.72111277 0 0 Z " fill="#4299CC" transform="translate(135,135)"/>
<path d="M0 0 C1.65 0 3.3 0 5 0 C5 0.66 5 1.32 5 2 C4.34 2 3.68 2 3 2 C3 2.66 3 3.32 3 4 C3.66 4 4.32 4 5 4 C5 6.31 5 8.62 5 11 C4.01 11.33 3.02 11.66 2 12 C2 11.34 2 10.68 2 10 C2.66 10 3.32 10 4 10 C3.67 9.01 3.34 8.02 3 7 C2.34 7 1.68 7 1 7 C1 8.65 1 10.3 1 12 C0.67 12 0.34 12 0 12 C0 8.04 0 4.08 0 0 Z " fill="#93C1D6" transform="translate(37,76)"/>
<path d="M0 0 C4 4 4 4 4.390625 6.140625 C4.26041667 8.09375 4.13020833 10.046875 4 12 C2.68 12 1.36 12 0 12 C0 8.04 0 4.08 0 0 Z " fill="#C0C6C9" transform="translate(110,150)"/>
<path d="M0 0 C2.475 0.99 2.475 0.99 5 2 C5 3.65 5 5.3 5 7 C2.69 7.33 0.38 7.66 -2 8 C-2 6.02 -2 4.04 -2 2 C-1.34 2 -0.68 2 0 2 C0 1.34 0 0.68 0 0 Z " fill="#68B0D9" transform="translate(253,77)"/>
<path d="M0 0 C0.99 0 1.98 0 3 0 C3.02685412 2.31243792 3.04632841 4.6249627 3.0625 6.9375 C3.07410156 8.22527344 3.08570313 9.51304688 3.09765625 10.83984375 C3 14 3 14 2 15 C0.35 15 -1.3 15 -3 15 C-3 10.38 -3 5.76 -3 1 C-2.67 1 -2.34 1 -2 1 C-2 4.63 -2 8.26 -2 12 C-0.02 12.495 -0.02 12.495 2 13 C2 9.04 2 5.08 2 1 C1.34 0.67 0.68 0.34 0 0 Z " fill="#A4BECF" transform="translate(47,53)"/>
<path d="M0 0 C1.32 0.33 2.64 0.66 4 1 C4 1.66 4 2.32 4 3 C4.99 3 5.98 3 7 3 C7 2.01 7 1.02 7 0 C8.98 0 10.96 0 13 0 C13 1.32 13 2.64 13 4 C12.443125 3.79375 11.88625 3.5875 11.3125 3.375 C8.91954784 2.78315588 8.91954784 2.78315588 6.5 4 C3.74661122 5.10135551 2.72084587 5.00772069 0 4 C0 2.68 0 1.36 0 0 Z " fill="#7DCAEF" transform="translate(96,239)"/>
<path d="M0 0 C1.65 0 3.3 0 5 0 C5 1.32 5 2.64 5 4 C3.68 3.67 2.36 3.34 1 3 C2.11854586 6.72614153 2.11854586 6.72614153 5 9 C5 9.99 5 10.98 5 12 C3.35 11.67 1.7 11.34 0 11 C0 7.37 0 3.74 0 0 Z " fill="#6A89A0" transform="translate(38,212)"/>
<path d="M0 0 C2.31 1.65 4.62 3.3 7 5 C6.34 6.32 5.68 7.64 5 9 C2.03 8.505 2.03 8.505 -1 8 C-1.33 8.99 -1.66 9.98 -2 11 C-2 9.68 -2 8.36 -2 7 C-1.34 6.67 -0.68 6.34 0 6 C-0.33 5.01 -0.66 4.02 -1 3 C-0.67 2.01 -0.34 1.02 0 0 Z " fill="#105482" transform="translate(37,179)"/>
<path d="M0 0 C1.21236328 0.01353516 1.21236328 0.01353516 2.44921875 0.02734375 C3.37154297 0.04474609 3.37154297 0.04474609 4.3125 0.0625 C4.3125 0.3925 4.3125 0.7225 4.3125 1.0625 C3.72082031 1.13726562 3.12914063 1.21203125 2.51953125 1.2890625 C-1.7979432 2.00746771 -4.79153431 2.56334056 -7.625 6.0625 C-8.305625 7.0525 -8.98625 8.0425 -9.6875 9.0625 C-10.3475 9.7225 -11.0075 10.3825 -11.6875 11.0625 C-12.0175 9.0825 -12.3475 7.1025 -12.6875 5.0625 C-11.0375 4.7325 -9.3875 4.4025 -7.6875 4.0625 C-7.6875 3.0725 -7.6875 2.0825 -7.6875 1.0625 C-4.80538698 0.10179566 -2.98899956 -0.04331883 0 0 Z " fill="#1B7CBA" transform="translate(116.6875,171.9375)"/>
<path d="M0 0 C2.0625 0.4375 2.0625 0.4375 4 1 C3.34 3.31 2.68 5.62 2 8 C2.66 8 3.32 8 4 8 C4 8.66 4 9.32 4 10 C2.35 10 0.7 10 -1 10 C-1.02689216 8.52093108 -1.04634621 7.04172517 -1.0625 5.5625 C-1.07410156 4.73878906 -1.08570313 3.91507813 -1.09765625 3.06640625 C-1 1 -1 1 0 0 Z " fill="#5F8CAE" transform="translate(39,145)"/>
<path d="M0 0 C0.33 0.66 0.66 1.32 1 2 C-11.87 1.505 -11.87 1.505 -25 1 C-25 0.67 -25 0.34 -25 0 C-21.77138267 -0.19789024 -18.54210273 -0.38146345 -15.3125 -0.5625 C-14.40048828 -0.61857422 -13.48847656 -0.67464844 -12.54882812 -0.73242188 C-11.21948242 -0.80493164 -11.21948242 -0.80493164 -9.86328125 -0.87890625 C-9.05157471 -0.9260376 -8.23986816 -0.97316895 -7.40356445 -1.02172852 C-4.78714127 -0.99807573 -2.52027987 -0.70587452 0 0 Z " fill="#B3DFF5" transform="translate(257,70)"/>
<path d="M0 0 C0.99 0 1.98 0 3 0 C3 4.29 3 8.58 3 13 C2.34 12.34 1.68 11.68 1 11 C1 9.68 1 8.36 1 7 C-0.32 7 -1.64 7 -3 7 C-3 6.34 -3 5.68 -3 5 C-2.01 5 -1.02 5 0 5 C0 3.35 0 1.7 0 0 Z " fill="#DCF8FE" transform="translate(239,33)"/>
<path d="M0 0 C1.62723299 0.45034123 3.25173664 0.91055354 4.875 1.375 C5.77992187 1.63023437 6.68484375 1.88546875 7.6171875 2.1484375 C10 3 10 3 12 5 C7.71 5 3.42 5 -1 5 C-0.67 3.35 -0.34 1.7 0 0 Z " fill="#EAF7FA" transform="translate(65,273)"/>
<path d="M0 0 C0 2.31 0 4.62 0 7 C-2.3431213 6.74438677 -4.67843403 6.40729228 -7 6 C-7.33 5.34 -7.66 4.68 -8 4 C-7.34 4 -6.68 4 -6 4 C-5.67 3.01 -5.34 2.02 -5 1 C-2 0 -2 0 0 0 Z " fill="#C8EFFA" transform="translate(155,156)"/>
<path d="M0 0 C4.875 1.75 4.875 1.75 6 4 C6.039992 5.99960012 6.04346799 8.00047242 6 10 C5.34 10 4.68 10 4 10 C3.67 10.99 3.34 11.98 3 13 C2.86722656 12.39671875 2.73445312 11.7934375 2.59765625 11.171875 C2.42105469 10.37265625 2.24445313 9.5734375 2.0625 8.75 C1.88847656 7.96109375 1.71445313 7.1721875 1.53515625 6.359375 C1.052444 4.23121297 0.53836822 2.11467158 0 0 Z " fill="#C8E3F2" transform="translate(147,176)"/>
<path d="M0 0 C1.65 0 3.3 0 5 0 C7.09350689 3.4019487 7.17942163 6.05272412 7 10 C4.03 10 1.06 10 -2 10 C-2 9.67 -2 9.34 -2 9 C0.64 9 3.28 9 6 9 C4.06586829 5.99871685 4.06586829 5.99871685 1.875 3.375 C0 1 0 1 0 0 Z " fill="#B9E9FB" transform="translate(194,176)"/>
<path d="M0 0 C0.66 0 1.32 0 2 0 C3.32 2.97 4.64 5.94 6 9 C3.625 8.75 3.625 8.75 1 8 C-0.375 6.1875 -0.375 6.1875 -1 4 C-0.625 1.75 -0.625 1.75 0 0 Z " fill="#CFF2FC" transform="translate(170,188)"/>
<path d="M0 0 C2.475 0.99 2.475 0.99 5 2 C5 2.33 5 2.66 5 3 C4.071875 3.268125 3.14375 3.53625 2.1875 3.8125 C-0.94424055 4.72769901 -0.94424055 4.72769901 -2.5625 6.5625 C-4.59131664 8.59131664 -6.17435037 8.79324515 -9 9 C-11.16015625 8.01171875 -11.16015625 8.01171875 -13 7 C-12.39671875 6.91363281 -11.7934375 6.82726562 -11.171875 6.73828125 C-5.71717733 5.78960711 -5.71717733 5.78960711 -1.4375 2.375 C-0.963125 1.59125 -0.48875 0.8075 0 0 Z " fill="#2988C7" transform="translate(128,193)"/>
<path d="M0 0 C4.9053984 -0.28855285 8.1554435 -0.26204794 12 3 C12 4.32 12 5.64 12 7 C9.5625 6.1875 9.5625 6.1875 7 5 C6.67 4.01 6.34 3.02 6 2 C3.03 1.505 3.03 1.505 0 1 C0 0.67 0 0.34 0 0 Z " fill="#B8DEF0" transform="translate(114,173)"/>
<path d="M0 0 C7.4659249 -0.36717663 7.4659249 -0.36717663 10 1.375 C11 3 11 3 11 5 C8.03 4.505 8.03 4.505 5 4 C5 3.34 5 2.68 5 2 C3.35 2 1.7 2 0 2 C0 1.34 0 0.68 0 0 Z " fill="#E3FBFD" transform="translate(187,172)"/>
<path d="M0 0 C0.66 0.33 1.32 0.66 2 1 C1.75 2.875 1.75 2.875 1 5 C-1.0625 6.25 -1.0625 6.25 -3 7 C-3 6.34 -3 5.68 -3 5 C-4.98 5 -6.96 5 -9 5 C-9 4.67 -9 4.34 -9 4 C-7.88625 3.71125 -6.7725 3.4225 -5.625 3.125 C-1.99708908 2.30758671 -1.99708908 2.30758671 0 0 Z " fill="#CDF0FC" transform="translate(125,192)"/>
<path d="M0 0 C0.99 0.33 1.98 0.66 3 1 C2.34 2.65 1.68 4.3 1 6 C0.34 5.67 -0.32 5.34 -1 5 C-1 4.34 -1 3.68 -1 3 C-2.32 3 -3.64 3 -5 3 C-5 6.63 -5 10.26 -5 14 C-5.33 14 -5.66 14 -6 14 C-6 10.04 -6 6.08 -6 2 C-4.02 2 -2.04 2 0 2 C0 1.34 0 0.68 0 0 Z " fill="#54AAD7" transform="translate(156,140)"/>
<path d="M0 0 C2 3 2 3 1.625 5.6875 C1.41875 6.450625 1.2125 7.21375 1 8 C0.01 8 -0.98 8 -2 8 C-1.67 6.02 -1.34 4.04 -1 2 C-2.65 2 -4.3 2 -6 2 C-6.33 1.34 -6.66 0.68 -7 0 C-3.86559131 -1.0448029 -2.97903963 -1.15317663 0 0 Z " fill="#199BDE" transform="translate(194,123)"/>
<path d="M0 0 C0.33 0.66 0.66 1.32 1 2 C1.66 2 2.32 2 3 2 C3 1.34 3 0.68 3 0 C3.66 0 4.32 0 5 0 C4.67 1.65 4.34 3.3 4 5 C2.02 5 0.04 5 -2 5 C-2 3.68 -2 2.36 -2 1 C-1.34 0.67 -0.68 0.34 0 0 Z " fill="#7394AB" transform="translate(38,205)"/>
<path d="M0 0 C3.875 4.75 3.875 4.75 5 7 C3.68 7.33 2.36 7.66 1 8 C-2 4.375 -2 4.375 -2 1 C-1.34 0.67 -0.68 0.34 0 0 Z " fill="#D8FBFE" transform="translate(181,186)"/>
<path d="M0 0 C2.64 0 5.28 0 8 0 C8 1.65 8 3.3 8 5 C5.69 5 3.38 5 1 5 C0.67 3.35 0.34 1.7 0 0 Z " fill="#7DCBF5" transform="translate(236,79)"/>
<path d="M0 0 C0 0.66 0 1.32 0 2 C1.65 2 3.3 2 5 2 C5 2.33 5 2.66 5 3 C-0.94 2.67 -6.88 2.34 -13 2 C-13 1.67 -13 1.34 -13 1 C-8.61414671 0.29826347 -4.44209357 -0.10834375 0 0 Z " fill="#BEE6F5" transform="translate(139,5)"/>
<path d="M0 0 C0 0.66 0 1.32 0 2 C1.65 2 3.3 2 5 2 C5 2.33 5 2.66 5 3 C-0.94 2.67 -6.88 2.34 -13 2 C-13 1.67 -13 1.34 -13 1 C-11.20994059 0.63779734 -9.41787943 0.28547531 -7.625 -0.0625 C-6.12839844 -0.35833984 -6.12839844 -0.35833984 -4.6015625 -0.66015625 C-2 -1 -2 -1 0 0 Z " fill="#C4ECF9" transform="translate(101,1)"/>
<path d="M0 0 C1.65 0 3.3 0 5 0 C5.33 1.32 5.66 2.64 6 4 C3.92446352 4.5534764 2.15634036 5 0 5 C0 3.35 0 1.7 0 0 Z " fill="#76C0E3" transform="translate(110,238)"/>
<path d="M0 0 C-0.33 1.32 -0.66 2.64 -1 4 C0.32 4.66 1.64 5.32 3 6 C1 8 1 8 -2 9 C-2.185625 7.8553125 -2.185625 7.8553125 -2.375 6.6875 C-2.88102792 3.79732864 -2.88102792 3.79732864 -5 1 C-2 0 -2 0 0 0 Z " fill="#1A83C5" transform="translate(128,172)"/>
<path d="M0 0 C0.66 0 1.32 0 2 0 C2 1.98 2 3.96 2 6 C2.99 5.67 3.98 5.34 5 5 C5.66 5.66 6.32 6.32 7 7 C4.69 7.66 2.38 8.32 0 9 C0 6.03 0 3.06 0 0 Z " fill="#137DBC" transform="translate(108,237)"/>
<path d="M0 0 C0 1.98 0 3.96 0 6 C-0.33 5.34 -0.66 4.68 -1 4 C-4.06909445 3.33280556 -6.85786017 3 -10 3 C-10 2.34 -10 1.68 -10 1 C-6.78548731 -0.60725635 -3.56387464 -0.05748185 0 0 Z " fill="#2483BE" transform="translate(147,234)"/>
<path d="M0 0 C0.33 0 0.66 0 1 0 C1 5.61 1 11.22 1 17 C0.01 17.33 -0.98 17.66 -2 18 C-2.66 17.34 -3.32 16.68 -4 16 C-3.01 15.67 -2.02 15.34 -1 15 C-0.67 10.05 -0.34 5.1 0 0 Z " fill="#114E78" transform="translate(50,52)"/>
<path d="M0 0 C2.31 0.66 4.62 1.32 7 2 C7 2.99 7 3.98 7 5 C4.69 4.67 2.38 4.34 0 4 C0 2.68 0 1.36 0 0 Z " fill="#5D849F" transform="translate(36,224)"/>
<path d="M0 0 C1.98 0 3.96 0 6 0 C6.33 1.32 6.66 2.64 7 4 C4.69 3.67 2.38 3.34 0 3 C0 2.01 0 1.02 0 0 Z " fill="#9EC0D7" transform="translate(36,187)"/>
<path d="M0 0 C1.5 1 1.5 1 3 3 C3.27345479 5.71846235 3.13491285 8.25677199 3 11 C2.34 11 1.68 11 1 11 C0.12132271 7.26562152 -0.08912219 3.83225427 0 0 Z " fill="#D4F6FC" transform="translate(172,173)"/>
<path d="M0 0 C0.66 0 1.32 0 2 0 C2.33 0.66 2.66 1.32 3 2 C3.66 1.34 4.32 0.68 5 0 C5 1.98 5 3.96 5 6 C3.35 6 1.7 6 0 6 C0 4.02 0 2.04 0 0 Z " fill="#C8D2DF" transform="translate(119,156)"/>
<path d="M0 0 C2.64 0.33 5.28 0.66 8 1 C5.60490662 3.89932357 3.68754757 4.50168276 0 5 C0 3.35 0 1.7 0 0 Z " fill="#B0E8FA" transform="translate(245,37)"/>
<path d="M0 0 C1.98 0 3.96 0 6 0 C5.01 0.495 5.01 0.495 4 1 C4 1.66 4 2.32 4 3 C4.66 3.33 5.32 3.66 6 4 C5.34 4 4.68 4 4 4 C3.67 4.66 3.34 5.32 3 6 C3 5.34 3 4.68 3 4 C2.01 4.33 1.02 4.66 0 5 C0 3.33333333 0 1.66666667 0 0 Z " fill="#86CBF3" transform="translate(126,237)"/>
<path d="M0 0 C0 0.99 0 1.98 0 3 C-3.85645121 3.22036864 -6.49223216 2.60355101 -10 1 C-10 0.67 -10 0.34 -10 0 C-2.25 -1.125 -2.25 -1.125 0 0 Z " fill="#E1FAFE" transform="translate(200,182)"/>
<path d="M0 0 C0.99 0.33 1.98 0.66 3 1 C3 1.99 3 2.98 3 4 C1.02 4.33 -0.96 4.66 -3 5 C-2.625 3.0625 -2.625 3.0625 -2 1 C-1.34 0.67 -0.68 0.34 0 0 Z " fill="#B2CFE0" transform="translate(137,173)"/>
<path d="M0 0 C2.0625 0.4375 2.0625 0.4375 4 1 C3.67 2.32 3.34 3.64 3 5 C2.01 5 1.02 5 0 5 C-0.5625 3.0625 -0.5625 3.0625 -1 1 C-0.67 0.67 -0.34 0.34 0 0 Z " fill="#78D3F4" transform="translate(190,124)"/>
<path d="M0 0 C1.125 3.75 1.125 3.75 0 6 C-2.375 6.1875 -2.375 6.1875 -5 6 C-5.66 5.01 -6.32 4.02 -7 3 C-5.5459375 2.814375 -5.5459375 2.814375 -4.0625 2.625 C-2.5465625 2.315625 -2.5465625 2.315625 -1 2 C-0.67 1.34 -0.34 0.68 0 0 Z " fill="#C5E9F9" transform="translate(250,46)"/>
<path d="M0 0 C1.21816406 0.03480469 1.21816406 0.03480469 2.4609375 0.0703125 C3.68683594 0.09738281 3.68683594 0.09738281 4.9375 0.125 C5.87722656 0.15980469 5.87722656 0.15980469 6.8359375 0.1953125 C6.8359375 0.8553125 6.8359375 1.5153125 6.8359375 2.1953125 C2.85397293 3.24936195 -0.14601559 3.03629906 -4.1640625 2.1953125 C-2.1640625 0.1953125 -2.1640625 0.1953125 0 0 Z " fill="#0E7DBB" transform="translate(126.1640625,234.8046875)"/>
<path d="M0 0 C-0.33 1.32 -0.66 2.64 -1 4 C-1 3.01 -1 2.02 -1 1 C-1.99 1.33 -2.98 1.66 -4 2 C-4 2.66 -4 3.32 -4 4 C-4.99 3.67 -5.98 3.34 -7 3 C-7 2.34 -7 1.68 -7 1 C-8.32 0.67 -9.64 0.34 -11 0 C-7.18243176 -1.37432457 -3.92744671 -0.67975039 0 0 Z " fill="#2982BE" transform="translate(162,234)"/>
<path d="M0 0 C0.66 0.66 1.32 1.32 2 2 C1.625 5.625 1.625 5.625 1 9 C0.34 8.67 -0.32 8.34 -1 8 C-1.04241723 5.66705225 -1.04092937 3.33297433 -1 1 C-0.67 0.67 -0.34 0.34 0 0 Z " fill="#245984" transform="translate(40,159)"/>
<path d="M0 0 C0.99 0.33 1.98 0.66 3 1 C2.67 2.65 2.34 4.3 2 6 C0.35 5.67 -1.3 5.34 -3 5 C-3 3 -3 3 -1.5 1.375 C-1.005 0.92125 -0.51 0.4675 0 0 Z " fill="#5FABDB" transform="translate(133,235)"/>
<path d="M0 0 C2.31 0.33 4.62 0.66 7 1 C7 1.99 7 2.98 7 4 C6.67 3.34 6.34 2.68 6 2 C5.38125 2.495 4.7625 2.99 4.125 3.5 C2 5 2 5 0 5 C0 3.35 0 1.7 0 0 Z " fill="#4997C5" transform="translate(119,236)"/>
<path d="M0 0 C0.99 0 1.98 0 3 0 C3 2.64 3 5.28 3 8 C2.01 8 1.02 8 0 8 C0 5.36 0 2.72 0 0 Z " fill="#7590A3" transform="translate(39,196)"/>
<path d="M0 0 C0.66 0 1.32 0 2 0 C2.36923077 4.55384615 2.36923077 4.55384615 0.5 6.8125 C0.005 7.204375 -0.49 7.59625 -1 8 C-1.66 7.67 -2.32 7.34 -3 7 C-2.01 4.69 -1.02 2.38 0 0 Z " fill="#1A95D7" transform="translate(178,152)"/>
<path d="M0 0 C1.32 0 2.64 0 4 0 C4 1.65 4 3.3 4 5 C2.68 5 1.36 5 0 5 C0 3.35 0 1.7 0 0 Z " fill="#4088B5" transform="translate(235,32)"/>
<path d="M0 0 C0.66 0.66 1.32 1.32 2 2 C1.67 2.99 1.34 3.98 1 5 C0.34 5 -0.32 5 -1 5 C-1.66 5.66 -2.32 6.32 -3 7 C-3.99 6.67 -4.98 6.34 -6 6 C-4 4 -2 2 0 0 Z " fill="#0C84CD" transform="translate(154,192)"/>
<path d="M0 0 C2.125 0.375 2.125 0.375 4 1 C3.34 2.32 2.68 3.64 2 5 C1.34 5 0.68 5 0 5 C0 4.34 0 3.68 0 3 C-0.66 2.67 -1.32 2.34 -2 2 C-1.34 1.34 -0.68 0.68 0 0 Z " fill="#C1EEFA" transform="translate(195,190)"/>
<path d="M0 0 C2.875 -0.1875 2.875 -0.1875 6 0 C6.66 0.99 7.32 1.98 8 3 C5.03 3 2.06 3 -1 3 C-0.67 2.01 -0.34 1.02 0 0 Z " fill="#ECFCFE" transform="translate(114,174)"/>
<path d="M0 0 C0.66 0 1.32 0 2 0 C1.67 1.98 1.34 3.96 1 6 C1.66 6 2.32 6 3 6 C3 6.66 3 7.32 3 8 C1.35 8 -0.3 8 -2 8 C-2 7.34 -2 6.68 -2 6 C-1.34 6 -0.68 6 0 6 C0 4.02 0 2.04 0 0 Z " fill="#92BAD7" transform="translate(40,147)"/>
<path d="M0 0 C1.32 0 2.64 0 4 0 C4 1.32 4 2.64 4 4 C3.01 4 2.02 4 1 4 C0.67 5.32 0.34 6.64 0 8 C0 5.36 0 2.72 0 0 Z " fill="#DDE2E9" transform="translate(119,148)"/>
<path d="M0 0 C0 0.66 0 1.32 0 2 C-3.63 2 -7.26 2 -11 2 C-7.06425135 -0.62383243 -4.54354105 -1.51451368 0 0 Z " fill="#177FC3" transform="translate(158,239)"/>
<path d="M0 0 C1.32 0 2.64 0 4 0 C3.67 1.32 3.34 2.64 3 4 C2.34 4 1.68 4 1 4 C0.67 4.66 0.34 5.32 0 6 C0 4.02 0 2.04 0 0 Z " fill="#77C4EC" transform="translate(147,234)"/>
<path d="M0 0 C0.66 0 1.32 0 2 0 C1.34 4.29 0.68 8.58 0 13 C-0.33 13 -0.66 13 -1 13 C-1.02686553 11.02090602 -1.04633375 9.04171029 -1.0625 7.0625 C-1.07410156 5.96035156 -1.08570312 4.85820312 -1.09765625 3.72265625 C-1 1 -1 1 0 0 Z " fill="#DCF2FC" transform="translate(124,143)"/>
<path d="M0 0 C0.33 0 0.66 0 1 0 C1 3.3 1 6.6 1 10 C0.01 10.495 0.01 10.495 -1 11 C-1.33 9.35 -1.66 7.7 -2 6 C-1.34 6 -0.68 6 0 6 C0 4.02 0 2.04 0 0 Z " fill="#1F97D1" transform="translate(179,135)"/>
<path d="M0 0 C0.99 0 1.98 0 3 0 C3 1.98 3 3.96 3 6 C2.01 6 1.02 6 0 6 C0 4.02 0 2.04 0 0 Z " fill="#78C1EB" transform="translate(251,79)"/>
<path d="M0 0 C0.99 0.33 1.98 0.66 3 1 C3 2.32 3 3.64 3 5 C1.68 4.67 0.36 4.34 -1 4 C-0.67 2.68 -0.34 1.36 0 0 Z " fill="#88C8EA" transform="translate(247,79)"/>
<path d="M0 0 C1.32 0 2.64 0 4 0 C4 2.64 4 5.28 4 8 C3.01 8 2.02 8 1 8 C1.33 6.35 1.66 4.7 2 3 C1.34 2.67 0.68 2.34 0 2 C0 1.34 0 0.68 0 0 Z " fill="#1E7FBD" transform="translate(247,77)"/>
<path d="M0 0 C-0.33 0.99 -0.66 1.98 -1 3 C-2.875 3.875 -2.875 3.875 -5 4 C-6.75 2.5625 -6.75 2.5625 -8 1 C-2.25 0 -2.25 0 0 0 Z " fill="#F7FEFD" transform="translate(250,46)"/>
<path d="M0 0 C0 2.64 0 5.28 0 8 C-0.33 6.68 -0.66 5.36 -1 4 C-2.32 4 -3.64 4 -5 4 C-5 3.34 -5 2.68 -5 2 C-1.125 0 -1.125 0 0 0 Z " fill="#F0FEFF" transform="translate(241,36)"/>
</svg>
